<svg xmlns="http://www.w3.org/2000/svg" xmlns:xlink="http://www.w3.org/1999/xlink" width="226.509" height="83.47" viewBox="0 0 226.509 83.47">
  <defs>
    <clipPath id="clip-path">
      <rect id="Rectangle_24844" data-name="Rectangle 24844" width="226.509" height="83.47" fill="#fff"/>
    </clipPath>
  </defs>
  <g id="Find_Me_a_Freak" data-name="Find Me a Freak" clip-path="url(#clip-path)">
    <path id="Path_126557" data-name="Path 126557" d="M222.9,60.754a28.49,28.49,0,0,0-1.3,2.735c-.777,1.672-1.534,3.344-2.291,5.026-.317.7-.568,1.432-.925,2.112a3.848,3.848,0,0,0-.143,2.679,9.23,9.23,0,0,1,.092,2.122.948.948,0,0,1-.353.67,2.447,2.447,0,0,0-.716,1.692c-.123.757-.317,1.5-.389,2.265-.031.327-.179.619-.6.578-.235-.02-.332.184-.46.317a6.828,6.828,0,0,1-2.27,1.764,2.73,2.73,0,0,1-2.429-.23c-.4-.22-.445-.6-.337-1.048a12.982,12.982,0,0,1,1.089-2.183,36.142,36.142,0,0,0,2.408-5.757,10.061,10.061,0,0,0,.23-1.232,4.453,4.453,0,0,1,.752-2.066,3.154,3.154,0,0,0,.465-1.575c.107-1.268.164-2.536.286-3.8.092-.982.276-1.953.363-2.935.123-1.355.476-2.669.7-4.009a7.2,7.2,0,0,1,.327-1.007c.358-1.1.823-2.163,1.186-3.257.251-.752.552-1.483.736-2.26.107-.445.3-.895.445-1.35.481-1.519,1-3.027,1.447-4.556a69.65,69.65,0,0,1,4.745-11.7,8.958,8.958,0,0,0,.874-3.441c.036-.5-.291-.931-.394-1.416-.031-.133-.215-.138-.353-.164-.516-.1-1.028-.2-1.539-.3a12.654,12.654,0,0,1-3.165-1.166c-1.135-.552-2.255-1.135-3.431-1.605-.608-.245-.7-.47-.46-1.278a33.257,33.257,0,0,1,3.753-8.794c.506-.787.839-1.672,1.36-2.454a3.436,3.436,0,0,1,2.92-1.708l2.321-.046c.046.046.077.051.072-.031a1.158,1.158,0,0,0-.266-1.089c-.368-.4-.2-.915-.148-1.35a13.606,13.606,0,0,1,.711-3.073,12.081,12.081,0,0,1,1.917-3.318A12.093,12.093,0,0,1,231.853.671a3.248,3.248,0,0,1,2.92-.557,7.045,7.045,0,0,0,1.9.368,1.023,1.023,0,0,1,.977.741,18.96,18.96,0,0,1,1.12,3.364c.092.419.266.818.358,1.248a5.247,5.247,0,0,1-.02,2.055c-.286,1.652-.67,3.283-1.079,4.909-.2.793-.189.757.593,1.089.286.123.624.031.89.368a1.844,1.844,0,0,1,.409,1.191c0,.839.082,1.672.133,2.5q.138,2.117.225,4.234a7.053,7.053,0,0,0,.322,2.608c.21.476.23.966.409,1.437a6.761,6.761,0,0,0,2.086,2.326,3.365,3.365,0,0,0,1.166.654,5.693,5.693,0,0,1,1.161.6c.92.624.757,1.544.654,2.418a4.622,4.622,0,0,1-.394,1.416,5.115,5.115,0,0,0-.225,2.608c.051.808.133,1.621.123,2.434s.107,1.641.164,2.464c.041.583.026,1.166.092,1.754.092.772.148,1.549.189,2.321.041.716.107,1.432.189,2.142a10.273,10.273,0,0,0,.624,3.18c.435.966.864,1.943,1.319,2.9a10.933,10.933,0,0,1,1.135,4.05c.107,1.718.174,3.436.256,5.154-.087.066-.067.239,0,0,0,.936-.031,2.05.046,2.981.128,1.519.066,3.042.1,4.561a2.715,2.715,0,0,0,.317,1.156,7.652,7.652,0,0,1,1.023,4.167c-.056.614-.015,1.237-.02,1.856,0,.148.01.3.015.45-.1.066-.092.123.005.179a5.093,5.093,0,0,0,.481,1.892c.46,1.6.061,2.362-1.283,3.032a5.486,5.486,0,0,1-2.894.527,2.714,2.714,0,0,1-.619-.169.454.454,0,0,1-.317-.568c.148-.767.322-1.534.46-2.306a8.917,8.917,0,0,0,.174-1.652c-.01-.782.107-1.559.1-2.347-.015-1.14-.235-2.265-.21-3.41a4.513,4.513,0,0,1-.02-.455c.24-2.275-.762-4.269-1.416-6.345-.522-1.652-1.15-3.272-1.57-4.955a.841.841,0,0,0-.107-.2,10.9,10.9,0,0,1,1.033-1.8A5.473,5.473,0,0,0,245.7,55.4a6.259,6.259,0,0,0-3.768-4.571c-.634-.3-1.35-.322-1.979-.634-.532-1.473-1.064-2.95-1.6-4.423-.475-1.314-1.007-2.608-1.406-3.937a44.062,44.062,0,0,1-1.1-4.443c-.031-.164-.051-.317-.22-.118a9.125,9.125,0,0,0-2,2.914,29.47,29.47,0,0,1-2.352,5c-1.028,1.754-2.291,3.349-3.431,5.021-.373.056-.747.118-1.12.164a5.836,5.836,0,0,0-3.876,1.963,6.064,6.064,0,0,0-.772,6.826,12.823,12.823,0,0,1,.839,1.6Zm2.286-42.786c-.123.164-.2.3-.312.419a22.067,22.067,0,0,0-2.781,4.2c-.1.184-.128.322.041.476a15.1,15.1,0,0,0,3.579,2.6c.353.169.481.041.491-.291a14.041,14.041,0,0,0,0-1.539,38.731,38.731,0,0,0-.7-4.592,3.917,3.917,0,0,0-.317-1.268Z" transform="translate(-102.978 0)"/>
    <path id="Path_126558" data-name="Path 126558" d="M233.041,108.937a3.79,3.79,0,0,0-.472-.943,5.268,5.268,0,0,1-.366-.652,6.055,6.055,0,0,1,.772-6.826,5.88,5.88,0,0,1,3.876-1.964c.249-.034.5-.073.746-.111l.374-.057c.24.057.483.1.725.142a5.954,5.954,0,0,1,1.532.413l0,0v.005a6.385,6.385,0,0,1,3.492,3.232,6.518,6.518,0,0,1,4.791-3.595h0l0,0a3.042,3.042,0,0,1,.768-.1,2.932,2.932,0,0,0,.8-.109,4.753,4.753,0,0,0,1.015.331,5.18,5.18,0,0,1,.963.3,6.257,6.257,0,0,1,3.768,4.571,5.467,5.467,0,0,1-.864,3.845c-.117.21-.251.411-.385.611h0a4.906,4.906,0,0,0-.647,1.193l-.231.153a2.865,2.865,0,0,1,.1-.864l.007-.031.022-.1c.1-.456.212-.965-.212-1.3a1.724,1.724,0,0,0-1.85-.353,2.666,2.666,0,0,1-1.519.261,1.343,1.343,0,0,0-1.212.686,3.184,3.184,0,0,1-.383.418c-.014.013-.03.024-.045.035a.212.212,0,0,0-.077.078.248.248,0,0,1,.072-.068.5.5,0,0,0,.044-.035,3.209,3.209,0,0,0,.38-.416,1.346,1.346,0,0,1,1.216-.688,2.708,2.708,0,0,0,1.519-.261,1.725,1.725,0,0,1,1.851.353c.423.333.311.842.211,1.3-.008.035-.015.069-.022.1s-.013.059-.019.089h0a2.748,2.748,0,0,0-.088.8,43.83,43.83,0,0,1-6.442,6.253c-.662.553-1.359,1.053-2.055,1.554h0c-.483.347-.966.694-1.437,1.058a.326.326,0,0,1-.445.026,49.81,49.81,0,0,1-8.58-7.271l-.051-.057a8.137,8.137,0,0,1-1.4-1.9v-.028c-.081-.035-.166-.07-.245-.1Zm16.212-9.316c0,.033,0,.067,0,.1-.027.312-.042.625-.042.938,0-.312.016-.624.042-.933A.967.967,0,0,0,249.253,99.621Zm.006,2.108a2.386,2.386,0,0,1-.593,1.441c-.06.08-.117.161-.173.242a2.759,2.759,0,0,1-.742.806c-.076.048-.15.1-.224.147a1.883,1.883,0,0,1-1.315.457,6.188,6.188,0,0,0-.983-.015l-.285.01a.905.905,0,0,1-.711-.23.412.412,0,0,0-.276-.138c-.513-.024-.664-.088-.719-.263.055.179.2.244.719.268a.413.413,0,0,1,.276.138.905.905,0,0,0,.711.23l.268-.008h0a6.922,6.922,0,0,1,1,.013,1.9,1.9,0,0,0,1.319-.459c.073-.049.146-.1.22-.144a2.792,2.792,0,0,0,.749-.815c.055-.079.11-.157.167-.234A2.384,2.384,0,0,0,249.259,101.729Zm-6.06,2.17c-.007-.089-.015-.192-.034-.31a.6.6,0,0,0-.68-.593c-.263-.007-.525,0-.787,0l-.394,0a1.668,1.668,0,0,1-1.8-1.227,2.577,2.577,0,0,1-.034-1.472,2.542,2.542,0,0,0,.034,1.477A1.665,1.665,0,0,0,241.3,103h.394c.262,0,.525,0,.787,0a.6.6,0,0,1,.68.593C243.182,103.711,243.191,103.812,243.2,103.9Zm5.509,8.193c.181,0,.278-.013.305-.139-.023.135-.121.149-.31.149h-.009c-2.61-.005-5.215-.01-7.819,0-.317,0-.383-.133-.373-.409.007-.24.005-.482,0-.723h0c0-.242-.006-.485,0-.728a1.715,1.715,0,0,0-.245-.808,1.893,1.893,0,0,1-.246-.731c0-.117-.15-.167-.273-.208l-.049-.017a1.7,1.7,0,0,1-.353-.2h0a1.233,1.233,0,0,0-.6-.26.525.525,0,0,1-.225-.12.675.675,0,0,0-.425-.177.136.136,0,0,1-.132-.159.848.848,0,0,0-.278-.752,1.759,1.759,0,0,1-.218-.306.39.39,0,0,0-.368-.22h-1.249q-1.243,0-2.484,0a.325.325,0,0,0-.29.111.314.314,0,0,1,.3-.121H237.1a.387.387,0,0,1,.368.22,1.761,1.761,0,0,0,.218.306.848.848,0,0,1,.278.752.138.138,0,0,0,.133.159.675.675,0,0,1,.424.177.531.531,0,0,0,.225.12,1.222,1.222,0,0,1,.6.261,1.674,1.674,0,0,0,.351.2l.068.026h0c.118.042.249.089.254.2a1.921,1.921,0,0,0,.244.723,1.728,1.728,0,0,1,.246.816c-.005.221,0,.444,0,.668h0c0,.261,0,.523,0,.784-.01.281.056.409.373.409q2.613-.005,5.22,0h2.608Zm-15.4-3.15c.019-.031.036-.061.051-.092a1.111,1.111,0,0,1-.056.1Z" transform="translate(-113.134 -48.075)" fill="#ed1f32" fill-rule="evenodd"/>
    <path id="Path_126559" data-name="Path 126559" d="M138.157,134.213c.358-1.074.721-2.142,1.079-3.216q1.58-4.7,3.16-9.4c.169-.5.3-1.007.481-1.5.041-.118.2-.281.312-.281,1.191-.02,2.388-.01,3.61-.01.092.527.179,1.038.266,1.549.358,2.132.721,4.264,1.074,6.4.516,3.139,1.023,6.274,1.544,9.413.164,1,.358,2,.537,3,.066.383.041.414-.358.414-.982,0-1.969-.015-2.95.015-.358.01-.486-.1-.532-.445-.2-1.4-.4-2.8-.639-4.2-.455-2.695-.931-5.389-1.4-8.084a1.132,1.132,0,0,0-.164-.424c-.082.22-.169.44-.245.66-.665,2.02-1.324,4.039-1.994,6.059s-1.34,4.034-1.994,6.059c-.087.266-.194.373-.486.368-.9-.02-1.8-.015-2.7,0a.433.433,0,0,1-.481-.348c-.608-1.876-1.217-3.758-1.841-5.629-.68-2.04-1.375-4.075-2.061-6.11-.1-.3-.184-.614-.271-.92h-.092c-.153.69-.327,1.375-.45,2.071q-.736,4.126-1.442,8.252c-.128.746-.24,1.5-.337,2.255-.036.276-.128.409-.435.4-1.079-.01-2.153,0-3.231.015-.23,0-.24-.1-.2-.286.189-1.023.368-2.045.552-3.073.353-1.989.716-3.983,1.048-5.972.537-3.18,1.053-6.366,1.58-9.546.092-.542.21-1.079.307-1.621a.3.3,0,0,1,.353-.286c1.11.01,2.224,0,3.339.015a.373.373,0,0,1,.291.194q1.043,3.106,2.066,6.217,1.189,3.589,2.372,7.184c.087.261.153.532.23.793.036,0,.066.01.1.01Z" transform="translate(-61.522 -58.542)"/>
    <path id="Path_126560" data-name="Path 126560" d="M85.661,138.5c-.634.435-1.181.885-1.79,1.217a6.127,6.127,0,0,1-5.481.251,7.5,7.5,0,0,1-4.494-5.323,8.326,8.326,0,0,1,2.158-8.452,6.515,6.515,0,0,1,9.035-.337c.164.138.327.286.547.476.01-.194.026-.317.02-.44q-.008-3.405-.026-6.811c0-.261.072-.327.348-.317,1.146.026,2.291.01,3.5.01v.383q0,10.239.01,20.473c0,.332-.092.455-.424.45-1.053-.01-2.107-.005-3.16,0-.2,0-.271-.077-.261-.271.015-.291.02-.583.026-.879v-.435Zm-4.085-1.554a3.756,3.756,0,0,0,3.666-2.194,5.064,5.064,0,0,0-.184-5.154,4.12,4.12,0,0,0-6.882-.031,5.382,5.382,0,0,0-.644,3.758A3.993,3.993,0,0,0,81.575,136.945Z" transform="translate(-35.941 -58.038)"/>
    <path id="Path_126561" data-name="Path 126561" d="M386.852,131.537v-1.682h.358c1.017,0,2.035.015,3.052-.01.337-.005.4.107.4.419q-.015,6.511-.015,13.023c0,.562.006,1.125.021,1.687.005.22-.066.327-.3.322-1.017-.01-2.035,0-3.052-.02-.5-.01-.5-.031-.5-.522v-1.007c-.112.077-.2.128-.286.189a6.912,6.912,0,0,1-3.349,1.657,6.77,6.77,0,0,1-6.034-2.05,8.982,8.982,0,0,1-.608-11.382,6.683,6.683,0,0,1,9.362-1.36c.3.235.6.465.946.731Zm-8.242,5.987c.036.348.061.7.1,1.043a4.088,4.088,0,0,0,4.147,3.594,3.935,3.935,0,0,0,3.748-2.551,6.42,6.42,0,0,0,.251-3.216,3.806,3.806,0,0,0-2.521-3.155,3.924,3.924,0,0,0-4.071.568,4.6,4.6,0,0,0-1.666,3.712Z" transform="translate(-183.163 -63.261)"/>
    <path id="Path_126562" data-name="Path 126562" d="M355.513,138.7H343.17c.036.189.056.322.087.45a3.83,3.83,0,0,0,3.681,3.088,11.905,11.905,0,0,0,2.091-.112,5.342,5.342,0,0,0,2.424-1.273.389.389,0,0,1,.6.026c.69.593,1.4,1.176,2.1,1.764.322.271.307.276-.01.573a8.706,8.706,0,0,1-4.536,2.291,9.232,9.232,0,0,1-4.985-.266,7.585,7.585,0,0,1-5.1-6.7,7.933,7.933,0,0,1,.87-4.857A7.614,7.614,0,0,1,346.9,129.5a7.7,7.7,0,0,1,7.266,3.467,9.1,9.1,0,0,1,1.349,5.737Zm-3.839-3.047a4.05,4.05,0,0,0-4.177-2.914,4.193,4.193,0,0,0-4.147,2.914h8.324Z" transform="translate(-165.89 -63.278)"/>
    <path id="Path_126563" data-name="Path 126563" d="M181.157,138.733a3.8,3.8,0,0,0,2.981,3.421,5.9,5.9,0,0,0,5.164-1.248.447.447,0,0,1,.69,0c.7.6,1.411,1.2,2.122,1.784.21.174.189.291,0,.47a8.925,8.925,0,0,1-5.282,2.439,9.569,9.569,0,0,1-3.349-.107,7.484,7.484,0,0,1-5.6-5,8.147,8.147,0,0,1,.588-7.041,7.555,7.555,0,0,1,7.5-3.968,7.666,7.666,0,0,1,5.558,2.7,7.849,7.849,0,0,1,1.851,4.571c.046.511.056,1.028.092,1.539.02.3-.066.419-.414.419-3.84-.015-7.68-.005-11.52,0-.123,0-.245.01-.368.015Zm8.442-3.093a4.408,4.408,0,0,0-8.3,0Z" transform="translate(-86.667 -63.272)"/>
    <path id="Path_126564" data-name="Path 126564" d="M417.271,132.835v2.8c0,1.345-.01,2.695.005,4.039,0,.3-.087.414-.394.409-1.043-.01-2.081-.01-3.124,0-.24,0-.3-.1-.3-.317.005-.762,0-1.524,0-2.28q-.008-9.18-.02-18.366c0-.245.041-.343.327-.337,1.145.02,2.291.01,3.482.01v12.164c.245-.225.476-.4.665-.608,1.626-1.8,3.237-3.6,4.868-5.4a.856.856,0,0,1,.527-.291c1.437-.026,2.874-.015,4.372.066-2.132,2.393-4.269,4.781-6.422,7.194l7.3,8.155c-.215.015-.3.026-.394.026-1.242,0-2.48-.015-3.722,0a1.184,1.184,0,0,1-.961-.455c-1.861-2.117-3.743-4.218-5.619-6.325-.164-.184-.322-.368-.481-.552l-.107.077Z" transform="translate(-202.046 -58.049)"/>
    <path id="Path_126565" data-name="Path 126565" d="M41.186,145.3V129.874h3.789v1.5c.128-.077.2-.118.276-.164.634-.4,1.242-.839,1.9-1.191a5.173,5.173,0,0,1,7.465,3.487,9.3,9.3,0,0,1,.2,1.882c.02,3.221.01,6.437.01,9.659,0,.066-.01.138-.015.23H50.9v-.43c0-2.715.02-5.43-.015-8.15a8.973,8.973,0,0,0-.286-2.147,2.024,2.024,0,0,0-2.153-1.6,3.249,3.249,0,0,0-3.242,2.756,9.312,9.312,0,0,0-.2,1.841c-.02,2.424-.015,4.847,0,7.271,0,.363-.1.486-.465.481-1.11-.015-2.219-.005-3.354-.005Z" transform="translate(-20.125 -63.259)"/>
    <path id="Path_126566" data-name="Path 126566" d="M.016,119.844H10.257v2.178c0,.419-.015.844.005,1.263.015.286-.1.363-.363.358-.818-.005-1.636.005-2.459.005-1.079,0-2.153,0-3.231-.015-.276,0-.383.056-.378.368.026,1.043.01,2.081.01,3.124a2.368,2.368,0,0,0,.031.276h6.366v3.927H3.82v1.115q.008,3.9.02,7.8c0,.24-.041.353-.327.353-1.074-.01-2.153,0-3.231.02-.22,0-.286-.077-.281-.286q.015-.721.015-1.442V119.844Z" transform="translate(0 -58.567)"/>
    <path id="Path_126567" data-name="Path 126567" d="M299.716,127.416h6.412v3.932H299.7v9.224c-.281.02-.537.046-.787.046-.89,0-1.779-.015-2.669,0-.307.005-.363-.1-.363-.378q.008-9.357,0-18.714v-1.672h10.252c.005.1.02.2.02.3,0,1.053-.005,2.107.005,3.16,0,.245-.072.322-.317.322q-2.684,0-5.369.01h-.752v3.763Z" transform="translate(-144.595 -58.572)"/>
    <path id="Path_126568" data-name="Path 126568" d="M321.97,129.882h3.267v1.841c.322-.414.562-.777.854-1.1a3.2,3.2,0,0,1,3.722-.91c.261.1.343.215.235.486-.327.864-.639,1.728-.951,2.6-.092.256-.21.312-.47.189a1.6,1.6,0,0,0-2.127.66,5.111,5.111,0,0,0-.644,2.454c-.051,1.636-.051,3.272-.056,4.914q-.008,1.948.005,3.9c0,.307-.1.409-.4.4-.961-.02-1.917,0-2.879-.015-.568-.005-.568-.02-.562-.583q0-6.88.01-13.759v-1.069Z" transform="translate(-157.34 -63.267)"/>
    <path id="Path_126569" data-name="Path 126569" d="M26.136,145.7V130.244h.813c.879,0,1.754.015,2.633-.01.337-.01.419.107.4.419-.026.573-.02,1.145-.02,1.718q0,6.4.015,12.813c0,.506,0,.5-.5.5-.982,0-1.963,0-2.95.005h-.4Z" transform="translate(-12.77 -63.644)"/>
    <path id="Path_126570" data-name="Path 126570" d="M30.008,120.514a2.438,2.438,0,0,1-2.362,2.429,2.472,2.472,0,0,1-2.5-2.6,2.3,2.3,0,0,1,2.357-2.316,2.48,2.48,0,0,1,2.505,2.49Z" transform="translate(-12.291 -57.677)"/>
  </g>
</svg>
