<svg xmlns="http://www.w3.org/2000/svg" xmlns:xlink="http://www.w3.org/1999/xlink" width="133.918" height="48.592" viewBox="0 0 133.918 48.592">
  <defs>
    <clipPath id="clip-path">
      <path id="Path_126472" data-name="Path 126472" d="M43.921,23.225,30.841,36.31l13.08,13.084H28.975L15.89,36.31,28.975,23.225ZM28.975.8,4.682,25.1l7.476,7.476L43.921.8H28.975Z" transform="translate(-4.682 -0.804)"/>
    </clipPath>
    <linearGradient id="linear-gradient" x1="0.197" y1="1.193" x2="0.699" y2="0.448" gradientUnits="objectBoundingBox">
      <stop offset="0" stop-color="#1a237e" stop-opacity="0.4"/>
      <stop offset="1" stop-color="#1a237e" stop-opacity="0"/>
    </linearGradient>
    <radialGradient id="radial-gradient" cx="0.028" cy="0.068" r="1.223" gradientUnits="objectBoundingBox">
      <stop offset="0" stop-color="#fff" stop-opacity="0.102"/>
      <stop offset="1" stop-color="#fff" stop-opacity="0"/>
    </radialGradient>
  </defs>
  <g id="flutterio-ar21" transform="translate(-4.121 -8.967)">
    <g id="Group_52196" data-name="Group 52196" transform="translate(4.121 8.966)">
      <g id="Group_52191" data-name="Group 52191" transform="translate(0 0)" clip-path="url(#clip-path)">
        <path id="Path_126471" data-name="Path 126471" d="M21.458,39.97,42.013,19.41H27.067L13.987,32.494Z" transform="translate(-2.774 3.012)" fill="#39cefd"/>
      </g>
      <g id="Group_52192" data-name="Group 52192" transform="translate(0 0)" clip-path="url(#clip-path)">
        <path id="Path_126473" data-name="Path 126473" d="M4.682,25.1,28.975.8H43.921L12.157,32.572Z" transform="translate(-4.682 -0.804)" fill="#39cefd"/>
      </g>
      <g id="Group_52193" data-name="Group 52193" transform="translate(0 0)" clip-path="url(#clip-path)">
        <path id="Path_126475" data-name="Path 126475" d="M25.8,43.348H40.742l-13.08-13.08-7.476,7.476Z" transform="translate(-1.502 5.238)" fill="#03569b"/>
      </g>
      <g id="Group_52194" data-name="Group 52194" transform="translate(0 0)" clip-path="url(#clip-path)">
        <path id="Path_126477" data-name="Path 126477" d="M27.662,30.268l-7.476,7.476L31.273,33.9Z" transform="translate(-1.502 5.238)" fill="url(#linear-gradient)"/>
      </g>
      <g id="Group_52195" data-name="Group 52195" transform="translate(0 0)" clip-path="url(#clip-path)">
        <path id="Path_126479" data-name="Path 126479" d="M13.986,31.538l7.476-7.476,7.476,7.476-7.476,7.476Z" transform="translate(-2.774 3.966)" fill="#16b9fd"/>
      </g>
      <path id="Path_126481" data-name="Path 126481" d="M43.921,23.225,30.841,36.31l13.08,13.084H28.975L15.89,36.31,28.975,23.225ZM28.975.8,4.682,25.1l7.476,7.476L43.921.8H28.975Z" transform="translate(-4.682 -0.804)" fill="url(#radial-gradient)"/>
    </g>
    <g id="Group_52197" data-name="Group 52197" transform="translate(48.104 21.99)">
      <path id="Path_126482" data-name="Path 126482" d="M40.62,19.774H53.683v2.555H43.271v7.729h9.4v2.523h-9.4V42.36H40.62Zm16.224,0h2.681V42.362H56.844Zm12.49,23.093a5.735,5.735,0,0,1-4.459-1.7,6.983,6.983,0,0,1-1.5-4.764V26.273h2.681v9.716a4.725,4.725,0,0,0,1.041,3.374A3.71,3.71,0,0,0,69.9,40.448a4.146,4.146,0,0,0,2.41-.725,4.629,4.629,0,0,0,1.639-1.892,5.325,5.325,0,0,0,.6-2.461V26.284h2.68V42.371H74.675V40.026h-.127a5.3,5.3,0,0,1-2.114,2.018,6.19,6.19,0,0,1-3.092.819Z" transform="translate(-40.62 -19.774)" fill="gray"/>
      <path id="Path_126483" data-name="Path 126483" d="M80.8,42.282a5.216,5.216,0,0,1-1.829-.316,4.194,4.194,0,0,1-1.388-.852,3.869,3.869,0,0,1-.946-1.388,5.186,5.186,0,0,1-.316-1.924V28.369H73.517V25.94h2.808V21.4h2.681V25.94h3.912v2.429H79.006v8.77a3.1,3.1,0,0,0,.506,1.956,2.167,2.167,0,0,0,1.735.694,3.268,3.268,0,0,0,1.767-.536v2.619a4.117,4.117,0,0,1-.979.316,6.368,6.368,0,0,1-1.229.1Z" transform="translate(-33.874 -19.441)" fill="gray"/>
      <path id="Path_126484" data-name="Path 126484" d="M80.8,42.282a5.216,5.216,0,0,1-1.829-.316,4.194,4.194,0,0,1-1.388-.852,3.869,3.869,0,0,1-.946-1.388,5.186,5.186,0,0,1-.316-1.924V28.369H73.517V25.94h2.808V21.4h2.681V25.94h3.912v2.429H79.006v8.77a3.1,3.1,0,0,0,.506,1.956,2.167,2.167,0,0,0,1.735.694,3.268,3.268,0,0,0,1.767-.536v2.619a4.117,4.117,0,0,1-.979.316,6.368,6.368,0,0,1-1.229.1Z" transform="translate(-22.503 -19.441)" fill="gray"/>
      <path id="Path_126485" data-name="Path 126485" d="M100.164,41.847a7.891,7.891,0,0,1-4.133-1.1,7.8,7.8,0,0,1-2.87-3.028,9.419,9.419,0,0,1-1.01-4.386,9.721,9.721,0,0,1,.946-4.29,7.912,7.912,0,0,1,2.745-3.124,7.26,7.26,0,0,1,4.1-1.169,7.578,7.578,0,0,1,4.1,1.085,6.817,6.817,0,0,1,2.651,2.9,9.272,9.272,0,0,1,.946,4.259,3.074,3.074,0,0,1-.1.819H94.83a6.394,6.394,0,0,0,.883,3.092A5.169,5.169,0,0,0,97.7,38.795a5.522,5.522,0,0,0,2.555.631,5.234,5.234,0,0,0,4.764-2.9l2.272,1.1a8.064,8.064,0,0,1-2.839,3.092,7.77,7.77,0,0,1-4.29,1.135ZM104.8,31.594a5.22,5.22,0,0,0-.566-2.018,4.3,4.3,0,0,0-1.609-1.7,4.936,4.936,0,0,0-2.711-.694A4.561,4.561,0,0,0,96.7,28.407a5.814,5.814,0,0,0-1.7,3.186H104.8Zm5.946-6.341H113.3v2.587h.127a4.238,4.238,0,0,1,1.829-2.176,5.292,5.292,0,0,1,4.731-.568V28a5,5,0,0,0-2.272-.506,3.738,3.738,0,0,0-2.145.663,4.776,4.776,0,0,0-1.567,1.8,5.2,5.2,0,0,0-.566,2.41v8.99h-2.681V25.265Z" transform="translate(-30.053 -18.754)" fill="gray"/>
    </g>
  </g>
</svg>
