<svg xmlns="http://www.w3.org/2000/svg" xmlns:xlink="http://www.w3.org/1999/xlink" width="187" height="63" viewBox="0 0 187 63">
  <defs>
    <clipPath id="clip-path">
      <rect id="Rectangle_24845" data-name="Rectangle 24845" width="187" height="63" transform="translate(0 -0.26)" fill="#fff"/>
    </clipPath>
  </defs>
  <g id="GoGetter" transform="translate(0 0.26)" clip-path="url(#clip-path)">
    <path id="Path_126571" data-name="Path 126571" d="M.077,33.859c-.1-.638.078-1.368-.059-2.106a4,4,0,0,1,.126-.937,33.981,33.981,0,0,1,.835-4.964c.3-1.176.8-2.3,1.214-3.452A26.957,26.957,0,0,1,4.2,18.2a28.05,28.05,0,0,1,1.833-2.759A36.8,36.8,0,0,1,9.021,12,17.428,17.428,0,0,1,11.478,9.8c.969-.69,1.833-1.516,2.861-2.121a29.715,29.715,0,0,1,6.554-3.087,34.575,34.575,0,0,1,4.283-1.1,35.648,35.648,0,0,1,5.47-.535,40.542,40.542,0,0,1,4.925.31,25.422,25.422,0,0,1,3.741.778A30.183,30.183,0,0,1,45.187,6.31a35.943,35.943,0,0,1,6.272,4.2,29.289,29.289,0,0,1,6.4,7.686,31.213,31.213,0,0,1,1.893,3.92.843.843,0,0,1-.067.837,35.5,35.5,0,0,0-2.531,5.62,28.944,28.944,0,0,0-1.347,5.362,35.323,35.323,0,0,0-.393,6.911,34.116,34.116,0,0,0,1.3,7.966,1.962,1.962,0,0,0,.119.465c.434.719.13,1.283-.3,1.881a33.417,33.417,0,0,1-5.169,5.705,28.912,28.912,0,0,1-4.936,3.515,31.3,31.3,0,0,1-7.641,3.069c-1.3.325-2.646.428-3.926.829-.657-.25-1.284.163-1.956.063a16.46,16.46,0,0,0-1.956.007,44.3,44.3,0,0,1-5.225-.384A25.9,25.9,0,0,1,20.607,62.7a34.035,34.035,0,0,1-4.969-2.309A47.525,47.525,0,0,1,11.21,57.4a22.586,22.586,0,0,1-2.127-2.006,26.954,26.954,0,0,1-4.5-5.643A27.833,27.833,0,0,1,2.467,45.7q-.585-1.394-1.054-2.818A22.854,22.854,0,0,1,.407,38.568a29.179,29.179,0,0,1-.341-4.721Zm31.111,5.119c-.063.815-.119,1.593-.182,2.371a34.015,34.015,0,0,0,.174,7.4,14.1,14.1,0,0,0,.419,2.106c.115.38.122.38.512.461.071-.148-.019-.269-.07-.391a5.208,5.208,0,0,1-.341-1.892c-.026-1.129.134-2.242.212-3.36.122-1.752.308-3.5.5-5.241.189-1.693.408-3.382.716-5.06.234-1.265.431-2.534.672-3.8.234-1.224.586-2.419.8-3.651A2.32,2.32,0,0,0,34.328,26a1.542,1.542,0,0,1-.189-.446,4.316,4.316,0,0,0-.824-1.438A2.749,2.749,0,0,0,30.642,23.1a3.683,3.683,0,0,0-.928.3c-1.934.819-3.782,1.8-5.623,2.8a11.556,11.556,0,0,0-2.9,1.781,1.527,1.527,0,0,0-.178,2.157,2.344,2.344,0,0,0,3.411.277c.3-.28.564-.616.842-.926a4.674,4.674,0,0,1,1.581-1.232,1.219,1.219,0,0,1,.98-.085c-.449.479-.854.889-1.232,1.32-.171.2-.572.339-.416.631.141.262.538.236.835.24a1.706,1.706,0,0,0,.72-.232c.111-.052.23-.2.386.063-.3.184-.293.561-.471.852-1.136,1.885-2.063,3.887-3.262,5.735a74.983,74.983,0,0,1-4.728,6.867,20.511,20.511,0,0,1-4.335,4.075,1.036,1.036,0,0,1-.746.3A25.546,25.546,0,0,1,14,43.761,39.652,39.652,0,0,1,15.541,30.6,37.732,37.732,0,0,1,20.6,19.465a21.724,21.724,0,0,1,5.522-5.738,1.454,1.454,0,0,1,1.314-.24,6.236,6.236,0,0,1,1.993.981,2.893,2.893,0,0,0,.776.461.794.794,0,0,0,.913-.125c.3-.35.642-.288,1.013-.221.649.118.839-.081.664-.708a1.5,1.5,0,0,0-.178-.372,3.125,3.125,0,0,0-1.7-1.372c-1.058-.358-2.112-.73-3.184-1.055a7.945,7.945,0,0,0-3.511-.443A14.82,14.82,0,0,0,18,13.472a12.939,12.939,0,0,0-2.579,2.585,30.188,30.188,0,0,0-2.527,3.43A38.994,38.994,0,0,0,9.837,25.17a44.655,44.655,0,0,0-1.826,5.012A45.915,45.915,0,0,0,6.6,38.155c-.249,3.2-.174,6.369,1.266,9.367a8.263,8.263,0,0,0,2.91,3.426,3.844,3.844,0,0,0,1.425.683,8.9,8.9,0,0,0,2.579,0,8.715,8.715,0,0,1,2.7.007,3.691,3.691,0,0,0,3.114-.885A22.646,22.646,0,0,0,22.47,48.81a11.623,11.623,0,0,0,2.03-2.637.568.568,0,0,1,.683-.336c.3.055.356.291.353.524a13.154,13.154,0,0,0,.594,3.614,4.44,4.44,0,0,0,2.553,3.142,2.973,2.973,0,0,0,2.167.066c.783-.262.943-.641.59-1.386A14.912,14.912,0,0,1,30.2,45.73c-.03-.974.115-1.936.167-2.906.059-1.106.182-2.209.278-3.315.022-.277.1-.5.538-.535Zm6.925-4.145a1.2,1.2,0,0,1-.037.7,20.581,20.581,0,0,0,.1,9.076,6.573,6.573,0,0,0,.9,2.2c.119.173.148.38.3.538a5.916,5.916,0,0,0,6.962,1.165,10.959,10.959,0,0,0,4.29-3.444,20.822,20.822,0,0,0,3.875-10.26,11.026,11.026,0,0,0-.765-4.894,3.626,3.626,0,0,0-3.552-2.526c-.82-.055-.942.144-.66.929.071.2.138.395.2.59a13.637,13.637,0,0,1,.256,8.176,26.61,26.61,0,0,1-2.572,6.052,11.98,11.98,0,0,1-3.14,3.5,2.455,2.455,0,0,1-.534.325.731.731,0,0,1-1.11-.35,6.507,6.507,0,0,1-.668-1.671,16.116,16.116,0,0,1-.082-6.067,27.337,27.337,0,0,1,1.882-6.078A24.292,24.292,0,0,1,49.9,24.038a2.605,2.605,0,0,1,2.932-.719,1.147,1.147,0,0,0,.271.059,1.213,1.213,0,0,0,1.518-.682c.375-.6.3-.94-.308-1.328-.508-.325-1.028-.642-1.551-.94a6.951,6.951,0,0,0-5.352-.575,11.459,11.459,0,0,0-4.821,2.972,20.484,20.484,0,0,0-5.237,7.855,10.854,10.854,0,0,0-.616,1.593c-.238,1.117-.642,2.187-.861,3.312a17.948,17.948,0,0,0-.367,5.919,9.37,9.37,0,0,0,1.288,3.99,1.984,1.984,0,0,0,.783.7,2.726,2.726,0,0,0-.071-1.069,20.948,20.948,0,0,1-.531-3.492,17.542,17.542,0,0,1,.661-6.033,1.18,1.18,0,0,1,.471-.763Z" transform="translate(-0.004 -1.618)" fill="#3ea7af"/>
    <path id="Path_126572" data-name="Path 126572" d="M223.461,27.891c.167-1.147.308-2.294.553-3.43.341-1.582.568-3.186.894-4.772.178-.863.375-1.722.549-2.585a36.146,36.146,0,0,0,.7-3.57,11.575,11.575,0,0,1,.36-1.722,5.646,5.646,0,0,0,.19-1.365c0-.284-.1-.454-.4-.417-.72.077-1.436.17-2.152.247-.282.03-.364.2-.438.45-.564,1.921-1.017,3.869-1.507,5.8-.248.974-.571,1.94-.779,2.917-.271,1.287-.6,2.559-.887,3.843-.256,1.14-.456,2.294-.765,3.419-.3,1.1-.53,2.216-.739,3.326-.237,1.283-.53,2.559-.742,3.847s-.438,2.57-.668,3.858a47.019,47.019,0,0,0-.739,7.767,7.42,7.42,0,0,1-.067,1.036,5.793,5.793,0,0,0,.118,1.859,3.45,3.45,0,0,1,.059.62.5.5,0,0,1-.371.531,4.624,4.624,0,0,1-1.982.247,2,2,0,0,1-1.707-1.641,30.612,30.612,0,0,1-.337-7.391c.16-2.515.345-5.027.638-7.531.141-1.224.234-2.467.486-3.662.278-1.328.475-2.67.72-4a20.8,20.8,0,0,1,.36-2.205c.315-1.073.256-2.205.579-3.26.338-1.106.527-2.239.772-3.36.174-.808.308-1.634.453-2.456a23.742,23.742,0,0,0,.486-2.393,2.406,2.406,0,0,0-1.288.088c-.293.07-.575.173-.872.229a1.339,1.339,0,0,1-1.573-.586c-.093-.159-.248-.277-.353-.428-.393-.572-.389-.561-1.017-.428a10.13,10.13,0,0,1-2.605.535c-.512.417-1.18.328-1.763.454-.739.162-1.466.391-2.219.487a1.389,1.389,0,0,1-1.511-.745c-.178-.321-.416-.6-.6-.911a2.611,2.611,0,0,1-.3-2.113.677.677,0,0,1,.6-.491c1.358-.218,2.717-.465,4.071-.712,1.088-.2,2.168-.428,3.255-.6,1.733-.28,3.44-.723,5.2-.848.627-.044,1.254-.118,1.881-.17a1.2,1.2,0,0,0,1.028-.789A23.642,23.642,0,0,0,220.1,1.681c.1-.35.271-.664.375-1.014a.985.985,0,0,1,1.3-.616,16.094,16.094,0,0,1,3.414,1.217c.831.472,1.02.815.8,1.744a7.422,7.422,0,0,0-.271,1.335c-.026.549.089.738.642.715.534-.022,1.072-.011,1.611.007.278.011.386-.088.471-.361.334-1.047.7-2.08,1.065-3.116a3.827,3.827,0,0,1,.435-1.036c.349-.479.594-.675,1.139-.513a16.247,16.247,0,0,1,3.618,1.283A1.271,1.271,0,0,1,235.4,2.82c-.111.52-.234,1.036-.3,1.564s0,.586.546.645a1.74,1.74,0,0,0,.278.007c3.214-.092,6.431.114,9.646.018.746-.022,1.492-.077,2.234-.122.375-.022.683,0,.749.494a.723.723,0,0,0,.694.583,6.74,6.74,0,0,0,.906.048,32.9,32.9,0,0,1,4.468.236,6.683,6.683,0,0,1,2.093.69.953.953,0,0,1,.386.284c.282.406.123.8-.379.815-.954.018-1.915.015-2.869-.037a38.494,38.494,0,0,0-5.941.03c-1.629.159-3.266.181-4.9.321q-2.961.249-5.927.483c-.769.063-1.533.14-2.3.166a4.831,4.831,0,0,0-.935.2c-.475.107-.612.612-.694,1.025-.248,1.28-.668,2.515-.98,3.776-.464,1.881-.95,3.762-1.41,5.642-.367,1.494-.738,2.983-1.065,4.484-.441,2.047-.954,4.075-1.321,6.14-.271,1.523-.7,3.017-.943,4.543-.2,1.294-.334,2.6-.594,3.887a48.166,48.166,0,0,0-.6,7.225,9.376,9.376,0,0,0,.123,2.615c.144.627-.063.885-.687,1.059a3.73,3.73,0,0,1-1.722.147,1.973,1.973,0,0,1-1.618-1.571,29.484,29.484,0,0,1-.353-7.32c.093-1.128.122-2.261.215-3.389.216-2.626.483-5.244.954-7.84.1-.542.156-1.088.289-1.623.007-.048.011-.1.019-.151Z" transform="translate(-103.254 -0.11)" fill="#4a4b4a"/>
    <path id="Path_126573" data-name="Path 126573" d="M144.831,59.3a.9.9,0,0,1-.46-.627,28.7,28.7,0,0,1-.7-7.936.625.625,0,0,0-.052-.4.052.052,0,0,0,0-.081,2.644,2.644,0,0,0,.13-.948c.089-.708.148-1.424.215-2.135.011-.1.041-.247-.115-.277s-.252.088-.3.229a1.336,1.336,0,0,0-.037.273c-.16,2.165-.4,4.322-.39,6.494a14.5,14.5,0,0,0,.642,4.558,2.491,2.491,0,0,0,.371.8c.256.309.182.7.338,1.032.078.166-.085.376-.219.468a2.029,2.029,0,0,1-.984.442,3.577,3.577,0,0,1-3.165-1.128,6.825,6.825,0,0,1-1.292-2.423c-.3-.892-.219-1.844-.52-2.725a.077.077,0,0,0,0-.088,1.092,1.092,0,0,0-.037-.8.431.431,0,0,0-.8-.107c-.226.288-.4.616-.635.9-.928,1.184-1.981,2.257-2.972,3.382a3.9,3.9,0,0,1-3.886,1.283,5.786,5.786,0,0,0-2.55.11,3.072,3.072,0,0,1-.887.019,4.979,4.979,0,0,1-3.3-.944,8,8,0,0,1-1.815-1.954,12.875,12.875,0,0,1-1.373-2.792,19.125,19.125,0,0,1-.757-6.266c.075-1.737.323-3.448.561-5.163a36.123,36.123,0,0,1,1.692-6.8,44.985,44.985,0,0,1,2.4-5.311,26.126,26.126,0,0,1,2.012-3.478,32.739,32.739,0,0,1,2.605-3.356,27.586,27.586,0,0,1,2.364-2.334,11.008,11.008,0,0,1,3.014-1.877,12.84,12.84,0,0,1,3.314-.933,8.747,8.747,0,0,1,3.407.52c1.177.332,2.323.771,3.47,1.2a2.85,2.85,0,0,1,1.543,1.519.987.987,0,0,1,.082.332c.037.454-.037.527-.49.5a4.623,4.623,0,0,1-.553-.07.845.845,0,0,0-.653.148,1.2,1.2,0,0,1-1.629-.011,5.669,5.669,0,0,0-1.766-.963,4.972,4.972,0,0,1-.787-.229,1.045,1.045,0,0,0-1.021.266,23.031,23.031,0,0,0-5.826,6.218,36.573,36.573,0,0,0-2.564,4.743c-.542,1.169-.954,2.382-1.392,3.592a44.9,44.9,0,0,0-1.384,5.167,37.746,37.746,0,0,0-.883,8.312,41.115,41.115,0,0,0,.49,5.919c.026.188.119.221.278.218a.447.447,0,0,0,.312-.1c.568-.454,1.221-.789,1.762-1.283a36.309,36.309,0,0,0,5.768-6.937c1.9-2.884,3.607-5.882,5.259-8.91.033-.063.059-.125.1-.184.085-.144.178-.306.033-.443s-.256.037-.356.107a1.349,1.349,0,0,1-1.674-.1q.874-.885,1.737-1.763c.093-.059.122-.125.019-.207a2.3,2.3,0,0,0-1.585.62,12.6,12.6,0,0,0-1.436,1.412,2.327,2.327,0,0,1-3.878-.273,1.42,1.42,0,0,1,.182-1.737,6.643,6.643,0,0,1,1.785-1.309c2.208-1.136,4.372-2.364,6.643-3.382a6.712,6.712,0,0,1,1.1-.4,2.641,2.641,0,0,1,2.442.656,2.948,2.948,0,0,1,1.024,1.523,2.826,2.826,0,0,0,.5,1.051,1.534,1.534,0,0,1,.2,1.442,22.236,22.236,0,0,0-.713,3.079c-.164,1.3-.531,2.548-.716,3.843-.512,3.537-1.046,7.066-1.31,10.632-.1,1.313-.2,2.622-.23,3.939a4.257,4.257,0,0,0,.456,2.069c-.055.052-.111.107-.163.159Zm-.594-16.1c.186.03.252-.015.282-.118a16.945,16.945,0,0,0,.512-2.818A11.1,11.1,0,0,0,144.238,43.2Zm-.1,1.32a3.2,3.2,0,0,0-.193,1.818C144.4,45.785,144.119,45.136,144.134,44.523Z" transform="translate(-60.702 -9.466)" fill="#4a4b4a"/>
    <path id="Path_126574" data-name="Path 126574" d="M309.075,62.409a1.265,1.265,0,0,0-.356.531,1.229,1.229,0,0,1-1.7.738,1.632,1.632,0,0,1-1.21-1.578,26.375,26.375,0,0,1,.338-3.935c.3-2.242.579-4.5.983-6.719.242-1.317.52-2.637.742-3.957a38.091,38.091,0,0,0,.787-3.883,6.27,6.27,0,0,1,.3-1.195,1.708,1.708,0,0,0-.683-1.955,5.283,5.283,0,0,1-1.34-1.306,2.3,2.3,0,0,1-.1-2.349,8.843,8.843,0,0,1,1.377-1.914c.857-1.01,1.77-1.969,2.705-2.906A5.186,5.186,0,0,0,312.3,29.42a18.762,18.762,0,0,1,1.355-4.071c.319-.634.612-.774,1.358-.634.575.107.824.417.917,1.047a2.456,2.456,0,0,1-.19,1.14,4.546,4.546,0,0,0-.119,1.084c-.033.365.186.376.431.325a.653.653,0,0,0,.56-.45c.164-.513.36-1.018.56-1.523a2.061,2.061,0,0,1,.769-1.029,1.017,1.017,0,0,1,1.581.406c.371.727.538.767,1.277.457a39.075,39.075,0,0,1,8.232-2.618,13.306,13.306,0,0,1,4.1-.114,4.382,4.382,0,0,1,2.668,1.553,1.3,1.3,0,0,1,.264.557,1.589,1.589,0,0,0,1.243,1.272,2.392,2.392,0,0,1,1.774,3.149,7.223,7.223,0,0,1-1.065,1.855,24.482,24.482,0,0,1-3.931,4.116,71.194,71.194,0,0,1-10.7,7.431c-1.106.649-2.249,1.21-3.392,1.778a9.138,9.138,0,0,0-1.039.572c-.631.42-.672.837-.119,1.353.646.6,1.318,1.173,1.986,1.748,1.6,1.376,3.217,2.736,4.81,4.123,1.151,1,2.316,1.991,3.563,2.877.074.052.152.107.223.166.586.494.582.564.07,1.121a5.009,5.009,0,0,0-.572.763,1.375,1.375,0,0,1-1.08.679,1.734,1.734,0,0,0-1.161.546.791.791,0,0,1-1.021.166,5.6,5.6,0,0,1-1.358-.9,12.419,12.419,0,0,0-1.963-1.549c-.282-.181-.441-.457-.72-.612a18.09,18.09,0,0,1-2.338-1.8c-.8-.649-1.6-1.32-2.379-2s-1.6-1.372-2.394-2.058a1.412,1.412,0,0,0-.167-.125c-.3-.188-.4-.166-.52.151-.093.258-.134.531-.215.793a52.543,52.543,0,0,0-1.3,5.1c-.29,1.335-.572,2.674-.869,4.009a15.994,15.994,0,0,0-.26,2.062c-.048.579-.456.829-.891,1.058a.422.422,0,0,1-.553-.155c-.208-.27-.423-.539-.657-.834ZM335.937,28.69l.089.177c-.048.1-.1.207-.148.313-.215.516-.683.907-.59,1.582.049.365-.378.66-.657.94-1.288,1.3-2.587,2.589-3.864,3.9a13.243,13.243,0,0,1-1.788,1.826c.319.133.512-.07.7-.232.772-.675,1.566-1.328,2.364-1.969,1.347-1.092,2.724-2.154,3.993-3.33a5.251,5.251,0,0,0,1.785-3.024,1.116,1.116,0,0,0-.342-1.033.925.925,0,0,0-1.035-.184c-.226.092-.438.221-.668.339.115.218.393.254.367.505-.071.007-.141.018-.212.03-.134-.148-.286-.24-.475-.107a.19.19,0,0,0-.045.181c.108.2.286.173.467.118.022-.007.041-.022.063-.03Zm-9.3.42c0-.066-.008-.133-.011-.2a1.543,1.543,0,0,1,1.069-.7c1.451-.472,2.9-.944,4.357-1.405a2.276,2.276,0,0,0,1.421-1.328,6.262,6.262,0,0,0-2.672-.288,24.778,24.778,0,0,0-4.776,1.158c-1.551.557-3.069,1.2-4.654,1.663a.79.79,0,0,0-.687.8,3.02,3.02,0,0,1,1.265-.52c1.262-.3,2.505-.656,3.756-.988.932-.247,1.859-.55,2.783-.841a2.587,2.587,0,0,1,.475-.1.18.18,0,0,1,.219.122c.015.085.026.21-.026.262a.984.984,0,0,1-.345.214,6.352,6.352,0,0,1-1.473.376,4.31,4.31,0,0,0-2.379.985,6.133,6.133,0,0,1-1.4.9c-1.269.627-2.535,1.265-3.8,1.9a2.315,2.315,0,0,0-1.243,1.5c-.264.9-.353,1.848-.683,2.722-.46,1.228-.642,2.53-1.035,3.773a2.334,2.334,0,0,0-.037,1.195c.212-.136.349-.214.475-.306q6.14-4.652,12.288-9.3a26.182,26.182,0,0,0,2.539-2.379.776.776,0,0,0,.315-.708,3.212,3.212,0,0,0-1.344.184c-1.485.361-2.928.859-4.394,1.294ZM312.63,42.35c.5-.232.494-.664.583-1.014.471-1.9.924-3.81,1.376-5.716.041-.177.2-.439-.111-.513-.249-.059-.364.14-.409.369-.033.181-.085.361-.126.538q-.467,2.014-.931,4.023a9.546,9.546,0,0,0-.375,2.309Zm-1.807,9.865c-.568.454-.59.568-.212,1.1A3.146,3.146,0,0,0,310.823,52.215Zm24.23-22.994a1.277,1.277,0,0,0-.5.443.234.234,0,0,0,.044.313.336.336,0,0,0,.312.1c.115-.026.137-.118.141-.207a1.43,1.43,0,0,0,0-.653ZM310.4,53.875a.865.865,0,0,0-.193.951C310.278,54.468,310.337,54.173,310.4,53.875Zm2.186-10.994c.215-.125.319-.258.2-.468a.129.129,0,0,0-.115-.048c-.193.081-.137.258-.141.409C312.53,42.793,312.549,42.811,312.582,42.881Z" transform="translate(-155.634 -11.99)" fill="#4a4b4a"/>
    <path id="Path_126575" data-name="Path 126575" d="M178.636,56.708a1,1,0,0,0,.182-.516,27.862,27.862,0,0,1,1.117-4.783c.378-1.081.783-2.15,1.262-3.179.4-.852.98-1.612,1.432-2.441a14.24,14.24,0,0,1,2.086-2.7,7,7,0,0,1,3.188-1.936,6.045,6.045,0,0,1,2.809-.207,9.5,9.5,0,0,1,3,1.029,27.571,27.571,0,0,1,3.258,2.01c.36.266.761.461,1.121.738a3.151,3.151,0,0,1,1.4,1.921,1.3,1.3,0,0,1-.783-.066,3.3,3.3,0,0,0-1.611-.2,1.677,1.677,0,0,1-1.125-.306c-1.455-.789-1.262-.572-2.364.218a11.457,11.457,0,0,0-3.407,4.071c-.653,1.224-1.34,2.434-2.011,3.651a2.791,2.791,0,0,0-.223.431c-.189.557-.018.815.564.859a19.3,19.3,0,0,0,2.168-.048q1.5-.061,3.006-.14a1.088,1.088,0,0,1,1.113.642.553.553,0,0,1-.3.867,1.948,1.948,0,0,1-.809.173c-1.792.107-3.585.221-5.381.3a7.668,7.668,0,0,0-1.236.17,1.6,1.6,0,0,0-1.076,1.162c-.226.616-.431,1.25-.635,1.877a11.951,11.951,0,0,0-.3,4.057,11.321,11.321,0,0,0,.319,2.759,2.02,2.02,0,0,0,.115.317c.479,1.033.508,1.077,1.592.686a26.17,26.17,0,0,0,3.429-1.457c.464-.247.965-.376,1.429-.623a29.615,29.615,0,0,0,4.294-2.8,1.936,1.936,0,0,1,1.959-.192.4.4,0,0,1,.178.586,1.707,1.707,0,0,1-.546.712c-.791.564-1.4,1.353-2.23,1.851-1.128.671-2.093,1.571-3.24,2.205a24.709,24.709,0,0,1-4.836,2.117,7.582,7.582,0,0,1-1.967.144,5.475,5.475,0,0,1-2.524-.38,5.876,5.876,0,0,1-2.676-2.239,16.546,16.546,0,0,1-1.4-3.422c-.082-.24-.208-.457-.3-.682a5.6,5.6,0,0,1-.234-2.519,24.511,24.511,0,0,0,.023-3.3,5.031,5.031,0,0,1,.189-.856.749.749,0,0,0-.022-.476.052.052,0,0,0,0-.081Zm8.7-8.084a1.391,1.391,0,0,0-.171.118,8.76,8.76,0,0,0-1.421,2.688c-.453,1.022-.634,2.154-1.151,3.164a.51.51,0,0,0,.2.664.474.474,0,0,0,.631-.266,2.635,2.635,0,0,0,.141-.313c.226-.69.46-1.379.672-2.076.293-.977.579-1.958.846-2.947.093-.336.383-.627.249-1.036Zm-4.16,17.6c.434-2.825.709-5.654.95-8.493-.219-.007-.36.03-.379.2-.108,1-.434,1.947-.553,2.947A18.446,18.446,0,0,0,183.175,66.226Zm4.3-17.79-.033-.044c-.011.015-.033.026-.033.041s.019.03.03.044C187.45,48.461,187.466,48.45,187.476,48.436Z" transform="translate(-90.795 -20.916)" fill="#4a4b4a"/>
    <path id="Path_126576" data-name="Path 126576" d="M282.183,46.619a2.338,2.338,0,0,1-1.225-.184,2.153,2.153,0,0,0-1.128-.107,1.617,1.617,0,0,1-1.065-.266c-.323-.177-.657-.328-.995-.476A.691.691,0,0,0,277,45.7a12.278,12.278,0,0,0-3.841,4.149c-.657,1.3-1.418,2.548-2.127,3.824a4.974,4.974,0,0,0-.389.811c-.156.472.044.73.553.763a23.893,23.893,0,0,0,2.516-.066c.954-.044,1.911-.1,2.865-.125a.937.937,0,0,1,1.058.786.567.567,0,0,1-.438.774,4.144,4.144,0,0,1-.827.122c-1.863.114-3.726.225-5.589.317a2.223,2.223,0,0,0-1.955,1c-.049.077-.145.144-.149.221a8.225,8.225,0,0,1-.7,2.065,5.666,5.666,0,0,0-.252,1.619,21.312,21.312,0,0,0,.241,4.562,4.406,4.406,0,0,0,.467,1.346c.23.439.408.527.891.361.753-.262,1.51-.527,2.245-.837,1.147-.487,2.29-.988,3.388-1.571a24.16,24.16,0,0,0,4.049-2.692,1.143,1.143,0,0,1,1.217-.232,2.014,2.014,0,0,0,.46.118c.457.052.576.3.345.7a2.86,2.86,0,0,1-.634.734,31.2,31.2,0,0,1-6.495,4.5,14.328,14.328,0,0,1-3.882,1.49,8.163,8.163,0,0,1-3.811-.1,5.4,5.4,0,0,1-2.516-1.641,10.01,10.01,0,0,1-1.6-2.958,22.885,22.885,0,0,1-.9-2.552,1.877,1.877,0,0,1-.067-.686c.112-1.154.048-2.309.078-3.467a25.671,25.671,0,0,1,1.321-7.114A27.261,27.261,0,0,1,265.1,46.11a14.381,14.381,0,0,1,3.348-3.88,6.091,6.091,0,0,1,4.9-1.383,10.165,10.165,0,0,1,3.37,1.21c1.462.819,2.85,1.755,4.234,2.7a3.049,3.049,0,0,1,1.233,1.862Zm-12.214,1.921a23.878,23.878,0,0,0-1.358,2.537c-.508,1.154-.8,2.375-1.2,3.559-.082.24-.048.479.234.568s.438-.125.512-.35a18.086,18.086,0,0,0,.776-2.331c.115-.6.371-1.162.542-1.744a4.743,4.743,0,0,1,.241-1.055,3.419,3.419,0,0,0,.345-1.176.1.1,0,0,0,.085-.14c-.007-.022-.078-.041-.1-.03a.115.115,0,0,0-.067.159Zm-3.139,9.116a.415.415,0,0,0-.383.343,11.5,11.5,0,0,0-.33,1.737,22.928,22.928,0,0,0-.475,4.3,7.268,7.268,0,0,0,.316,2.353c.3-2.98.579-5.838.868-8.729Z" transform="translate(-132.892 -20.866)" fill="#4a4b4a"/>
    <path id="Path_126577" data-name="Path 126577" d="M376.174,5.885c.17-.568.341-1.136.508-1.707a3.094,3.094,0,0,0,.182-.738c.011-.358.208-.409.5-.424.586-.03.627,0,.631.594q.005,1.455,0,2.913c0,.181.022.384-.252.406s-.379-.118-.375-.369l.022-1.8V4.343c.041-.085.037-.173-.055-.21s-.16.011-.164.122c-.2.671-.4,1.346-.6,2.017a2.738,2.738,0,0,1-.148.461.39.39,0,0,1-.675.033.472.472,0,0,1-.056-.125l-.8-2.456c.007-.111-.052-.17-.152-.148-.071.015-.085.085-.037.151.108.8,0,1.608.041,2.412.011.207-.081.284-.285.284-.186,0-.319-.048-.334-.254-.007-.092-.015-.184-.015-.277q0-1.449,0-2.9c0-.218,0-.45.3-.424.271.022.635-.166.765.262.256.848.5,1.7.75,2.541a.149.149,0,0,0,.108.192c.108.03.137-.044.145-.136Z" transform="translate(-190.396 -1.647)" fill="#4a4b4a"/>
    <path id="Path_126578" data-name="Path 126578" d="M369.963,3.362c0,.214-.137.266-.319.28-.293.026-.668-.114-.865.129s-.067.623-.074.94c-.015.623-.007,1.247-.011,1.87,0,.192-.007.376-.282.38s-.371-.14-.371-.384c0-.76-.007-1.523-.015-2.283,0-.586-.007-.575-.609-.623-.226-.018-.579.114-.582-.291-.007-.494.4-.258.624-.28a12.426,12.426,0,0,1,2.16.026C369.781,3.141,369.96,3.126,369.963,3.362Z" transform="translate(-186.695 -1.675)" fill="#4a4b4a"/>
    <path id="Path_126579" data-name="Path 126579" d="M244.687,56.81c-.008.056-.012.107-.02.163C244.6,56.909,244.492,56.841,244.687,56.81Z" transform="translate(-124.474 -29.029)" fill="#3ea7af"/>
    <path id="Path_126580" data-name="Path 126580" d="M37.891,46.871a.5.5,0,0,0-.538.535c-.093,1.106-.219,2.209-.278,3.315-.052.97-.193,1.929-.167,2.906a14.908,14.908,0,0,0,1.24,6.066c.353.745.193,1.121-.59,1.387a2.972,2.972,0,0,1-2.167-.066,4.455,4.455,0,0,1-2.553-3.142,13.131,13.131,0,0,1-.594-3.614c0-.232-.056-.468-.353-.524a.565.565,0,0,0-.683.336,11.624,11.624,0,0,1-2.03,2.637A22.132,22.132,0,0,1,27.3,58.65a3.678,3.678,0,0,1-3.114.885,8.745,8.745,0,0,0-2.7-.007,8.749,8.749,0,0,1-2.579,0,3.764,3.764,0,0,1-1.425-.682,8.315,8.315,0,0,1-2.91-3.426c-1.44-3-1.514-6.162-1.266-9.367a45.92,45.92,0,0,1,1.414-7.973,45.194,45.194,0,0,1,1.826-5.012A39.53,39.53,0,0,1,19.6,27.384a30.184,30.184,0,0,1,2.527-3.43,13.035,13.035,0,0,1,2.579-2.585,14.775,14.775,0,0,1,6.224-2.84,7.905,7.905,0,0,1,3.511.443c1.069.325,2.123.7,3.184,1.055a3.125,3.125,0,0,1,1.7,1.372,1.634,1.634,0,0,1,.178.372c.174.627-.015.826-.664.708-.371-.066-.713-.129-1.013.221a.794.794,0,0,1-.913.125,2.7,2.7,0,0,1-.776-.461,6.314,6.314,0,0,0-1.993-.981,1.444,1.444,0,0,0-1.314.24,21.724,21.724,0,0,0-5.522,5.738A37.731,37.731,0,0,0,22.248,38.5a39.64,39.64,0,0,0-1.54,13.158,25.55,25.55,0,0,0,.579,4.26,1.038,1.038,0,0,0,.746-.3,20.51,20.51,0,0,0,4.335-4.075A73.543,73.543,0,0,0,31.1,44.677c1.2-1.848,2.127-3.85,3.262-5.735.174-.291.167-.668.471-.852-.156-.262-.275-.118-.386-.063a1.705,1.705,0,0,1-.72.232c-.3,0-.7.022-.835-.24-.156-.291.249-.435.416-.631.379-.431.783-.845,1.232-1.32a1.223,1.223,0,0,0-.98.085,4.72,4.72,0,0,0-1.581,1.232c-.278.31-.538.642-.842.926a2.341,2.341,0,0,1-3.411-.277,1.527,1.527,0,0,1,.178-2.157A11.558,11.558,0,0,1,30.8,34.1c1.837-1,3.689-1.984,5.623-2.8a3.894,3.894,0,0,1,.928-.3,2.749,2.749,0,0,1,2.672,1.018,4.317,4.317,0,0,1,.824,1.438,1.543,1.543,0,0,0,.189.446,2.334,2.334,0,0,1,.275,1.921c-.215,1.228-.568,2.427-.8,3.651-.241,1.265-.438,2.534-.672,3.8-.308,1.678-.527,3.367-.716,5.06-.2,1.744-.379,3.489-.5,5.241-.078,1.117-.238,2.231-.212,3.36a5.2,5.2,0,0,0,.341,1.892c.052.126.137.247.071.391-.39-.085-.4-.082-.512-.461a14.1,14.1,0,0,1-.419-2.106,34.244,34.244,0,0,1-.174-7.4c.063-.778.119-1.556.182-2.371Zm.323-3.522a4.254,4.254,0,0,0,.468-2.154A4.374,4.374,0,0,0,38.214,43.349ZM19.476,51.543a2.322,2.322,0,0,0-.364-1.918C19.124,50.352,18.957,51,19.476,51.543Zm18.422-5.1a4.279,4.279,0,0,0,.1-1.888A2.389,2.389,0,0,0,37.9,46.439Zm-18.571,1.42c.082-.3-.067-.468-.327-.741C19.127,47.435,19.068,47.675,19.328,47.859Zm.49-3.806c.1-.321.215-.516-.082-.741A1.043,1.043,0,0,0,19.818,44.053Zm-.323,2.275a.588.588,0,0,0-.334.446c0,.055.037.074.093.048A.528.528,0,0,0,19.495,46.329Z" transform="translate(-6.715 -9.517)" fill="#fff"/>
    <path id="Path_126581" data-name="Path 126581" d="M74.749,52.045a1.186,1.186,0,0,0-.471.763,17.542,17.542,0,0,0-.661,6.033,20.954,20.954,0,0,0,.531,3.492,2.657,2.657,0,0,1,.071,1.069,2.037,2.037,0,0,1-.783-.7,9.3,9.3,0,0,1-1.288-3.99,17.956,17.956,0,0,1,.367-5.919c.219-1.125.624-2.194.861-3.312a11.021,11.021,0,0,1,.616-1.593,20.512,20.512,0,0,1,5.237-7.855,11.437,11.437,0,0,1,4.821-2.972,6.954,6.954,0,0,1,5.352.575c.527.3,1.043.616,1.551.94.612.387.683.73.308,1.328a1.213,1.213,0,0,1-1.518.682,1.268,1.268,0,0,1-.271-.059,2.6,2.6,0,0,0-2.932.719A24.26,24.26,0,0,0,80.4,50a27.4,27.4,0,0,0-1.882,6.078,16.039,16.039,0,0,0,.082,6.067,6.375,6.375,0,0,0,.668,1.671.73.73,0,0,0,1.11.35,2.456,2.456,0,0,0,.534-.325,11.979,11.979,0,0,0,3.14-3.5,26.777,26.777,0,0,0,2.572-6.052,13.668,13.668,0,0,0-.256-8.176c-.07-.2-.134-.395-.2-.59-.282-.786-.16-.985.66-.929a3.626,3.626,0,0,1,3.551,2.526,11.012,11.012,0,0,1,.765,4.894,20.721,20.721,0,0,1-3.875,10.26,10.952,10.952,0,0,1-4.29,3.444,5.916,5.916,0,0,1-6.962-1.165c-.156-.159-.186-.369-.3-.538a6.542,6.542,0,0,1-.9-2.2,20.58,20.58,0,0,1-.1-9.076,1.2,1.2,0,0,0,.037-.7Zm.531-2.714c-.041.225-.36.568-.238,1.01C75.659,50.1,75.043,49.485,75.28,49.331Z" transform="translate(-36.66 -18.835)" fill="#fff"/>
    <path id="Path_126582" data-name="Path 126582" d="M196.785,56.226a.561.561,0,0,0-.042.046c-.013-.017-.033-.033-.033-.05s.025-.029.037-.046Z" transform="translate(-100.112 -28.706)" fill="#3ea7af"/>
    <path id="Path_126583" data-name="Path 126583" d="M64.126,66.9a4.374,4.374,0,0,1,.468-2.154A4.277,4.277,0,0,1,64.126,66.9Z" transform="translate(-32.632 -33.069)" fill="#3ea7af"/>
    <path id="Path_126584" data-name="Path 126584" d="M25.573,83.844c-.516-.542-.349-1.191-.364-1.918A2.323,2.323,0,0,1,25.573,83.844Z" transform="translate(-12.822 -41.811)" fill="#3ea7af"/>
    <path id="Path_126585" data-name="Path 126585" d="M63.353,73.477a2.391,2.391,0,0,1,.1-1.888A4.283,4.283,0,0,1,63.353,73.477Z" transform="translate(-32.168 -36.55)" fill="#3ea7af"/>
    <path id="Path_126586" data-name="Path 126586" d="M25.317,77.56c-.26-.185-.2-.421-.327-.742C25.25,77.091,25.4,77.254,25.317,77.56Z" transform="translate(-12.718 -39.211)" fill="#3ea7af"/>
    <path id="Path_126587" data-name="Path 126587" d="M26.6,69.8a1.044,1.044,0,0,1-.082-.742C26.812,69.283,26.7,69.479,26.6,69.8Z" transform="translate(-13.478 -35.262)" fill="#3ea7af"/>
    <path id="Path_126588" data-name="Path 126588" d="M25.678,75.2a.545.545,0,0,1-.241.495c-.052.026-.1.007-.093-.048A.588.588,0,0,1,25.678,75.2Z" transform="translate(-12.898 -38.389)" fill="#3ea7af"/>
    <path id="Path_126589" data-name="Path 126589" d="M78.395,62.344c-.238.151.379.768-.238,1.011C78.031,62.912,78.35,62.569,78.395,62.344Z" transform="translate(-39.762 -31.845)" fill="#3ea7af"/>
  </g>
</svg>
