<svg xmlns="http://www.w3.org/2000/svg" xmlns:xlink="http://www.w3.org/1999/xlink" width="202" height="79" viewBox="0 0 202 79">
  <defs>
    <linearGradient id="linear-gradient" x1="0.908" y1="1.032" x2="-0.383" y2="0.36" gradientUnits="objectBoundingBox">
      <stop offset="0" stop-color="#00a0ff"/>
      <stop offset="0.007" stop-color="#00a1ff"/>
      <stop offset="0.26" stop-color="#00beff"/>
      <stop offset="0.512" stop-color="#00d2ff"/>
      <stop offset="0.76" stop-color="#00dfff"/>
      <stop offset="1" stop-color="#00e3ff"/>
    </linearGradient>
    <linearGradient id="linear-gradient-2" x1="1.077" y1="0.729" x2="-1.307" y2="0.729" gradientUnits="objectBoundingBox">
      <stop offset="0" stop-color="#ffe000"/>
      <stop offset="0.409" stop-color="#ffbd00"/>
      <stop offset="0.775" stop-color="orange"/>
      <stop offset="1" stop-color="#ff9c00"/>
    </linearGradient>
    <linearGradient id="linear-gradient-3" x1="0.864" y1="-0.023" x2="-0.499" y2="-1.789" gradientUnits="objectBoundingBox">
      <stop offset="0" stop-color="#ff3a44"/>
      <stop offset="1" stop-color="#c31162"/>
    </linearGradient>
    <linearGradient id="linear-gradient-4" x1="-0.186" y1="2.701" x2="0.423" y2="1.909" gradientUnits="objectBoundingBox">
      <stop offset="0" stop-color="#32a071"/>
      <stop offset="0.069" stop-color="#2da771"/>
      <stop offset="0.476" stop-color="#15cf74"/>
      <stop offset="0.801" stop-color="#06e775"/>
      <stop offset="1" stop-color="#00f076"/>
    </linearGradient>
  </defs>
  <g id="Group_52377" data-name="Group 52377" transform="translate(-1557 -28)">
    <g id="Group_52074" data-name="Group 52074" transform="translate(1557 28)">
      <g id="Rectangle_24465" data-name="Rectangle 24465" fill="#fff" stroke="#242424" stroke-width="2">
        <rect width="202" height="79" rx="39.5" stroke="none"/>
        <rect x="1" y="1" width="200" height="77" rx="38.5" fill="none"/>
      </g>
    </g>
    <g id="Group_52374" data-name="Group 52374" transform="translate(1574.702 42.516)">
      <path id="Path_126652" data-name="Path 126652" d="M48.778,10.958a3.349,3.349,0,0,1-.861,2.459A3.812,3.812,0,0,1,41.4,10.712,3.779,3.779,0,0,1,45.212,6.9a3.274,3.274,0,0,1,1.476.369,2.678,2.678,0,0,1,1.107.861l-.615.615a2.293,2.293,0,0,0-1.967-.861,2.447,2.447,0,0,0-1.967.861,2.533,2.533,0,0,0-.861,2.09,2.533,2.533,0,0,0,.861,2.09,3.166,3.166,0,0,0,1.967.861,2.7,2.7,0,0,0,2.09-.861,2.036,2.036,0,0,0,.615-1.476H45.212v-.984h3.566v.492Zm5.656-3.074h-3.32V10.22h3.074v.861H51.114v2.336h3.32V14.4h-4.3V7.023h4.3ZM58.492,14.4h-.984V7.884h-2.09V7.023h5.164v.861h-2.09Zm5.656,0V7.023h.984V14.4Zm5.164,0h-.984V7.884h-2.09V7.023H71.28v.861H69.19V14.4Zm11.682-.984a3.812,3.812,0,0,1-6.517-2.705,3.812,3.812,0,1,1,7.624,0A3.615,3.615,0,0,1,80.994,13.417ZM76.322,12.8a2.9,2.9,0,0,0,1.967.861,2.447,2.447,0,0,0,1.967-.861,2.967,2.967,0,0,0,.861-2.09,2.533,2.533,0,0,0-.861-2.09,2.9,2.9,0,0,0-1.967-.861,2.447,2.447,0,0,0-1.967.861,2.967,2.967,0,0,0-.861,2.09A2.533,2.533,0,0,0,76.322,12.8Zm7.132,1.6V7.023H84.56L88.126,12.8V7.023h.984V14.4h-.984L84.314,8.376V14.4h-.861Z" transform="translate(9.508 1.584)" fill="#242424" stroke="#242424" stroke-width="0.2"/>
      <path id="Path_126653" data-name="Path 126653" d="M74.3,22.879a5.173,5.173,0,0,0-5.287,5.287A5.248,5.248,0,0,0,74.3,33.454a5.173,5.173,0,0,0,5.287-5.287A5.1,5.1,0,0,0,74.3,22.879Zm0,8.362a3.052,3.052,0,0,1-2.951-3.2,3.052,3.052,0,0,1,2.951-3.2,2.979,2.979,0,0,1,2.951,3.2A3.052,3.052,0,0,1,74.3,31.241ZM62.865,22.879a5.173,5.173,0,0,0-5.287,5.287,5.248,5.248,0,0,0,5.287,5.287,5.173,5.173,0,0,0,5.287-5.287A5.1,5.1,0,0,0,62.865,22.879Zm0,8.362a3.052,3.052,0,0,1-2.951-3.2,3.052,3.052,0,0,1,2.951-3.2,2.979,2.979,0,0,1,2.951,3.2A3.052,3.052,0,0,1,62.865,31.241ZM49.216,24.478v2.213H54.5a4.65,4.65,0,0,1-1.23,2.828,5.443,5.443,0,0,1-4.058,1.6,5.725,5.725,0,0,1-5.779-5.9,5.8,5.8,0,0,1,5.779-5.9,6.1,6.1,0,0,1,4.058,1.6l1.6-1.6A7.88,7.88,0,0,0,49.339,17.1,8.3,8.3,0,0,0,41.1,25.216a8.3,8.3,0,0,0,8.239,8.116,7.077,7.077,0,0,0,5.656-2.336,7.4,7.4,0,0,0,1.967-5.164,4.611,4.611,0,0,0-.123-1.353H49.216ZM105.041,26.2a4.778,4.778,0,0,0-4.427-3.32A4.952,4.952,0,0,0,95.7,28.167a5.146,5.146,0,0,0,5.164,5.287,5.044,5.044,0,0,0,4.3-2.336l-1.721-1.23a3,3,0,0,1-2.582,1.476,2.668,2.668,0,0,1-2.582-1.6l7.009-2.951-.246-.615Zm-7.132,1.721a2.987,2.987,0,0,1,2.705-3.074,2.175,2.175,0,0,1,1.967,1.107l-4.673,1.967ZM92.13,32.962h2.336V17.592H92.13Zm-3.689-8.976a4.049,4.049,0,0,0-2.828-1.23,5.284,5.284,0,0,0-5.042,5.287,5.092,5.092,0,0,0,5.042,5.164,3.531,3.531,0,0,0,2.705-1.23h.123v.738c0,1.967-1.107,3.074-2.828,3.074a2.732,2.732,0,0,1-2.582-1.844l-1.967.861a5.073,5.073,0,0,0,4.673,3.074c2.705,0,4.919-1.6,4.919-5.41V23.125H88.441v.861Zm-2.705,7.255a3.052,3.052,0,0,1-2.951-3.2,3.052,3.052,0,0,1,2.951-3.2,2.958,2.958,0,0,1,2.828,3.2A2.958,2.958,0,0,1,85.736,31.241Zm30-13.649h-5.533v15.37h2.336V27.183h3.2a4.8,4.8,0,1,0,0-9.591Zm.123,7.378h-3.32V19.682h3.32a2.7,2.7,0,0,1,2.705,2.582,2.814,2.814,0,0,1-2.705,2.705ZM130,22.756a4.133,4.133,0,0,0-4.058,2.336l2.09.861a2.172,2.172,0,0,1,2.09-1.107,2.311,2.311,0,0,1,2.459,1.967v.123a4.877,4.877,0,0,0-2.336-.615c-2.213,0-4.427,1.23-4.427,3.443a3.6,3.6,0,0,0,3.812,3.443,3.46,3.46,0,0,0,2.951-1.476h.123v1.23h2.213v-5.9A4.654,4.654,0,0,0,130,22.756Zm-.246,8.485c-.738,0-1.844-.369-1.844-1.353,0-1.23,1.353-1.6,2.459-1.6a4.755,4.755,0,0,1,2.09.492A2.864,2.864,0,0,1,129.757,31.241Zm12.911-8.116-2.582,6.64h-.123l-2.705-6.64H134.8l4.058,9.345-2.336,5.164h2.336l6.271-14.51h-2.459ZM122.01,32.962h2.336V17.592H122.01Z" transform="translate(9.438 3.928)" fill="#242424"/>
      <g id="Group_52370" data-name="Group 52370" transform="translate(12.297 8.789)">
        <path id="Path_126654" data-name="Path 126654" d="M10.492,7.5A2.4,2.4,0,0,0,10,9.221V36.4a2.432,2.432,0,0,0,.615,1.721l.123.123L25.985,22.993v-.246Z" transform="translate(-10 -7.066)" fill="url(#linear-gradient)"/>
        <path id="Path_126655" data-name="Path 126655" d="M27.942,26.252,22.9,21.21v-.369L27.942,15.8l.123.123,6.025,3.443c1.721.984,1.721,2.582,0,3.566Z" transform="translate(-7.038 -5.16)" fill="url(#linear-gradient-2)"/>
        <path id="Path_126656" data-name="Path 126656" d="M30.935,25.164,25.77,20,10.4,35.37c.615.615,1.476.615,2.582.123L30.935,25.164" transform="translate(-9.908 -4.196)" fill="url(#linear-gradient-3)"/>
        <path id="Path_126657" data-name="Path 126657" d="M30.935,17.781,12.982,7.575A1.993,1.993,0,0,0,10.4,7.7L25.77,22.946Z" transform="translate(-9.908 -7.142)" fill="url(#linear-gradient-4)"/>
        <path id="Path_126658" data-name="Path 126658" d="M30.812,24.1,12.982,34.183a2.011,2.011,0,0,1-2.459,0l-.123.123.123.123a2.011,2.011,0,0,0,2.459,0Z" transform="translate(-9.908 -3.254)" opacity="0.2"/>
        <path id="Path_126659" data-name="Path 126659" d="M10.492,35.125A2.4,2.4,0,0,1,10,33.4v.123a2.432,2.432,0,0,0,.615,1.721v-.123h-.123ZM37.052,21.6,30.9,25.042l.123.123,6.025-3.443A2.044,2.044,0,0,0,38.282,20C38.282,20.615,37.79,21.107,37.052,21.6Z" transform="translate(-10 -4.196)" opacity="0.12"/>
        <path id="Path_126660" data-name="Path 126660" d="M13.074,7.7,37.052,21.353c.738.492,1.23.984,1.23,1.6a2.044,2.044,0,0,0-1.23-1.721L13.074,7.581C11.353,6.6,10,7.335,10,9.3v.123C10,7.581,11.353,6.72,13.074,7.7Z" transform="translate(-10 -7.147)" fill="#fff" opacity="0.25"/>
      </g>
    </g>
  </g>
</svg>
