<svg xmlns="http://www.w3.org/2000/svg" width="202" height="79" viewBox="0 0 202 79">
  <g id="Group_52372" data-name="Group 52372" transform="translate(-1557 -28)">
    <g id="Group_52074" data-name="Group 52074" transform="translate(1557 28)">
      <g id="Rectangle_24465" data-name="Rectangle 24465" fill="#fff" stroke="#242424" stroke-width="2">
        <rect width="202" height="79" rx="39.5" stroke="none"/>
        <rect x="1" y="1" width="200" height="77" rx="38.5" fill="none"/>
      </g>
    </g>
    <g id="Group_52374" data-name="Group 52374" transform="translate(1577.702 42.516)">
      <g id="Layer_2" data-name="Layer 2" transform="translate(17.297 8.484)">
        <g id="internet">
          <g id="background">
            <circle id="Ellipse_2324" data-name="Ellipse 2324" cx="16.5" cy="16.5" r="16.5" fill="#00a1f5"/>
          </g>
          <path id="Path_126673" data-name="Path 126673" d="M117.522,103.365a10.056,10.056,0,1,0,2.945,7.109A10.056,10.056,0,0,0,117.522,103.365Zm-.114,3.06h-2.255a13.454,13.454,0,0,0-.9-2.774c-.061-.133-.123-.262-.188-.388a8.143,8.143,0,0,1,3.342,3.16Zm1.092,4.05a8.075,8.075,0,0,1-.272,2.082h-2.766a20.621,20.621,0,0,0,0-4.163h2.766A8.074,8.074,0,0,1,118.5,110.474Zm-16.173,0a8.074,8.074,0,0,1,.272-2.082h2.766a20.619,20.619,0,0,0,0,4.163H102.6a8.073,8.073,0,0,1-.272-2.082Zm4.9,0a18.641,18.641,0,0,1,.115-2.082h6.14a18.893,18.893,0,0,1,0,4.163h-6.14a18.638,18.638,0,0,1-.115-2.082Zm3.184-8.086c.686,0,1.454.779,2.053,2.084a11.037,11.037,0,0,1,.668,1.952h-5.442a11.038,11.038,0,0,1,.668-1.952C108.96,103.166,109.727,102.388,110.413,102.388Zm-3.654.874c-.065.125-.129.254-.188.388a13.454,13.454,0,0,0-.9,2.774h-2.256A8.143,8.143,0,0,1,106.759,103.262Zm-3.342,11.263h2.256a13.474,13.474,0,0,0,.9,2.775q.091.2.188.388A8.143,8.143,0,0,1,103.417,114.525Zm7,4.035c-.686,0-1.454-.779-2.053-2.084a11.037,11.037,0,0,1-.668-1.952h5.442a11.038,11.038,0,0,1-.668,1.952C111.867,117.782,111.1,118.56,110.413,118.56Zm3.654-.874c.065-.125.129-.254.188-.388a13.466,13.466,0,0,0,.9-2.774h2.256A8.143,8.143,0,0,1,114.067,117.686Z" transform="translate(-93.868 -93.929)" fill="#fff"/>
        </g>
      </g>
      <path id="Path_126674" data-name="Path 126674" d="M-20.944-15.752h2.112L-23.034,0H-25.1L-28.49-10.384h-.088L-31.966,0h-2.068l-4.378-15.752H-36.3l3.322,12.386h.088l3.41-10.274h1.892l3.41,10.274h.088Zm7.326,16.1a5.156,5.156,0,0,1-3.916-1.628,5.749,5.749,0,0,1-1.54-4.114,5.855,5.855,0,0,1,1.5-4.1,4.951,4.951,0,0,1,3.828-1.639A4.92,4.92,0,0,1-9.933-9.581,6.2,6.2,0,0,1-8.514-5.236l-.022.22h-8.47A3.512,3.512,0,0,0-15.95-2.464a3.379,3.379,0,0,0,2.42.968,3.368,3.368,0,0,0,3.036-1.936l1.8.88A5.377,5.377,0,0,1-10.7-.418,5.567,5.567,0,0,1-13.618.352Zm-3.234-7.04h6.182a2.684,2.684,0,0,0-.913-1.859,3.2,3.2,0,0,0-2.211-.737,2.934,2.934,0,0,0-1.969.7A3.362,3.362,0,0,0-16.852-6.688ZM-.968.352A4.649,4.649,0,0,1-3.135-.154,3.792,3.792,0,0,1-4.642-1.5H-4.73V0H-6.666V-15.752h2.024v4.972l-.088,1.5h.088a3.792,3.792,0,0,1,1.507-1.342,4.649,4.649,0,0,1,2.167-.506A4.63,4.63,0,0,1,2.64-9.46,5.888,5.888,0,0,1,4.158-5.39,5.837,5.837,0,0,1,2.64-1.32,4.63,4.63,0,0,1-.968.352ZM-1.3-1.5A3.156,3.156,0,0,0,1.144-2.6a3.969,3.969,0,0,0,.99-2.794,4.019,4.019,0,0,0-.99-2.794A3.156,3.156,0,0,0-1.3-9.284a3.18,3.18,0,0,0-2.464,1.1A4.074,4.074,0,0,0-4.73-5.39a4.106,4.106,0,0,0,.968,2.816A3.208,3.208,0,0,0-1.3-1.5Zm15.444-1.5A2.922,2.922,0,0,1,12.914-.616a4.867,4.867,0,0,1-3.1.968A4.924,4.924,0,0,1,6.952-.5a4.67,4.67,0,0,1-1.76-2.233L7-3.5A3.348,3.348,0,0,0,8.151-1.991a2.808,2.808,0,0,0,1.661.539,2.929,2.929,0,0,0,1.617-.418,1.187,1.187,0,0,0,.649-.99q0-1.034-1.584-1.518L8.646-4.84Q5.5-5.632,5.5-7.876a2.8,2.8,0,0,1,1.2-2.365,5.01,5.01,0,0,1,3.069-.891,4.988,4.988,0,0,1,2.585.682A3.706,3.706,0,0,1,13.97-8.624l-1.8.748a2.271,2.271,0,0,0-1-1.067,3.139,3.139,0,0,0-1.551-.385,2.6,2.6,0,0,0-1.419.4,1.141,1.141,0,0,0-.627.968q0,.924,1.738,1.32l1.628.418Q14.146-5.434,14.146-2.992ZM18.414-14.5A1.378,1.378,0,0,1,18-13.486a1.378,1.378,0,0,1-1.012.418,1.378,1.378,0,0,1-1.012-.418,1.378,1.378,0,0,1-.418-1.012,1.378,1.378,0,0,1,.418-1.012,1.378,1.378,0,0,1,1.012-.418A1.378,1.378,0,0,1,18-15.51,1.378,1.378,0,0,1,18.414-14.5ZM18-10.78V0H15.972V-10.78ZM24.794.176A3.076,3.076,0,0,1,22.6-.638,3.02,3.02,0,0,1,21.714-2.9V-8.932H19.822V-10.78h1.892v-3.3h2.024v3.3h2.64v1.848h-2.64v5.368A1.969,1.969,0,0,0,24.156-2.1a1.359,1.359,0,0,0,.946.385,2.035,2.035,0,0,0,.473-.055A2.453,2.453,0,0,0,26-1.914l.638,1.8A5.435,5.435,0,0,1,24.794.176Zm8.25.176a5.156,5.156,0,0,1-3.916-1.628,5.749,5.749,0,0,1-1.54-4.114,5.855,5.855,0,0,1,1.5-4.1,4.951,4.951,0,0,1,3.828-1.639,4.92,4.92,0,0,1,3.817,1.551,6.2,6.2,0,0,1,1.419,4.345l-.022.22h-8.47a3.512,3.512,0,0,0,1.056,2.552,3.379,3.379,0,0,0,2.42.968,3.368,3.368,0,0,0,3.036-1.936l1.8.88A5.377,5.377,0,0,1,35.959-.418,5.567,5.567,0,0,1,33.044.352ZM29.81-6.688h6.182a2.684,2.684,0,0,0-.913-1.859,3.2,3.2,0,0,0-2.211-.737,2.934,2.934,0,0,0-1.969.7A3.362,3.362,0,0,0,29.81-6.688Z" transform="translate(100.297 33.484)" fill="#242424" stroke="#242424" stroke-width="0.7"/>
    </g>
  </g>
</svg>
