<svg xmlns="http://www.w3.org/2000/svg" xmlns:xlink="http://www.w3.org/1999/xlink" width="213.392" height="40.477" viewBox="0 0 213.392 40.477">
  <defs>
    <linearGradient id="linear-gradient" x1="0.5" y1="1" x2="0.5" gradientUnits="objectBoundingBox">
      <stop offset="0" stop-color="#f77062"/>
      <stop offset="1" stop-color="#fe5196"/>
    </linearGradient>
  </defs>
  <g id="Group_18" data-name="Group 18" transform="translate(-5999.161 -1306.018)">
    <g id="Group_17" data-name="Group 17" transform="translate(5999.161 1323.178)">
      <g id="Vector_Smart_Object_copy_5" data-name="Vector Smart Object copy 5" transform="translate(0 -17.161)">
        <path id="Gradient_Overlay" data-name="Gradient Overlay" d="M31.674,37.482l0-5.207H24.464a2.4,2.4,0,1,1,0-4.809l7.206,0,9.193-.005a2.4,2.4,0,1,0,0-4.809l-5.532,0h-3.66l-14.915.009a2.4,2.4,0,0,1,0-4.809l18.576-.011a2.361,2.361,0,0,1,.349.035l9.235-.005a2.4,2.4,0,0,0,0-4.809h-4.05l-9.193.005-5.446.01a2.4,2.4,0,0,1,0-4.809l5.443,0,0-5.245a3,3,0,0,1,4.5-2.607L65.973,17.624a3.009,3.009,0,0,1,0,5.207L36.18,40.077a2.974,2.974,0,0,1-1.5.408A3.009,3.009,0,0,1,31.674,37.482ZM8.426,30.515a2.309,2.309,0,1,1,2.31,2.31,2.309,2.309,0,0,1-2.31-2.31Zm7.235-.189a2.309,2.309,0,1,1,2.31,2.31,2.309,2.309,0,0,1-2.31-2.31ZM0,20.753a2.309,2.309,0,1,1,2.31,2.31A2.309,2.309,0,0,1,0,20.753Zm7.235-.189a2.309,2.309,0,1,1,2.31,2.31,2.309,2.309,0,0,1-2.31-2.31Zm3.075-9.884a2.309,2.309,0,1,1,2.31,2.31,2.309,2.309,0,0,1-2.31-2.31Zm7.123,0a2.309,2.309,0,1,1,2.31,2.31,2.309,2.309,0,0,1-2.31-2.31Z" transform="translate(0 -0.01)" fill="url(#linear-gradient)"/>
      </g>
      <path id="Path_16" data-name="Path 16" d="M5.49-11.865q-1.125,0-1.125-.619V-31.041q0-.619,1.125-.619h.225q1.125,0,1.125.619v18.557q0,.619-1.125.619Zm10.966.112a11.76,11.76,0,0,1-3.124-.394,6.353,6.353,0,0,1-2.165-.956q-.531-.394-.531-.7a1.931,1.931,0,0,1,.379-.928q.379-.59.6-.59a1.964,1.964,0,0,1,.59.281,11.615,11.615,0,0,0,1.87.812,7.446,7.446,0,0,0,2.374.337,3.846,3.846,0,0,0,2.657-.914,3.062,3.062,0,0,0,1.028-2.4,2.645,2.645,0,0,0-.562-1.729,4.2,4.2,0,0,0-1.363-1.1q-.8-.408-2.32-1a22.438,22.438,0,0,1-2.587-1.181A4.624,4.624,0,0,1,11.676-23.8,5.07,5.07,0,0,1,11-26.572a4.817,4.817,0,0,1,.774-2.7,5.134,5.134,0,0,1,2.193-1.842,7.685,7.685,0,0,1,3.276-.66,9.773,9.773,0,0,1,2.137.267,5.26,5.26,0,0,1,1.828.717q.562.337.562.731a2.019,2.019,0,0,1-.351.9q-.351.59-.549.59a.99.99,0,0,1-.408-.141q-.267-.141-.351-.2a6.26,6.26,0,0,0-2.924-.731,3.936,3.936,0,0,0-2.63.845,2.891,2.891,0,0,0-1,2.334,2.336,2.336,0,0,0,.492,1.546,3.249,3.249,0,0,0,1.125.886q.634.295,2.209.914a20.9,20.9,0,0,1,2.756,1.25,5.266,5.266,0,0,1,1.812,1.743,5.22,5.22,0,0,1,.744,2.912,5.009,5.009,0,0,1-1.687,3.993A6.716,6.716,0,0,1,16.455-11.752Zm17.461,0a8.042,8.042,0,0,1-6.439-2.573q-2.221-2.573-2.221-7.493t2.208-7.435a8.136,8.136,0,0,1,6.453-2.518,8.17,8.17,0,0,1,6.467,2.516Q42.6-26.74,42.6-21.82t-2.221,7.494A8.081,8.081,0,0,1,33.916-11.752Zm0-2.137a5.424,5.424,0,0,0,4.555-2.024,9.474,9.474,0,0,0,1.575-5.9,9.231,9.231,0,0,0-1.575-5.834,5.473,5.473,0,0,0-4.555-1.983,5.436,5.436,0,0,0-4.541,1.983,9.285,9.285,0,0,0-1.562,5.834,9.53,9.53,0,0,0,1.562,5.9,5.385,5.385,0,0,0,4.541,2.024ZM55.536-17.4a.655.655,0,0,1-.619-.366l-5-8.716q-.25-.422-.675-1.265l-.112.028a15.377,15.377,0,0,1,.056,1.546v13.693q0,.619-1.125.619h-.194q-1.125,0-1.125-.619V-31.041q0-.619,1.125-.619h1.012a1.232,1.232,0,0,1,1.181.506l5.311,9.223A6.815,6.815,0,0,1,56.1-20.16a10.833,10.833,0,0,1,.875-1.856l5.174-9.138a1.232,1.232,0,0,1,1.181-.506h.928q1.125,0,1.125.619v18.557q0,.619-1.125.619h-.2q-1.125,0-1.125-.619V-26.008a15.379,15.379,0,0,1,.056-1.546l-.112-.028q-.422.844-.675,1.265L57.282-17.77a.655.655,0,0,1-.619.366Zm15.946,5.483a.89.89,0,0,1-.647-.2.89.89,0,0,1-.2-.647v-18a.89.89,0,0,1,.2-.647.89.89,0,0,1,.647-.2h9.813a.478.478,0,0,1,.437.2,1.243,1.243,0,0,1,.125.647v.45a1.243,1.243,0,0,1-.125.647.478.478,0,0,1-.437.2H73.109v6.411h7.339a.478.478,0,0,1,.437.2,1.243,1.243,0,0,1,.125.647v.45a1.243,1.243,0,0,1-.125.647.478.478,0,0,1-.437.2H73.112v6.861h8.21a.478.478,0,0,1,.437.2,1.243,1.243,0,0,1,.125.647v.45a1.243,1.243,0,0,1-.125.647.478.478,0,0,1-.437.2Zm19.432.056q-1.125,0-1.125-.619V-29.466h-5.4a.484.484,0,0,1-.422-.2,1.14,1.14,0,0,1-.141-.647v-.45a1.14,1.14,0,0,1,.141-.647.484.484,0,0,1,.422-.2H97.574a.478.478,0,0,1,.437.2,1.243,1.243,0,0,1,.125.647v.45a1.244,1.244,0,0,1-.125.647.478.478,0,0,1-.437.2H92.26v16.983q0,.619-1.125.619Zm11.641,0q-1.125,0-1.125-.619V-30.76a.89.89,0,0,1,.2-.647.89.89,0,0,1,.647-.2H107a8.84,8.84,0,0,1,5.075,1.195,4.3,4.3,0,0,1,1.7,3.782,4.966,4.966,0,0,1-.844,2.937,5.2,5.2,0,0,1-2.39,1.812v.112a2.693,2.693,0,0,1,1.363,1.1,12.717,12.717,0,0,1,1.167,2.418l2.193,5.539a1.349,1.349,0,0,1,.084.394q0,.45-1.181.45h-.281a1.924,1.924,0,0,1-.731-.125.673.673,0,0,1-.394-.323l-2.137-5.511a4.264,4.264,0,0,0-1.546-2.179,5.029,5.029,0,0,0-2.643-.576H103.9v8.1q0,.619-1.125.619Zm5.061-10.853a3.568,3.568,0,0,0,1.812-.478,3.6,3.6,0,0,0,1.306-1.265,3.244,3.244,0,0,0,.478-1.715,2.987,2.987,0,0,0-1.012-2.474,4.319,4.319,0,0,0-2.784-.812H103.9v6.748ZM119.7-11.865q-1.125,0-1.125-.619V-31.041q0-.619,1.125-.619h.225q1.125,0,1.125.619v18.557q0,.619-1.125.619Zm7.957,0q-1.125,0-1.125-.619V-31.041q0-.619,1.125-.619h.225q1.125,0,1.125.619v8.6h.112l6.917-8.829q.312-.394,1.518-.394h.281a2.106,2.106,0,0,1,.731.1q.253.1.25.267a.885.885,0,0,1-.281.562l-7.029,8.773,8.523,9.251a.79.79,0,0,1,.25.45q0,.225-.281.312a3.742,3.742,0,0,1-.956.084h-.337a6.481,6.481,0,0,1-.967-.059.946.946,0,0,1-.577-.312l-8.042-9.054h-.112v8.8q0,.619-1.125.619Z" transform="translate(73.111 24.837)"/>
    </g>
  </g>
</svg>
