<svg xmlns="http://www.w3.org/2000/svg" xmlns:xlink="http://www.w3.org/1999/xlink" width="281.218" height="67.001" viewBox="0 0 281.218 67.001">
  <defs>
    <linearGradient id="linear-gradient" x1="0.5" x2="0.821" y2="0.886" gradientUnits="objectBoundingBox">
      <stop offset="0" stop-color="#4f1fa3"/>
      <stop offset="1" stop-color="#b9447d"/>
    </linearGradient>
    <linearGradient id="linear-gradient-2" x2="0.5" y2="1" xlink:href="#linear-gradient"/>
  </defs>
  <g id="Group_52272" data-name="Group 52272" transform="translate(6200 13200.304)">
    <g id="Logo_and_name" data-name="Logo and name" transform="translate(-6200 -13200.304)">
      <path id="Union_2" data-name="Union 2" d="M46.659,66.512a14.659,14.659,0,0,0-2.82-3.827,13.739,13.739,0,0,0-7.151-3.675,29,29,0,0,0-4.121-.27c-2.727-.047-5.453,0-8.179-.054a23.154,23.154,0,0,1-6.373-.972,24.647,24.647,0,0,1-6.544-3.01,25.555,25.555,0,0,1-9.057-10.4A23.869,23.869,0,0,1,.18,36.755a63.9,63.9,0,0,1-.156-7.215h0c0-1.948-.072-3.9.026-5.839a24.163,24.163,0,0,1,.6-3.967,28.358,28.358,0,0,1,1.075-3.561A22.3,22.3,0,0,1,4.63,10.8,25.588,25.588,0,0,1,14.9,2.3,24.245,24.245,0,0,1,20.669.533,26.1,26.1,0,0,1,25.107.125C28.227.091,31.344.007,34.463,0A43.546,43.546,0,0,1,38.92.2a24.634,24.634,0,0,1,4.66.946,25.83,25.83,0,0,1,5.376,2.274A26.954,26.954,0,0,1,52.727,6.1a25.769,25.769,0,0,1,4.988,5.749,22.42,22.42,0,0,1,3.312,7.886,30.5,30.5,0,0,1,.555,4.342c.179,2.978.11,5.957.125,8.933a25.105,25.105,0,0,1-7.3,18.128c-.522.532-1.073,1.032-1.614,1.547a3.243,3.243,0,0,1-.3.253c-.413.3-1.068.654-1.428.29a18.256,18.256,0,0,0-1.824-1.748,22.923,22.923,0,0,0-5.891-3.07c-.759-.287-1.536-.519-2.3-.777a.839.839,0,0,1-.186-.069c-.067-.047-.164-.109-.169-.172s.078-.146.142-.2a1.08,1.08,0,0,1,.267-.124,16.737,16.737,0,0,0,6.09-4.516,13.355,13.355,0,0,0,3.073-6.61,24.5,24.5,0,0,0,.189-4.08c.016-2.34-.029-4.683,0-7.024a12.988,12.988,0,0,0-1.132-5.215,13.346,13.346,0,0,0-3.511-4.919,13.6,13.6,0,0,0-6.124-3.169,19.754,19.754,0,0,0-4.366-.448q-1.822,0-3.642,0c-2.005-.006-4.011-.009-6.016.013a14.305,14.305,0,0,0-8.51,2.576,14.758,14.758,0,0,0-4.413,5.069,13.029,13.029,0,0,0-1.363,4.112,21.887,21.887,0,0,0-.257,2.988c-.034,2.156-.077,4.314.021,6.464a20.868,20.868,0,0,0,.692,5.539,14.752,14.752,0,0,0,2.866,5,13.537,13.537,0,0,0,7.228,4.357,12.623,12.623,0,0,0,2.927.335c1.391.021,2.782.019,4.175.019,1.52,0,3.041,0,4.562.028a28.64,28.64,0,0,1,3.651.356c1.34.2,2.678.44,4,.742a18.849,18.849,0,0,1,5.672,2.377,12.157,12.157,0,0,1,2.642,1.884,8.946,8.946,0,0,1,.676,11.584,8.11,8.11,0,0,1-2.513,2.289,1.1,1.1,0,0,1-.509.182C47,67,46.844,66.847,46.659,66.512ZM25.315,39.154c-.01-.133-.019-.266-.028-.4-.013-.174-.025-.35-.038-.534l.08-.011.034,0,.027,0,2.538-.352.264,2.064h-.076A5.656,5.656,0,0,1,25.315,39.154Zm3.5-.326h0c-.047-.354-.094-.712-.143-1.075l1.043-.146,1.643-.227c.045.322.088.637.131.948l.084.609a6.542,6.542,0,0,1-2.619.935C28.9,39.521,28.857,39.177,28.811,38.828ZM32.1,37.279c.544-.077,1.058-.146,1.572-.217.016.032.034.064.049.1l-.95.888-.5.466C32.21,38.049,32.158,37.68,32.1,37.279Zm-8.679.4a6.332,6.332,0,0,1-1.5-2.6l1.024-.142.01,0c.377-.054.757-.107,1.151-.161q.072.66.142,1.311v0c.054.5.107,1,.161,1.51-.083.013-.161.024-.24.034-.208.032-.4.062-.6.086h-.023A.179.179,0,0,1,23.426,37.676Zm1.583-1.431c-.059-.519-.117-1.038-.175-1.566.395-.056.781-.109,1.168-.165h0l.016,0h0l1.444-.2.067.511.3,2.3-2.687.378Zm3.33-.991-.138-1.04c.9-.124,1.774-.247,2.7-.375.056.435.113.862.168,1.294l0,.006c.064.5.129,1,.195,1.5l-.94.133-.022,0-.018,0c-.569.079-1.133.159-1.711.242C28.492,36.427,28.415,35.846,28.338,35.254Zm3.446-.384,0-.011-.148-1.122c.871-.118,1.719-.238,2.611-.36l.052.36c.055.393.108.772.16,1.154.01.077.023.157.034.232a5.458,5.458,0,0,1,.076.732c0,.116-.121.322-.212.339-.6.1-1.2.184-1.814.27-.178.024-.355.047-.536.073C31.93,35.97,31.858,35.419,31.784,34.87Zm-9.862.208v0Zm13.373-.131c-.028-.006-.057-.011-.085-.019L35,33.276l.344-.047c.259-.036.518-.071.817-.114-.159.343-.308.669-.454.985v0c-.132.287-.263.568-.392.847ZM21.738,33.334c.024-.131.048-.26.071-.388.058-.322.116-.644.165-.97a.317.317,0,0,1,.336-.3c.326-.034.652-.079.992-.127.147-.019.3-.041.451-.06l.058.528c.073.674.146,1.341.222,2.036l-.984.142-.009,0h-.015c-.43.062-.857.124-1.286.184Zm3.01.62c-.1-.867-.187-1.693-.283-2.568.417-.058.83-.118,1.243-.174h0c.44-.062.881-.122,1.328-.187.073.556.142,1.1.213,1.639l.119.916c-.877.127-1.725.247-2.622.373Zm3.012-3.027,1-.137c.566-.079,1.129-.157,1.714-.24l.087.667c.084.624.165,1.246.248,1.884l-.847.12c-.612.086-1.222.174-1.852.26C27.992,32.634,27.882,31.806,27.761,30.927ZM31.2,30.45l2.624-.36.085.65h0c.082.624.163,1.242.247,1.89h0c-.463.067-.915.127-1.364.191h0c-.416.06-.832.118-1.255.178C31.425,32.139,31.315,31.306,31.2,30.45Zm3.58,1.231L34.555,30c.349-.051.7-.1,1.054-.154h0c.287-.043.585-.084.9-.129h0c-.009.182-.016.365-.025.543-.028.641-.057,1.259-.1,1.877a.32.32,0,0,1-.216.21c-.3.054-.6.09-.917.133h0l-.355.045Zm-12.512-.777h0a.319.319,0,0,0-.046-.041c.187-.375.373-.749.558-1.124l.559-1.126c.017.006.036.011.055.019s.036.011.055.019c.033.311.067.622.1.935l0,0c.04.38.083.768.125,1.167-.484.064-.921.124-1.362.18Zm5.49.021Zm-3.38-.272c-.049-.431-.094-.85-.14-1.264-.053-.481-.1-.952-.159-1.435l.493-.069c.676-.09,1.337-.182,2.019-.275.087.671.173,1.324.261,1.987l.09.7-.761.107h0c-.6.084-1.19.167-1.8.251Zm0,0h0Zm3.235-.873h0c-.1-.753-.2-1.5-.3-2.268l1.07-.15h.005l1.638-.227c.049.378.1.749.147,1.12v.006l0,0v.009c.068.506.134,1.017.2,1.542-.409.056-.809.112-1.21.169h-.011c-.491.069-.983.139-1.49.208Zm3.4-.7v0c-.09-.671-.178-1.341-.27-2.038.6-.084,1.179-.165,1.771-.245h0l.009,0h.005l.844-.118c.116.888.232,1.768.352,2.675l-2.63.369Zm3.285-1c-.065-.5-.131-.991-.2-1.5.538-.075,1.024-.146,1.544-.221a5.07,5.07,0,0,1,.792,2.607l-.034,0c-.645.094-1.274.182-1.946.279C34.408,28.854,34.356,28.468,34.3,28.08Zm-9.482-1.019-.023-.047c.2-.144.4-.285.6-.431l0,0h0l0,0c.315-.227.638-.461.971-.7h0c.033.281.061.521.091.77l.029.24-.562.077h0c-.365.051-.727.1-1.089.15C24.837,27.093,24.83,27.078,24.822,27.061Zm12.292-.277a3.581,3.581,0,0,0-.5-.006c-.462.043-.64-.236-.724-.614a.642.642,0,0,1,.1-.637c.195-.18.433-.062.621.041a3.325,3.325,0,0,0,.333.157c.393.167.787.337.82.9-.069.028-.138.058-.209.088s-.138.056-.207.086C37.266,26.795,37.19,26.788,37.115,26.784ZM27.037,25.5l1.99-.671h0l.006,0,.691-.234c.068.629.128,1.193.192,1.808l-2.319.33h-.01l-.366.054C27.164,26.362,27.1,25.978,27.037,25.5Zm3.558.341c-.063-.438-.124-.865-.183-1.291.151-.032.3-.064.452-.094l.077-.017h1.523c.183.062.369.12.537.174l.135.043.058.506v0c.029.251.057.5.088.768-.867.122-1.725.242-2.623.371Zm3.3-.813-.011-.075,1.029.622,0,0,.165.1-.343.049h0l0,0c-.257.036-.484.069-.726.1C33.971,25.555,33.94,25.319,33.9,25.027Zm1.283.4a3.905,3.905,0,0,0-1.564-.978.733.733,0,0,1-.221-.729,5.835,5.835,0,0,0,.056-1.656c-.018-.262-.034-.523-.034-.783,0-.045,0-.09,0-.137h0a1.233,1.233,0,0,1,.057-.521c.018-.041.033-.079.048-.122.083-.217.168-.446.4-.5.261-.064.4.133.523.322.027.036.052.077.079.112l.064.082.062.082h0a15.378,15.378,0,0,1,.808,4.192v.021a1.5,1.5,0,0,1-.112.764C35.294,25.523,35.239,25.471,35.182,25.426Zm.97-.348a.576.576,0,0,1-.277-.637.511.511,0,0,1,.4-.481c.254-.058.508-.129.759-.2a7.734,7.734,0,0,1,1.928-.363l.152.017a.417.417,0,0,0,.3.051.374.374,0,0,1,.333.084.378.378,0,0,0,.289.12.946.946,0,0,1,.135.021h0a1.386,1.386,0,0,1-.728.466c-.04.013-.079.03-.12.045a7.071,7.071,0,0,0-1.792.905.955.955,0,0,1-.592.215A1.736,1.736,0,0,1,36.152,25.079ZM33.129,24.1l-.014,0s-.236.026-.3-.054a5.5,5.5,0,0,1-.336-1.349c0-.043.077-.281.146-.307a.971.971,0,0,1,.5.154,4.694,4.694,0,0,1,.067,1.493c-.012.056-.024.069-.042.069A.091.091,0,0,1,33.129,24.1Zm2.558-.86c-.055-.223-.12-.448-.183-.671a6.962,6.962,0,0,1-.329-1.622,7.831,7.831,0,0,0,.548-2.465,1.133,1.133,0,0,0,0-.148c-.009-.157-.019-.326.175-.367s.291.142.376.3c.012.026.025.047.035.069.063.114.13.225.194.335.025.045.05.086.075.129h0a7.681,7.681,0,0,1,.329,3.743c-.009.1-.016.2-.024.3a.727.727,0,0,1-.5.723.95.95,0,0,1-.306.064C35.884,23.633,35.754,23.517,35.687,23.236Zm1.692-.069c-.187-.122-.141-.328-.1-.523.013-.058.025-.116.031-.165.154-1.352.45-1.611,2.2-1.944l.3.009a1.912,1.912,0,0,1,.68-.045c.059,0,.115.006.174.009a1.121,1.121,0,0,0,.182-.015c.169-.026.346-.051.408.124s-.1.287-.244.395c-.046.032-.091.067-.131.1l-.231.148a10.1,10.1,0,0,0-1.95,1.467c-.049.036-.094.077-.14.118a1.435,1.435,0,0,1-.334.245,1.412,1.412,0,0,1-.55.159A.516.516,0,0,1,37.379,23.167Zm.141-2.493c-.222-.105-.215-.363-.208-.618a2.117,2.117,0,0,0-.009-.317,1.543,1.543,0,0,1,.015-.459c.008-.069.018-.137.023-.206.122-.133.245-.266.365-.4h0c.311-.341.624-.682.946-1.013.036-.039.072-.079.11-.122.166-.193.351-.405.587-.3.289.124.222.427.167.686-.013.054-.024.105-.032.152a10.869,10.869,0,0,1-.257,1.1c-.041.152-.083.307-.121.461l0,0a.6.6,0,0,0-.144.348c-.029.165-.062.33-.243.4-.1.036-.191.088-.289.135a1.531,1.531,0,0,1-.649.217A.609.609,0,0,1,37.52,20.674Z" transform="translate(0 0)" fill="url(#linear-gradient)"/>
    </g>
    <path id="Union_3" data-name="Union 3" d="M29.87,42.391a9.217,9.217,0,0,0-1.806-2.437,8.765,8.765,0,0,0-4.577-2.343,17.735,17.735,0,0,0-2.638-.172c-1.744-.034-3.494,0-5.238-.039a14.683,14.683,0,0,1-4.075-.618,15.8,15.8,0,0,1-4.191-1.916,16.333,16.333,0,0,1-5.8-6.627A15.253,15.253,0,0,1,.115,23.424a40.962,40.962,0,0,1-.1-4.6H.02c0-1.242-.049-2.484.014-3.722a15.187,15.187,0,0,1,.382-2.527,18.145,18.145,0,0,1,.688-2.27A14.367,14.367,0,0,1,2.963,6.88a16.377,16.377,0,0,1,6.58-5.413A15.424,15.424,0,0,1,13.231.339,16.846,16.846,0,0,1,16.075.082C18.067.058,20.064,0,22.061,0c.951,0,1.907.034,2.853.124a15.883,15.883,0,0,1,2.982.6A16.713,16.713,0,0,1,31.341,2.18a16.909,16.909,0,0,1,2.413,1.71,16.609,16.609,0,0,1,3.192,3.66,14.245,14.245,0,0,1,2.121,5.029,19.9,19.9,0,0,1,.353,2.772c.115,1.9.072,3.793.081,5.689a16.116,16.116,0,0,1-1.582,7.2,16.3,16.3,0,0,1-3.087,4.353c-.335.335-.688.661-1.037.985a2.206,2.206,0,0,1-.191.163c-.267.191-.688.416-.918.182a11.091,11.091,0,0,0-1.165-1.116,14.884,14.884,0,0,0-3.77-1.959c-.488-.18-.985-.33-1.477-.491a.546.546,0,0,1-.12-.043c-.043-.03-.105-.073-.105-.109s.048-.1.091-.124A.646.646,0,0,1,26.31,30a10.745,10.745,0,0,0,3.9-2.877,8.542,8.542,0,0,0,1.969-4.215,15.714,15.714,0,0,0,.12-2.594c.009-1.5-.02-2.986,0-4.477a8.193,8.193,0,0,0-.727-3.325,8.441,8.441,0,0,0-2.246-3.136,8.7,8.7,0,0,0-3.918-2.021,13.029,13.029,0,0,0-2.8-.285h-2.25c-1.314-.006-2.623-.006-3.932.009a9.217,9.217,0,0,0-5.447,1.639,9.323,9.323,0,0,0-2.824,3.235,8.147,8.147,0,0,0-.875,2.622,13.557,13.557,0,0,0-.163,1.9c-.024,1.371-.052,2.748.01,4.119a13.427,13.427,0,0,0,.444,3.531,9.382,9.382,0,0,0,1.835,3.184,8.66,8.66,0,0,0,4.625,2.776,8.323,8.323,0,0,0,1.874.21c1.868.032,3.732,0,5.6.032a19.475,19.475,0,0,1,2.336.225c.86.129,1.716.281,2.561.474a12.182,12.182,0,0,1,3.631,1.519,7.624,7.624,0,0,1,1.692,1.2,5.687,5.687,0,0,1,.43,7.382,5.234,5.234,0,0,1-1.605,1.459.738.738,0,0,1-.328.116C30.085,42.7,29.989,42.6,29.87,42.391Zm136.8-3a.528.528,0,0,1-.473-.626c.123-1.626.024-3.25.029-4.88q.021-10.635,0-21.268,0-5.9,0-11.8c0-.468.1-.575.563-.611a3.747,3.747,0,0,1,.412-.015c2.676,0,5.346,0,8.023,0h.109c.458.006.506.058.506.541q-.006,5.059-.01,10.119c0,1.555,0,3.106,0,4.66h.005c0,2.023,0,4.048,0,6.069q0,3.382-.005,6.762c0,.635,0,1.27,0,1.9-.005.536.186.762.707.766.985,0,1.974-.009,2.963-.015q6.5,0,13,0c.253,0,.5-.024.75-.011a.6.6,0,0,1,.631.618,1.557,1.557,0,0,1,.009.3q-.035,2.89-.076,5.769c0,.242.029.483.044.721a2.549,2.549,0,0,1,.014.382c-.048.382-.163.631-.675.631-3.1-.013-6.2-.009-9.293-.009q-7.01,0-14.019,0c-.889,0-1.773.032-2.661.043A2.525,2.525,0,0,1,166.674,39.389ZM126.76,39.4a.459.459,0,0,1-.43-.453,2.218,2.218,0,0,1-.024-.307q-.014-5.326-.014-10.656c0-3.211.014-6.423.018-9.632q.008-6.667.01-13.333c0-1.337,0-2.675,0-4.014-.005-.717.091-.817.8-.817q4.537-.006,9.069,0V.206c2.848,0,5.7,0,8.549,0a12.32,12.32,0,0,1,2.928.378,13.176,13.176,0,0,1,2.838.955c.235.114.445.279.684.39.526.264,1.075.474,1.585.762a8.265,8.265,0,0,1,1.028.749c.144.105.253.251.387.365a6.829,6.829,0,0,1,.788.7c.535.654,1.209,1.176,1.7,1.879.4.581.817,1.15,1.228,1.729a1.129,1.129,0,0,1,.153.3,10.4,10.4,0,0,0,.87,1.984,16.352,16.352,0,0,1,.717,1.838c.053.139.105.281.153.431.09.3.191.6.252.912a21.281,21.281,0,0,1,.412,2.169c.114,1.137.181,2.285.228,3.432a30.417,30.417,0,0,1-.262,5.026c-.025.167-.019.335-.034.5a2.333,2.333,0,0,1-.057.455,31.527,31.527,0,0,1-1.171,3.617c-.372.847-.74,1.7-1.151,2.527a7.609,7.609,0,0,1-.736,1.148,33.522,33.522,0,0,1-2.379,2.834,5.945,5.945,0,0,1-1.444,1.079,2.141,2.141,0,0,0-.459.32,4.825,4.825,0,0,1-1.544.991,11.378,11.378,0,0,1-1.237.62,24.917,24.917,0,0,1-2.638.717,18.911,18.911,0,0,1-3.795.412q-7.475-.006-14.956,0c-.5,0-1,.019-1.5.019A3.769,3.769,0,0,1,126.76,39.4Zm9.949-30.72c-.721.077-.841.23-.841.97V19.777h.029v3.746c0,1.693,0,3.39-.005,5.08,0,.534-.015,1.07,0,1.607a.74.74,0,0,0,.726.807,3.759,3.759,0,0,0,.56.019c.736,0,1.476-.015,2.212-.015,1.61-.009,3.22,0,4.835-.017a3.885,3.885,0,0,0,1.572-.3,7.624,7.624,0,0,0,2.212-1.463,7.6,7.6,0,0,0,1.424-1.952,7.475,7.475,0,0,1,.44-.88,5.673,5.673,0,0,0,.759-2.25c.072-.656.263-1.3.3-1.961a28.493,28.493,0,0,0-.293-6.775,21.14,21.14,0,0,0-.668-2.18,1.208,1.208,0,0,0-.158-.3q-.558-.83-1.119-1.669a6.87,6.87,0,0,0-.44-.616A5.933,5.933,0,0,0,146.2,9.223a1.861,1.861,0,0,1-.344-.148,2.812,2.812,0,0,0-1.692-.393q-1.907-.006-3.823-.015-1.347-.006-2.694-.009l-.34,0A5.522,5.522,0,0,0,136.709,8.682ZM103.633,39.441c-.167,0-.339,0-.506,0H87.644a3.932,3.932,0,0,1-.6-.034c-.373-.062-.493-.2-.531-.577a2.1,2.1,0,0,1-.019-.307c-.014-2.064-.038-4.127-.043-6.2-.005-3.072.005-6.144.01-9.216V19.745h.019v0q0-5.371,0-10.748c0-2.422-.015-4.844-.019-7.268,0-.354.014-.712.038-1.07.02-.281.105-.382.383-.433a2.237,2.237,0,0,1,.449-.034c5.935,0,11.869,0,17.8.028a8.467,8.467,0,0,1,2.657.412c.449.148.917.238,1.376.348a4.655,4.655,0,0,1,1.242.528,4.453,4.453,0,0,0,.635.328,11.422,11.422,0,0,1,2.434,1.334,6.413,6.413,0,0,1,1.49,1.321,6.529,6.529,0,0,0,.846.867,5.359,5.359,0,0,1,.97,1.055,14.284,14.284,0,0,1,1.544,2.609,8.109,8.109,0,0,0,.492.985,12.41,12.41,0,0,1,1.1,2.834,18.113,18.113,0,0,1,.378,2.1c.138.946.321,1.892.368,2.838.072,1.39.062,2.78.034,4.166a15.673,15.673,0,0,1-.243,1.74c-.048.369-.087.736-.13,1.1a4.426,4.426,0,0,1-.076.562c-.138.622-.3,1.238-.42,1.864a10.514,10.514,0,0,1-.817,2.165,17.386,17.386,0,0,1-.946,1.778,5.991,5.991,0,0,0-.459.916,4.183,4.183,0,0,1-1.07,1.452c-.191.187-.349.4-.52.6a.8.8,0,0,1-.086.124c-.851.751-1.481,1.774-2.581,2.227a2.259,2.259,0,0,0-.611.44,5.489,5.489,0,0,1-1.557.98,14.213,14.213,0,0,1-2.308.873c-.086.015-.167.054-.253.067-.784.148-1.572.283-2.357.435a12.776,12.776,0,0,1-2.493.167ZM96.03,9.259c-.01.247.011.489.015.727v9.83h0V30.141c0,.727.177.91.88.91h.038c1.611,0,3.221,0,4.835-.011.268,0,.541,0,.808,0a14.7,14.7,0,0,0,2.705-.154,4.415,4.415,0,0,0,2.151-1.083c.482-.435.9-.95,1.4-1.382a2.131,2.131,0,0,0,.353-.487c.1-.148.177-.307.257-.463a7.338,7.338,0,0,0,1-2.694,5.1,5.1,0,0,1,.2-.774,7.856,7.856,0,0,0,.21-.809,10.432,10.432,0,0,0,.159-1.328c.042-1.092.053-2.188.071-3.282,0-.051-.01-.1-.014-.152-.068-.584-.124-1.163-.206-1.744-.043-.324-.119-.65-.191-.97s-.162-.639-.249-.957c-.067-.242-.133-.487-.21-.729a4.4,4.4,0,0,1-.158-.47,3.332,3.332,0,0,0-.674-1.429c-.306-.405-.6-.817-.927-1.2-.272-.315-.582-.592-.88-.884-.109-.1-.239-.18-.353-.277a4.06,4.06,0,0,0-1.835-.907,9.282,9.282,0,0,0-1.6-.172c-.358-.021-.717-.021-1.076-.015h-.534L96.7,8.615A.6.6,0,0,0,96.03,9.259ZM61.713,39.413a19.193,19.193,0,0,1-3.813-.545c-.554-.135-1.076-.393-1.62-.579-.22-.079-.459-.12-.683-.2-.306-.1-.611-.2-.907-.324a13.058,13.058,0,0,1-1.864-1.028,5.729,5.729,0,0,1-.961-.77,3.892,3.892,0,0,0-.736-.575,4.9,4.9,0,0,1-1.409-1.427c-.277-.382-.487-.817-.793-1.176a5.14,5.14,0,0,1-.851-1.4,2.8,2.8,0,0,0-.2-.358,6.177,6.177,0,0,1-.574-1.371,18.446,18.446,0,0,1-.611-3.121,18.771,18.771,0,0,1-.129-2.014c-.014-2.609,0-5.219,0-7.828V13.333h0V1.534c0-.277.01-.549.028-.822.029-.363.149-.483.516-.511.187-.015.373-.015.559-.015,2.561,0,5.122.019,7.684.011.879-.006.808.234.8.811-.02,1.65-.01,3.3-.014,4.945-.014,2.836-.038,5.668-.038,8.506,0,3.244.014,6.489.024,9.74a7.5,7.5,0,0,0,.277,2.143,6.223,6.223,0,0,0,1.252,2.649,6.167,6.167,0,0,0,1.682,1.294,8.429,8.429,0,0,0,5.653.631,13.7,13.7,0,0,0,1.51-.44,4.207,4.207,0,0,0,1.739-1.2c.3-.315.6-.635.879-.97a2.973,2.973,0,0,0,.516-1.028,10.641,10.641,0,0,0,.392-3.22q.006-11.353.009-22.7c0-.191-.009-.378-.019-.564-.024-.506.048-.584.564-.6.153-.006.3,0,.449,0H78.9c.74,0,.8.071.8.822q-.008,3.855,0,7.717c.005,4.906,0,9.815.019,14.723a31.993,31.993,0,0,1-.176,3.887,6.246,6.246,0,0,1-.373,1.712c-.173.425-.277.877-.469,1.3A15.513,15.513,0,0,1,77.338,32.8a.623.623,0,0,0-.129.18A4.565,4.565,0,0,1,76.191,34.4a4.042,4.042,0,0,1-1.046.946,6.216,6.216,0,0,0-.7.564,17.281,17.281,0,0,1-1.974,1.36,8.292,8.292,0,0,1-2.055.882c-.735.238-1.462.5-2.2.717a16.973,16.973,0,0,1-4.668.573C62.936,39.441,62.324,39.43,61.713,39.413Z" transform="translate(-6112.681 -13188.153)" fill="url(#linear-gradient-2)"/>
  </g>
</svg>
