<svg xmlns="http://www.w3.org/2000/svg" width="202" height="79" viewBox="0 0 202 79">
  <g id="Group_52351" data-name="Group 52351" transform="translate(-1557 -28)">
    <g id="Group_52074" data-name="Group 52074" transform="translate(1557 28)">
      <g id="Rectangle_24465" data-name="Rectangle 24465" fill="#fff" stroke="#242424" stroke-width="2">
        <rect width="202" height="79" rx="39.5" stroke="none"/>
        <rect x="1" y="1" width="200" height="77" rx="38.5" fill="none"/>
      </g>
    </g>
    <g id="download-on-the-app-store-apple-logo-svgrepo-com" transform="translate(1575.262 42.353)">
      <path id="Path_126646" data-name="Path 126646" d="M72.524,41.562a7.13,7.13,0,0,1,3.4-5.983,7.305,7.305,0,0,0-5.753-3.109c-2.42-.255-4.767,1.448-6,1.448-1.257,0-3.156-1.423-5.2-1.381a7.659,7.659,0,0,0-6.447,3.931c-2.788,4.825-.709,11.916,1.962,15.816,1.336,1.911,2.9,4.043,4.941,3.968,2-.081,2.746-1.273,5.159-1.273,2.39,0,3.092,1.273,5.176,1.225,2.146-.033,3.5-1.919,4.786-3.846A15.765,15.765,0,0,0,76.731,47.9a6.9,6.9,0,0,1-4.208-6.339ZM68.587,29.9a7.017,7.017,0,0,0,1.607-5.029,7.151,7.151,0,0,0-4.623,2.391,6.678,6.678,0,0,0-1.649,4.844A5.907,5.907,0,0,0,68.587,29.9Z" transform="translate(-35.457 -17.228)" fill="#242424"/>
      <g id="Group_52368" data-name="Group 52368" transform="translate(52.201 22.138)">
        <path id="Path_126648" data-name="Path 126648" d="M183.634,88.627H180.84l-1.53-4.808h-5.32l-1.458,4.808h-2.72l5.272-16.368h3.255ZM178.848,81.8l-1.384-4.274q-.22-.655-.826-3.084h-.049q-.244,1.044-.778,3.084L174.451,81.8Zm18.317.779a6.682,6.682,0,0,1-1.636,4.759,4.8,4.8,0,0,1-3.639,1.555,3.643,3.643,0,0,1-3.371-1.674v6.193H185.9V80.7q0-1.891-.1-3.879H188.1l.146,1.871h.049a4.667,4.667,0,0,1,7.469-.464A6.525,6.525,0,0,1,197.165,82.58Zm-2.672.1a4.865,4.865,0,0,0-.778-2.842,2.688,2.688,0,0,0-2.283-1.165,2.728,2.728,0,0,0-1.761.643A2.983,2.983,0,0,0,188.639,81a3.424,3.424,0,0,0-.122.8v1.969a3.157,3.157,0,0,0,.79,2.175,2.622,2.622,0,0,0,2.052.887,2.688,2.688,0,0,0,2.307-1.141A5.023,5.023,0,0,0,194.493,82.676Zm16.251-.1a6.683,6.683,0,0,1-1.636,4.759,4.8,4.8,0,0,1-3.64,1.555,3.643,3.643,0,0,1-3.371-1.674v6.193h-2.623V80.7q0-1.891-.1-3.879h2.307l.146,1.871h.049a4.668,4.668,0,0,1,7.47-.464A6.532,6.532,0,0,1,210.744,82.58Zm-2.673.1a4.865,4.865,0,0,0-.779-2.842,2.683,2.683,0,0,0-2.281-1.165,2.739,2.739,0,0,0-1.763.643A2.982,2.982,0,0,0,202.216,81a3.5,3.5,0,0,0-.123.8v1.969a3.168,3.168,0,0,0,.789,2.175,2.628,2.628,0,0,0,2.055.887,2.686,2.686,0,0,0,2.307-1.141A5.023,5.023,0,0,0,208.07,82.676Zm17.855,1.359a4.372,4.372,0,0,1-1.455,3.4,6.452,6.452,0,0,1-4.46,1.433,7.786,7.786,0,0,1-4.24-1.02l.607-2.186a7.3,7.3,0,0,0,3.789,1.021,3.576,3.576,0,0,0,2.307-.668,2.181,2.181,0,0,0,.828-1.783,2.285,2.285,0,0,0-.682-1.676,6.319,6.319,0,0,0-2.259-1.262q-4.3-1.6-4.3-4.689a4.139,4.139,0,0,1,1.518-3.3,6,6,0,0,1,4.021-1.288,7.947,7.947,0,0,1,3.717.777l-.658,2.138a6.5,6.5,0,0,0-3.146-.753,3.2,3.2,0,0,0-2.17.68,1.946,1.946,0,0,0-.658,1.483,2,2,0,0,0,.754,1.6,8.5,8.5,0,0,0,2.379,1.262,8.066,8.066,0,0,1,3.109,1.99,4.147,4.147,0,0,1,1,2.839Zm8.695-5.243h-2.891v5.73q0,2.186,1.53,2.184a4.609,4.609,0,0,0,1.165-.122l.073,1.991a5.944,5.944,0,0,1-2.04.29,3.144,3.144,0,0,1-2.43-.948,4.649,4.649,0,0,1-.875-3.182V78.787H227.43V76.819h1.722V74.658l2.576-.777v2.938h2.891Zm13.019,3.836a6.473,6.473,0,0,1-1.555,4.468,5.544,5.544,0,0,1-4.323,1.8,5.285,5.285,0,0,1-4.142-1.722,6.277,6.277,0,0,1-1.543-4.347,6.421,6.421,0,0,1,1.591-4.492,5.515,5.515,0,0,1,4.289-1.749,5.4,5.4,0,0,1,4.177,1.724,6.2,6.2,0,0,1,1.507,4.32Zm-2.719.06a5.284,5.284,0,0,0-.7-2.785A2.6,2.6,0,0,0,241.86,78.5a2.634,2.634,0,0,0-2.405,1.406,5.371,5.371,0,0,0-.7,2.834,5.268,5.268,0,0,0,.7,2.786,2.69,2.69,0,0,0,4.74-.023,5.305,5.305,0,0,0,.725-2.812Zm11.249-3.558a4.566,4.566,0,0,0-.827-.073A2.476,2.476,0,0,0,253.2,80.1a3.937,3.937,0,0,0-.655,2.331v6.193h-2.623V80.541q0-1.858-.076-3.716h2.285l.1,2.258h.073a4.049,4.049,0,0,1,1.312-1.871,3.172,3.172,0,0,1,1.9-.632,4.211,4.211,0,0,1,.656.048ZM267.9,82.167a6.146,6.146,0,0,1-.1,1.189h-7.869a3.423,3.423,0,0,0,1.142,2.674,3.9,3.9,0,0,0,2.574.824,8.705,8.705,0,0,0,3.184-.557l.411,1.819a9.846,9.846,0,0,1-3.958.729,5.738,5.738,0,0,1-4.313-1.614,5.966,5.966,0,0,1-1.566-4.334,6.759,6.759,0,0,1,1.459-4.443,5.027,5.027,0,0,1,4.128-1.893,4.4,4.4,0,0,1,3.864,1.893A6.369,6.369,0,0,1,267.9,82.167Zm-2.5-.68a3.55,3.55,0,0,0-.509-2.016,2.291,2.291,0,0,0-2.089-1.095,2.487,2.487,0,0,0-2.088,1.069,3.917,3.917,0,0,0-.776,2.039Z" transform="translate(-169.812 -72.016)" fill="#242424"/>
      </g>
      <g id="Group_52369" data-name="Group 52369" transform="translate(53.737 8.06)">
        <path id="Path_126649" data-name="Path 126649" d="M176.692,34.753a16.752,16.752,0,0,1-1.886-.1V26.743a14.282,14.282,0,0,1,2.221-.167c3.008,0,4.393,1.48,4.393,3.892C181.42,33.25,179.784,34.753,176.692,34.753Zm.44-7.162a5.264,5.264,0,0,0-1.038.084V33.69a6.809,6.809,0,0,0,.871.036c1.971,0,3.093-1.122,3.093-3.223A2.625,2.625,0,0,0,177.133,27.591Zm8.6,7.222a2.761,2.761,0,0,1-2.794-2.984,2.825,2.825,0,0,1,2.89-3.068,2.739,2.739,0,0,1,2.794,2.973,2.842,2.842,0,0,1-2.89,3.079Zm.049-5.109c-.931,0-1.528.871-1.528,2.088,0,1.194.609,2.065,1.516,2.065s1.516-.931,1.516-2.09C187.29,30.587,186.693,29.7,185.787,29.7Zm12.508-.823-1.815,5.8H195.3l-.752-2.519a19.093,19.093,0,0,1-.466-1.873h-.025a12.556,12.556,0,0,1-.465,1.873l-.8,2.519H191.6l-1.708-5.8h1.325l.657,2.758q.233.985.394,1.862h.025c.095-.488.25-1.1.477-1.85l.824-2.769h1.051l.789,2.71c.191.657.346,1.3.466,1.91h.034a16.7,16.7,0,0,1,.394-1.91l.7-2.71H198.3Zm6.68,5.8h-1.289V31.351c0-1.026-.394-1.54-1.17-1.54a1.339,1.339,0,0,0-1.289,1.421v3.45h-1.289V30.539c0-.513-.012-1.063-.048-1.659h1.134l.06.9h.036a2.084,2.084,0,0,1,1.839-1.013c1.218,0,2.018.931,2.018,2.446v3.473Zm3.556,0h-1.291V26.219h1.291Zm4.7.132a2.762,2.762,0,0,1-2.794-2.984,2.825,2.825,0,0,1,2.889-3.068,2.739,2.739,0,0,1,2.794,2.973,2.841,2.841,0,0,1-2.889,3.079Zm.048-5.109c-.931,0-1.528.871-1.528,2.088,0,1.194.61,2.065,1.514,2.065s1.516-.931,1.516-2.09c0-1.181-.594-2.064-1.5-2.064Zm7.924,4.978-.093-.668h-.034a1.981,1.981,0,0,1-1.7.8,1.687,1.687,0,0,1-1.778-1.707c0-1.432,1.241-2.172,3.391-2.172v-.107c0-.764-.4-1.146-1.2-1.146a2.716,2.716,0,0,0-1.516.43l-.262-.847a3.709,3.709,0,0,1,1.992-.5c1.516,0,2.281.8,2.281,2.4V33.3a8.758,8.758,0,0,0,.084,1.385H221.2Zm-.177-2.889c-1.432,0-2.151.347-2.151,1.17a.822.822,0,0,0,.885.906,1.235,1.235,0,0,0,1.266-1.181Zm7.517,2.889-.06-.931h-.036a1.945,1.945,0,0,1-1.863,1.063c-1.4,0-2.435-1.23-2.435-2.961,0-1.814,1.074-3.092,2.541-3.092a1.743,1.743,0,0,1,1.636.788h.026v-3.33h1.291v6.9c0,.561.014,1.086.048,1.563h-1.148Zm-.191-3.413a1.4,1.4,0,0,0-1.358-1.5c-.956,0-1.54.847-1.54,2.041,0,1.17.607,1.97,1.514,1.97a1.448,1.448,0,0,0,1.384-1.54v-.967Zm9.473,3.545a2.761,2.761,0,0,1-2.793-2.984,2.825,2.825,0,0,1,2.889-3.068,2.739,2.739,0,0,1,2.794,2.973,2.841,2.841,0,0,1-2.89,3.079Zm.048-5.109c-.93,0-1.527.871-1.527,2.088,0,1.194.609,2.065,1.514,2.065s1.516-.931,1.516-2.09c0-1.181-.594-2.064-1.5-2.064Zm9.776,4.978H246.36V31.351c0-1.026-.394-1.54-1.17-1.54a1.338,1.338,0,0,0-1.288,1.421v3.45h-1.291V30.539c0-.513-.012-1.063-.048-1.659H243.7l.06.9h.036a2.083,2.083,0,0,1,1.838-1.015c1.218,0,2.019.931,2.019,2.446Zm8.675-4.834h-1.419v2.817c0,.717.249,1.075.75,1.075a2.54,2.54,0,0,0,.572-.06l.036.979a2.857,2.857,0,0,1-1,.144c-1.016,0-1.624-.561-1.624-2.029V29.848h-.846v-.967h.846V27.818l1.266-.383V28.88h1.419Zm6.826,4.834h-1.288V31.375c0-1.038-.392-1.563-1.17-1.563a1.264,1.264,0,0,0-1.291,1.373v3.5h-1.288V26.219H259.4V29.7h.026a1.956,1.956,0,0,1,1.745-.943c1.228,0,1.978.954,1.978,2.471v3.45Zm6.993-2.59h-3.869a1.665,1.665,0,0,0,1.828,1.718,4.358,4.358,0,0,0,1.564-.274l.2.9a4.845,4.845,0,0,1-1.946.358,2.693,2.693,0,0,1-2.889-2.924,2.833,2.833,0,0,1,2.744-3.116c1.483,0,2.413,1.1,2.413,2.758A2.483,2.483,0,0,1,270.144,32.091Zm-1.182-.919c0-.9-.452-1.528-1.276-1.528a1.529,1.529,0,0,0-1.41,1.528Z" transform="translate(-174.806 -26.219)" fill="#242424"/>
      </g>
    </g>
  </g>
</svg>
