<svg xmlns="http://www.w3.org/2000/svg" xmlns:xlink="http://www.w3.org/1999/xlink" width="252" height="43.457" viewBox="0 0 252 43.457">
  <defs>
    <clipPath id="clip-path">
      <rect id="Rectangle_24846" data-name="Rectangle 24846" width="252" height="43.457" fill="#fff"/>
    </clipPath>
  </defs>
  <g id="HookUP.com" clip-path="url(#clip-path)">
    <path id="Path_126590" data-name="Path 126590" d="M0,21.8V1.406A1.577,1.577,0,0,0,0,1.2C-.022,1,.063.946.259.951c.666.013,1.336,0,2,0,.259,0,.518,0,.777,0,.138,0,.2.049.2.192V19.661c0,.625-.063.541.545.541H30.631c.447,0,.447,0,.447-.442V1.411c0-.08,0-.165,0-.246-.013-.152.04-.219.206-.214.938.009,1.881.009,2.819,0,.179,0,.241.067.237.237,0,.219,0,.433,0,.652V42.053c0,.6.089.527-.549.532-.777,0-1.555,0-2.328,0-.38,0-.38,0-.38-.4V23.1c0-.134-.058-.2-.2-.192H3.709a1.581,1.581,0,0,1-.206,0c-.228-.031-.277.08-.268.281.013.326,0,.652,0,.978V42.433a.135.135,0,0,1-.147.152H.394c-.375,0-.38,0-.38-.407V21.788Z" transform="translate(0 -0.531)"/>
    <path id="Path_126591" data-name="Path 126591" d="M286.012,12.764V.326c.009-.29.009-.3.3-.3.764,0,1.528-.009,2.287,0,.241,0,.541-.112.706.067.147.156.045.442.045.67q0,11.7-.009,23.406a26.864,26.864,0,0,1-.268,3.328,22.324,22.324,0,0,1-.867,3.972,16.883,16.883,0,0,1-2.864,5.544,15.7,15.7,0,0,1-1.38,1.595,17.106,17.106,0,0,1-3.288,2.48,18.5,18.5,0,0,1-4.061,1.666,20.717,20.717,0,0,1-3.463.594,17.434,17.434,0,0,1-2.935.071,19.624,19.624,0,0,1-2.386-.281,16.009,16.009,0,0,1-1.872-.389,19.456,19.456,0,0,1-4.566-2.037,16.572,16.572,0,0,1-4.553-4.338,16.319,16.319,0,0,1-1.608-2.783,18.593,18.593,0,0,1-.929-2.5,24.384,24.384,0,0,1-.67-3.579,27.663,27.663,0,0,1-.192-3.847V14.087q0-6.762,0-13.524c0-.6-.071-.532.554-.536h2.412c.317,0,.322.009.326.313,0,.38,0,.76,0,1.144q0,10.682,0,21.369c0,1.072.027,2.149.1,3.217a17.158,17.158,0,0,0,2.328,7.774,12.9,12.9,0,0,0,5.893,5.223,14.49,14.49,0,0,0,6.009,1.26,16.117,16.117,0,0,0,2.971-.183,11.558,11.558,0,0,0,2.082-.523c.362-.138.746-.223,1.108-.366a11.283,11.283,0,0,0,3.547-2.145,14.737,14.737,0,0,0,2.725-3.244,17.044,17.044,0,0,0,1.564-3.574c.161-.5.259-1.019.4-1.528a20.2,20.2,0,0,0,.554-5.4v-10.6Z" transform="translate(-141.588 0.004)" fill="#ea6f00"/>
    <path id="Path_126592" data-name="Path 126592" d="M354.929,21.493V.9c0-.179,0-.353,0-.532.009-.3.009-.3.331-.308h.326c3.789,0,7.577-.031,11.362.013a19.9,19.9,0,0,1,6.8,1.126,10.823,10.823,0,0,1,4.629,3.145,9.562,9.562,0,0,1,2.059,4.222,12.45,12.45,0,0,1-.737,7.872,9.284,9.284,0,0,1-2.609,3.387,11.883,11.883,0,0,1-4.226,2.2,20.967,20.967,0,0,1-5.361.835c-2.926.094-5.857.018-8.788.04-.6,0-.487,0-.487.514v18.84c0,.134-.009.273,0,.407.018.219-.08.281-.286.277-.8,0-1.608,0-2.413,0a.966.966,0,0,0-.362.022c-.174.076-.219,0-.245-.138a.989.989,0,0,1,0-.2V21.5h.009Zm3.3-10.021v8.234c0,.469.031.4.4.4h7.233a23.91,23.91,0,0,0,2.935-.143,12.926,12.926,0,0,0,3.811-1.01,7.267,7.267,0,0,0,4.03-4.213,9.512,9.512,0,0,0,.272-5.611,7.25,7.25,0,0,0-3.033-4.387,10.826,10.826,0,0,0-5.969-1.827c-3.118-.071-6.237-.027-9.355-.031h-.12c-.139,0-.2.063-.2.2v8.4Z" transform="translate(-198.279 -0.026)" fill="#ea6f00"/>
    <path id="Path_126593" data-name="Path 126593" d="M136.739,35.083a1.667,1.667,0,0,0-.978-.2,12.815,12.815,0,0,0-3.011.134,9.536,9.536,0,0,0-2.39.751.322.322,0,0,1-.455-.08c-.286-.335-.675-.545-.978-.858-.076-.076-.179-.125-.25-.206a4.865,4.865,0,0,0-.751-.67c-.192-.143-.179-.192.04-.3A14.676,14.676,0,0,1,134.152,32a14.161,14.161,0,0,1,5.379.746,13.117,13.117,0,0,1,7.555,6.492,13.694,13.694,0,0,1,1.349,3.8,15.9,15.9,0,0,1,.156,5.5,6.714,6.714,0,0,1-.335,1.5,3.771,3.771,0,0,0-.161.692,6.894,6.894,0,0,1-.339,1.014,11.764,11.764,0,0,1-1.421,2.77,13.8,13.8,0,0,1-2.52,2.8,13.373,13.373,0,0,1-4.115,2.337,14.923,14.923,0,0,1-5.384.831,9.035,9.035,0,0,1-1.152-.094c-.112-.018-.246-.058-.344.058l.009-.018-.013.018a.276.276,0,0,0-.406-.063c-.621-.147-1.224-.371-1.858-.478a2.382,2.382,0,0,1-.894-.286c-.277-.174-.608-.246-.907-.4a24.121,24.121,0,0,1-2.363-1.4,15.89,15.89,0,0,1-1.885-1.7,11.7,11.7,0,0,1-1.787-2.4c-.21-.317-.367-.666-.559-.992s-.241-.692-.4-1.028a11.35,11.35,0,0,1-.661-2.167c-.139-.567-.125-1.144-.223-1.711a11.17,11.17,0,0,1-.049-1.546c-.018-.532.027-1.059.049-1.591a9.476,9.476,0,0,1,.156-1.3,10.568,10.568,0,0,1,.259-1.229,14.8,14.8,0,0,1,.625-1.765c.161-.348.353-.679.509-1.028a9.158,9.158,0,0,1,1.157-1.908c.121-.156.3-.268.371-.474.045-.116.161-.054.245-.018a2.427,2.427,0,0,1,.576.366,6.563,6.563,0,0,1,1.291,1.3c.219.295.214.3,0,.594a10.555,10.555,0,0,0-.97,1.631,10.79,10.79,0,0,0-.884,2.56,14.107,14.107,0,0,0-.313,3.025,12.8,12.8,0,0,0,.5,3.409,10.6,10.6,0,0,0,5.911,6.871,10.078,10.078,0,0,0,3.346.84,10.459,10.459,0,0,0,1.671.063,11.526,11.526,0,0,0,2.9-.536,10.425,10.425,0,0,0,2.8-1.425,11.417,11.417,0,0,0,1.358-1.108,11.87,11.87,0,0,0,1.747-2.346,7.513,7.513,0,0,0,.719-1.573c.161-.491.295-.992.482-1.474a5.588,5.588,0,0,0,.112-.831,8.35,8.35,0,0,0,.165-1.421,3.494,3.494,0,0,0-.045-1.345c-.036-.107.058-.277.036-.424a18.652,18.652,0,0,0-.411-2.212c-.112-.433-.272-.849-.415-1.269a5.149,5.149,0,0,0-.46-1.045,17.167,17.167,0,0,0-1.219-1.832,10.972,10.972,0,0,0-.746-.831,14.081,14.081,0,0,0-2.252-1.72,8.279,8.279,0,0,0-1.313-.639,14.266,14.266,0,0,0-1.407-.424c-.085-.027-.17-.054-.255-.085-.12-.045-.259-.107-.384,0Z" transform="translate(-67.499 -17.869)"/>
    <path id="Path_126594" data-name="Path 126594" d="M97.688,60.549a.3.3,0,0,0-.25-.112,11.6,11.6,0,0,1-1.256-.138,8.522,8.522,0,0,1-1.439-.34,3.344,3.344,0,0,0-.893-.277,3.467,3.467,0,0,1-1.054-.429,11.064,11.064,0,0,1-1.34-.679,8.215,8.215,0,0,1-1.045-.7c-.38-.335-.8-.63-1.2-.943-.031-.027-.071-.045-.1-.071-.487-.554-1.014-1.068-1.461-1.662-.308-.407-.563-.844-.867-1.251a12.906,12.906,0,0,1-.675-1.309,10.5,10.5,0,0,1-.764-1.908,2.035,2.035,0,0,1-.183-.835.446.446,0,0,0-.036-.2,6.049,6.049,0,0,1-.3-1.894c-.045-.393-.067-.786-.089-1.179a19.651,19.651,0,0,1,.116-2.113,5.314,5.314,0,0,1,.04-.648c.1-.6.232-1.193.366-1.783A9.756,9.756,0,0,1,86,40.056a11.554,11.554,0,0,1,.7-1.336c.25-.389.46-.813.737-1.184a21.978,21.978,0,0,1,1.751-1.9A11.779,11.779,0,0,1,91.969,33.6a11.288,11.288,0,0,1,2.069-.844,14.961,14.961,0,0,1,4.092-.742,14.306,14.306,0,0,1,5.356.755,13.344,13.344,0,0,1,4.1,2.265,13.57,13.57,0,0,1,3.655,4.651,15.4,15.4,0,0,1,1.416,7.908,14.751,14.751,0,0,1-.509,2.73,15.077,15.077,0,0,1-1.193,3.051,9.715,9.715,0,0,1-1.215,1.85c-.143.165-.255.179-.451.036l-1.541-1.126c-.112-.08-.223-.156-.335-.232-.326-.219-.353-.237-.1-.554a11.755,11.755,0,0,0,1.282-2.2,8.1,8.1,0,0,0,.416-1.184c.139-.442.255-.894.375-1.34.023-.089.058-.188-.045-.259a.264.264,0,0,0,.12-.246c-.018-.411.13-.8.1-1.215-.027-.433,0-.871-.009-1.3a6.531,6.531,0,0,0-.13-1.246c-.058-.3-.085-.617-.152-.92-.139-.643-.425-1.242-.621-1.867a4.88,4.88,0,0,0-.29-.688A10.73,10.73,0,0,0,106.9,38.63a10.6,10.6,0,0,0-2.77-2.314,9.517,9.517,0,0,0-2.868-1.175,11.426,11.426,0,0,0-6.8.545,10.14,10.14,0,0,0-3.623,2.506,10.8,10.8,0,0,0-2.39,4.066,13.172,13.172,0,0,0-.612,3.976A15.274,15.274,0,0,0,88,48.544a9.59,9.59,0,0,0,.514,1.934,11.287,11.287,0,0,0,1.662,3.069,10.466,10.466,0,0,0,2.35,2.22,13.227,13.227,0,0,0,1.711.978,8.81,8.81,0,0,0,1.591.55,10.851,10.851,0,0,0,2.94.344,9.384,9.384,0,0,0,3.078-.469c.376-.134.755-.273,1.14-.389a.457.457,0,0,0,.214-.1.267.267,0,0,1,.42.013l2.037,2.037a1.47,1.47,0,0,1-.214.179,18.328,18.328,0,0,1-3.435,1.242,15.349,15.349,0,0,1-3.753.357c-.2,0-.406-.08-.59.054Z" transform="translate(-47.335 -17.879)"/>
    <path id="Path_126595" data-name="Path 126595" d="M508.269,50.764c.161-.031.21-.156.259-.255a7.631,7.631,0,0,1,1.648-1.961,5.061,5.061,0,0,1,1.26-.925,6.383,6.383,0,0,1,2.39-.675,7.439,7.439,0,0,1,3.132.331,5.76,5.76,0,0,1,2.748,1.993,11.323,11.323,0,0,1,1.135,1.948.761.761,0,0,0,.206.335c.116-.179.219-.357.335-.527a12.692,12.692,0,0,1,1.626-2.06,6.749,6.749,0,0,1,4.133-2.01,6.46,6.46,0,0,1,2.533.183,6.349,6.349,0,0,1,4.066,3.212,9.7,9.7,0,0,1,.817,2.377,13.941,13.941,0,0,1,.214,2.582V66.606c0,.491.045.442-.428.447-.452,0-.9.009-1.35.009-.3,0-.308,0-.308-.286,0-3.413.018-6.822.013-10.235a12.32,12.32,0,0,0-.455-3.869A5.765,5.765,0,0,0,530.68,50.1a4.435,4.435,0,0,0-1.8-.961,5.224,5.224,0,0,0-3.029.08,5.172,5.172,0,0,0-2.189,1.434,16.275,16.275,0,0,0-2.037,2.743.879.879,0,0,0-.1.509q0,6.3.009,12.6c0,.536,0,.541-.541.545-.451,0-.9,0-1.349,0-.17,0-.259-.058-.237-.237a1.6,1.6,0,0,0,0-.206c0-3.713.009-7.421,0-11.133a3.325,3.325,0,0,0-.107-1.126c-.036-.1.013-.246,0-.375a9.22,9.22,0,0,0-.692-2.252,4.519,4.519,0,0,0-1.6-1.867,4.312,4.312,0,0,0-1.318-.684,5.253,5.253,0,0,0-2.283-.161,7.6,7.6,0,0,0-.876.179,5.859,5.859,0,0,0-2.591,1.689,13.225,13.225,0,0,0-1.51,2.006,1.3,1.3,0,0,0-.21.724q.013,6.4.023,12.8a4.033,4.033,0,0,0,0,.407c.009.179-.076.237-.246.232-.532,0-1.063-.009-1.595,0-.206,0-.255-.089-.241-.273s0-.38,0-.572V47.7c0-.054,0-.112,0-.161-.026-.192.049-.264.25-.259q.777.02,1.555,0c.223,0,.282.076.277.281-.009.952,0,1.9,0,2.855a.662.662,0,0,0,.031.348Z" transform="translate(-282.773 -26.205)"/>
    <path id="Path_126596" data-name="Path 126596" d="M450.255,57.2a17.363,17.363,0,0,1,.152-1.854c.045-.366.183-.706.232-1.063a7.322,7.322,0,0,1,.309-.992,8.321,8.321,0,0,1,1.327-2.466c.312-.433.737-.777,1.09-1.179a6.923,6.923,0,0,1,2.185-1.586,10.429,10.429,0,0,1,3.172-1,10.761,10.761,0,0,1,2.484-.08,9.138,9.138,0,0,1,2.18.42,11.677,11.677,0,0,1,1.3.5,7.161,7.161,0,0,1,2.305,1.546c.317.335.657.648.988.969a2.773,2.773,0,0,1,.214.241,11.177,11.177,0,0,1,1.443,2.609,11.437,11.437,0,0,1,.746,3.847,9.351,9.351,0,0,1-.17,1.894,9.992,9.992,0,0,1-.344,1.541,10.2,10.2,0,0,1-1.805,3.351,9.6,9.6,0,0,1-5.607,3.355,11.813,11.813,0,0,1-3.319.143,10.091,10.091,0,0,1-2.7-.679c-.125-.045-.255-.085-.384-.121a3.637,3.637,0,0,1-.858-.469,11.638,11.638,0,0,1-2.2-1.742,8.611,8.611,0,0,1-1.242-1.631,10.161,10.161,0,0,1-1.461-4.722c-.022-.273-.027-.541-.04-.827Zm17.875.072a8.421,8.421,0,0,0-.711-3.637,7.505,7.505,0,0,0-4.579-4.24,7.686,7.686,0,0,0-5.111.027,7.543,7.543,0,0,0-4.7,4.624,9.2,9.2,0,0,0-.5,2.4,9.352,9.352,0,0,0,.085,2.234,7.045,7.045,0,0,0,.451,1.787,7.91,7.91,0,0,0,4.37,4.414,6.872,6.872,0,0,0,1.966.469,7.933,7.933,0,0,0,3.855-.5,7.553,7.553,0,0,0,4.57-5.191,7.66,7.66,0,0,0,.313-2.386Z" transform="translate(-251.541 -26.222)"/>
    <path id="Path_126597" data-name="Path 126597" d="M190.441,21.768V1.136c0-.125.053-.165.169-.165.858,0,1.716,0,2.573,0,.147,0,.188.076.188.2v40.9c0,.59.085.523-.514.527h-2.126c-.29,0-.29-.009-.295-.281V21.773Z" transform="translate(-106.391 -0.543)"/>
    <path id="Path_126598" data-name="Path 126598" d="M219.352,60.542a.311.311,0,0,1-.232.058q-1.7,0-3.391.009a1.046,1.046,0,0,1-.7-.286,7.8,7.8,0,0,0-1.358-1.095c-.169-.085-.245-.273-.4-.389-.406-.313-.759-.7-1.184-.978a14.391,14.391,0,0,0-1.367-1.081c-.107-.054-.156-.2-.246-.264-.585-.429-1.081-.974-1.7-1.363-.165-.1-.273-.281-.438-.4-.411-.3-.76-.7-1.179-.992a15.323,15.323,0,0,0-1.336-1.063,2.6,2.6,0,0,1-.469-.424,10.924,10.924,0,0,1-.947-.768c-.349-.42-.894-.594-1.2-1.05-.13-.192-.4-.228-.549-.4-.429-.483-1.023-.773-1.452-1.26-.165-.188-.443-.255-.612-.456-.393-.456-.978-.7-1.354-1.179a.967.967,0,0,0-.326-.228c-.3-.147-.46-.483-.76-.648-.062-.036-.049-.125.018-.17.206-.125.313-.375.563-.442a.388.388,0,0,0,.156-.13,6.875,6.875,0,0,1,1.023-.88c.232-.2.425-.438.679-.621.572-.416,1.041-.956,1.631-1.358.232-.161.42-.4.648-.594.943-.8,1.867-1.6,2.814-2.4.3-.255.608-.532.911-.782a17.731,17.731,0,0,1,1.434-1.211c.246-.161.433-.433.679-.612.594-.433,1.072-1,1.689-1.412a5.916,5.916,0,0,0,.554-.509c.706-.621,1.429-1.224,2.149-1.832a.5.5,0,0,1,.335-.125q1.736.007,3.476.022c.022,0,.045.018.125.054-4.99,4.311-9.958,8.6-14.958,12.921.223.2.415.384.621.558,1.126.934,2.247,1.872,3.378,2.8.724.59,1.434,1.2,2.18,1.76.456.344.871.733,1.309,1.1l1.68,1.412,1.97,1.635,4.222,3.5C218.074,59.5,218.717,60.019,219.352,60.542Z" transform="translate(-110.679 -18.55)"/>
    <path id="Path_126599" data-name="Path 126599" d="M423.514,50.11c-.188.08-.317-.027-.447-.08a21.953,21.953,0,0,0-2.122-.715,8.553,8.553,0,0,0-3.154-.3,6.933,6.933,0,0,0-4.633,2.086,8.832,8.832,0,0,0-1.421,2.077,6.436,6.436,0,0,0-.617,1.85,11.549,11.549,0,0,0,0,4.414,7.993,7.993,0,0,0,1.34,3.127A6.515,6.515,0,0,0,414.5,64.38a6.813,6.813,0,0,0,1.532.684,9.035,9.035,0,0,0,2.319.335,10.079,10.079,0,0,0,3.347-.407,13.874,13.874,0,0,0,1.97-.684c.147-.071.214-.031.214.107,0,.625,0,1.251-.018,1.876,0,.147-.1.21-.259.259-1.01.308-2.037.558-3.065.777a6.373,6.373,0,0,1-1.135.094,13.446,13.446,0,0,1-2.649-.063,6.677,6.677,0,0,1-2.1-.5,2.85,2.85,0,0,0-.876-.348c-.2-.031-.375-.237-.567-.357a8.272,8.272,0,0,1-1.877-1.407,9.428,9.428,0,0,1-1.14-1.456c-.228-.4-.438-.8-.634-1.215a9.535,9.535,0,0,1-.652-2.14,12.292,12.292,0,0,1-.2-2.922c.023-.6.1-1.188.161-1.783a8.35,8.35,0,0,1,.509-2.037,8.97,8.97,0,0,1,1.742-3.056,12.594,12.594,0,0,1,1.242-1.2,8.6,8.6,0,0,1,2.287-1.322,10,10,0,0,1,4.075-.67,11.913,11.913,0,0,1,2.412.322c.733.17,1.448.375,2.171.581.147.04.214.089.214.232v2.024Z" transform="translate(-228.328 -26.226)"/>
    <path id="Path_126600" data-name="Path 126600" d="M429.106,68.838a3.314,3.314,0,0,1-1.966-.925,4.154,4.154,0,0,1-.961-2.149,4.027,4.027,0,0,1,.974-2.189,3.136,3.136,0,0,1,2.234-.844,3,3,0,0,1,2.984,3.092,3.076,3.076,0,0,1-3.261,3.011Z" transform="translate(-238.094 -35.045)"/>
    <path id="Path_126601" data-name="Path 126601" d="M148,96.447l.01-.014,0,.019Z" transform="translate(-82.682 -53.874)" fill="#ea6f00"/>
  </g>
</svg>
