<svg xmlns="http://www.w3.org/2000/svg" xmlns:xlink="http://www.w3.org/1999/xlink" width="132.822" height="72.595" viewBox="0 0 132.822 72.595">
  <defs>
    <clipPath id="clip-path">
      <rect id="Rectangle_24851" data-name="Rectangle 24851" width="132.822" height="72.595" fill="#fff"/>
    </clipPath>
  </defs>
  <g id="Koottu" clip-path="url(#clip-path)">
    <g id="Group_52275" data-name="Group 52275" transform="translate(-0.001 -0.014)">
      <path id="Path_126622" data-name="Path 126622" d="M4.507,69.191A2.615,2.615,0,0,1,1.967,67.2c-.253-1.02-6-25.528,3.414-60.2a2.623,2.623,0,0,1,5.062,1.354c-9.065,33.3-3.451,57.393-3.4,57.63a2.59,2.59,0,0,1-1.933,3.127,2.49,2.49,0,0,1-.605.069Z" transform="translate(0.002 -1.586)" fill="#22aa6c"/>
      <path id="Path_126623" data-name="Path 126623" d="M41.356,85.214c-27.212,0-37.32-28.337-38.512-32.015l-.135-.435L2.44,51.394l1.984-1.973,1.38.268c11,2.324,15.624-6.9,15.826-7.306a2.623,2.623,0,0,1,3.481-1.22,2.6,2.6,0,0,1,1.242,3.444A19.355,19.355,0,0,1,9.267,55.24H9.2c4.12,9.83,16.415,30.961,43.826,22.953a2.6,2.6,0,1,1,1.48,4.982,46.9,46.9,0,0,1-13.119,2.006Z" transform="translate(-0.755 -12.661)" fill="#22aa6c"/>
      <path id="Path_126624" data-name="Path 126624" d="M46.266,74.439c-6,0-9.738-5.851-9.738-15.281,0-6.821,3.162-12.689,7.868-14.611a2.6,2.6,0,1,1,1.984,4.815c-2.692,1.087-4.642,5.216-4.642,9.8s1.177,10.081,4.508,10.081c2.775,0,6.156-5.35,6.156-11.585,0-4.2-.908-6.236-1.682-7.222a2.58,2.58,0,0,1,.471-3.645,2.631,2.631,0,0,1,3.666.468c1.833,2.357,2.775,5.851,2.775,10.4C57.635,65.762,53.06,74.439,46.266,74.439Z" transform="translate(-11.316 -13.722)" fill="#22aa6c"/>
      <path id="Path_126625" data-name="Path 126625" d="M84.816,74.441c-6,0-9.738-5.851-9.738-15.281,0-6.821,3.162-12.689,7.868-14.611a2.6,2.6,0,1,1,1.985,4.815c-2.692,1.087-4.642,5.216-4.642,9.8S81.466,69.241,84.8,69.241c2.775,0,6.156-5.35,6.156-11.585,0-4.18-.908-6.236-1.682-7.222a2.58,2.58,0,0,1,.471-3.645,2.616,2.616,0,0,1,3.666.468c1.833,2.357,2.775,5.851,2.775,10.4C96.185,65.764,91.61,74.441,84.816,74.441Z" transform="translate(-23.26 -13.724)" fill="#22aa6c"/>
      <path id="Path_126626" data-name="Path 126626" d="M68.762,57.713c-6.9,0-11.672-6.119-11.908-6.419a2.583,2.583,0,0,1,.5-3.645,2.612,2.612,0,0,1,3.649.483c.084.1,4.575,5.751,9.856,4.029a2.6,2.6,0,1,1,1.632,4.932,12.16,12.16,0,0,1-3.734.6Z" transform="translate(-17.448 -14.583)" fill="#22aa6c"/>
      <path id="Path_126627" data-name="Path 126627" d="M104.116,57.611a9.088,9.088,0,0,1-4.188-.986,10.339,10.339,0,0,1-4.978-6.3,2.614,2.614,0,1,1,5.062-1.3,5.183,5.183,0,0,0,2.321,2.993c1.211.6,2.825.5,4.827-.284a2.6,2.6,0,1,1,1.9,4.831,13.68,13.68,0,0,1-4.961,1.035Z" transform="translate(-29.391 -14.565)" fill="#22aa6c"/>
      <path id="Path_126628" data-name="Path 126628" d="M118.259,68.1a2.623,2.623,0,0,1-2.42-1.6c-8.813-21.349-2.405-62.559-2.12-64.314A2.614,2.614,0,0,1,118.883,3c-.069.418-6.459,41.511,1.8,61.539a2.623,2.623,0,0,1-2.422,3.594Z" transform="translate(-34.452 0.021)" fill="#22aa6c"/>
      <path id="Path_126629" data-name="Path 126629" d="M137.76,72.8a2.6,2.6,0,0,1-2.523-1.939c-.236-.869-5.668-21.734-2.254-51.775a2.615,2.615,0,0,1,5.2.585c-3.313,29.072,2.071,49.652,2.12,49.87a2.591,2.591,0,0,1-1.85,3.175,2.313,2.313,0,0,1-.673.084Z" transform="translate(-40.852 -5.194)" fill="#22aa6c"/>
      <path id="Path_126630" data-name="Path 126630" d="M121.192,33.866a26.969,26.969,0,0,1-8.947-1.471c-11.79-4.146-20.721-.836-20.8-.8A2.623,2.623,0,0,1,88.058,30.1a2.592,2.592,0,0,1,1.481-3.36c.438-.167,10.747-4.062,24.454.752,11.621,4.079,24.555-3.828,24.69-3.912a2.623,2.623,0,0,1,3.6.819,2.572,2.572,0,0,1-.824,3.578c-.488.3-9.6,5.867-20.249,5.884Z" transform="translate(-27.226 -7.169)" fill="#22aa6c"/>
      <path id="Path_126631" data-name="Path 126631" d="M156.9,74.882a8.275,8.275,0,0,1-1.11-.084,7.967,7.967,0,0,1-5.718-3.658c-4.541-7-.3-22,.185-23.689a2.612,2.612,0,0,1,5.011,1.471c-1.614,5.5-3.262,15.631-.807,19.409a2.753,2.753,0,0,0,2.071,1.338,2.14,2.14,0,0,0,1.867-.585c3.382-2.926,4.592-13.726,4.575-19.844a2.607,2.607,0,0,1,5.214-.017c0,1.856-.1,18.359-6.357,23.773a7.419,7.419,0,0,1-4.928,1.889Z" transform="translate(-45.85 -14.115)" fill="#22aa6c"/>
      <path id="Path_126632" data-name="Path 126632" d="M175.021,72.743a4.826,4.826,0,0,1-.841-.05,5.89,5.89,0,0,1-4.171-2.44c-3.986-5.4-1.413-19.142-.858-21.85a2.608,2.608,0,0,1,5.113,1.035c-1.177,5.784-1.984,15.115-.033,17.738.235.317.386.335.5.351a2.14,2.14,0,0,0,1.715-.518c2.019-1.672,3.028-6.519,3.2-8.609a2.615,2.615,0,0,1,5.214.4c-.069.886-.808,8.676-5.062,12.187a7.386,7.386,0,0,1-4.762,1.739Z" transform="translate(-51.994 -14.334)" fill="#22aa6c"/>
    </g>
  </g>
</svg>
