<svg xmlns="http://www.w3.org/2000/svg" xmlns:xlink="http://www.w3.org/1999/xlink" width="291" height="67" viewBox="0 0 291 67">
  <defs>
    <clipPath id="clip-path">
      <rect id="Rectangle_24853" data-name="Rectangle 24853" width="291" height="67" transform="translate(0 0.466)" fill="#fff"/>
    </clipPath>
    <clipPath id="clip-path-2">
      <rect id="Rectangle_24852" data-name="Rectangle 24852" width="0.748" height="0.748" fill="#fff"/>
    </clipPath>
  </defs>
  <g id="Matzoball-_JEWZZ" data-name="Matzoball- JEWZZ" transform="translate(0 -0.466)" clip-path="url(#clip-path)">
    <path id="Path_126633" data-name="Path 126633" d="M300.791,57.731v-7.4h20.048V75.512q0,6.9-3.551,10.326a12.592,12.592,0,0,1-9.116,3.424,16.334,16.334,0,0,1-12.117-5.356l4.461-6.185q3.47,3.753,7.27,3.755a4.085,4.085,0,0,0,3.113-1.409,6.057,6.057,0,0,0,1.293-4.223V57.731Z" transform="translate(-209.589 -35.631)" fill="#061333"/>
    <path id="Path_126634" data-name="Path 126634" d="M439.971,50.331v7.676H420.8v7.952h17.239V73.3H420.8V81.31h19.772v7.62H412.213v-38.6Z" transform="translate(-291.822 -35.631)" fill="#061333"/>
    <path id="Path_126635" data-name="Path 126635" d="M535.661,72.53l6.83-22.2h8.977l6.774,22.2,7.655-22.2h9.308l-13.439,38.6h-6.389l-8.427-26.837L538.58,88.931h-6.389l-13.439-38.6h9.308Z" transform="translate(-367.246 -35.631)" fill="#061333"/>
    <path id="Path_126636" data-name="Path 126636" d="M720.167,88.922V83.013l20.158-25.236h-19.5V50.322h31.228v5.964l-20.1,25.126h20.433v7.51Z" transform="translate(-509.835 -35.625)" fill="#061333"/>
    <path id="Path_126637" data-name="Path 126637" d="M848.571,88.922V83.014l20.158-25.236h-19.5V50.323H880.46v5.964l-20.1,25.126H880.79v7.51Z" transform="translate(-600.737 -35.626)" fill="#061333"/>
    <path id="Path_126638" data-name="Path 126638" d="M63.838,1.328C48.156-3.695,41.041,7.2,41.041,7.2c7.625-4.8,17.117-5.133,23.434.108s8.017,19.423-6.013,27.128A109.589,109.589,0,0,0,39.1,48.506,199.618,199.618,0,0,0,19.715,34.439C5.352,25.395,8.056,12.552,14.373,7.311s14.892-5.054,22.516-.247c0,0-6.839-10.759-22.524-5.736s-20.692,27.956-3.92,39.313C26.587,51.57,37.255,61.476,39.008,67.072c0,0,.07.432.1.327.027.106.1-.327.1-.327,1.753-5.6,12.418-15.5,28.563-26.432C84.534,29.284,79.525,6.351,63.84,1.328Z" transform="translate(-0.006 0.006)" fill="#061333"/>
    <path id="Path_126639" data-name="Path 126639" d="M113.035,98.262a8.607,8.607,0,1,0-8.585-8.607A8.6,8.6,0,0,0,113.035,98.262Z" transform="translate(-73.944 -57.376)" fill="#061333"/>
    <g id="Group_52276" data-name="Group 52276" transform="translate(30.634 0.671)" clip-path="url(#clip-path-2)">
      <path id="Path_126640" data-name="Path 126640" d="M105.555,2.672h0a.295.295,0,0,0-.294-.294h0a.295.295,0,0,0-.294.294h0a.294.294,0,0,0,.294.294h0a.293.293,0,0,0,.208-.086.322.322,0,0,0,.025-.028A.294.294,0,0,0,105.555,2.672Zm-.425.151V2.512h.16a.231.231,0,0,1,.068.008.072.072,0,0,1,.038.028.085.085,0,0,1,.014.05.084.084,0,0,1-.041.075.118.118,0,0,1-.034.012.1.1,0,0,1,.025.012.1.1,0,0,1,.015.016.134.134,0,0,1,.014.019l.046.09h-.108l-.051-.095a.075.075,0,0,0-.017-.024.041.041,0,0,0-.024-.007h-.008v.126h-.1Zm.1-.185h.04l.025,0a.026.026,0,0,0,.016-.01.03.03,0,0,0,.006-.018.029.029,0,0,0-.009-.023.058.058,0,0,0-.036-.008h-.042Zm.409.034h0a.372.372,0,0,1-.079.229.348.348,0,0,1-.031.035.372.372,0,0,1-.264.11h0a.374.374,0,0,1-.374-.374h0a.374.374,0,0,1,.374-.374h0a.374.374,0,0,1,.374.374Z" transform="translate(-104.887 -2.297)" fill="#061333"/>
    </g>
  </g>
</svg>
