<svg xmlns="http://www.w3.org/2000/svg" width="125.768" height="48.592" viewBox="0 0 125.768 48.592">
  <g id="mongodb-ar21" transform="translate(-7.09 -5.043)">
    <path id="Path_126503" data-name="Path 126503" d="M16.153,5.154l1.3,2.436a7.309,7.309,0,0,0,.979,1.217,33.786,33.786,0,0,1,3.043,3.441A29.9,29.9,0,0,1,26.208,21.8a23.516,23.516,0,0,1,1.005,6.484,22.838,22.838,0,0,1-6.7,16.886,19.373,19.373,0,0,1-2.382,2.038c-.452,0-.662-.357-.847-.662a5.289,5.289,0,0,1-.662-1.905,9.136,9.136,0,0,1-.212-2.409v-.371c-.026-.08-.423-36.525-.265-36.711Z" transform="translate(1.701 0.021)" fill="#599636"/>
    <path id="Path_126504" data-name="Path 126504" d="M17.854,5.1c-.053-.107-.107-.026-.159.026a2.427,2.427,0,0,1-.452,1.456,6.879,6.879,0,0,1-1.165,1.165A25.34,25.34,0,0,0,10.388,15a29.4,29.4,0,0,0-3.28,11.858,39.359,39.359,0,0,0,.953,8.364,25.224,25.224,0,0,0,6.656,10.454,28.936,28.936,0,0,0,2.356,2.011c.238,0,.265-.212.317-.371a7.262,7.262,0,0,0,.238-1.033c.238-1.323.371-2.647.529-3.97L17.865,5.1Z" transform="translate(0 0)" fill="#6cac48"/>
    <path id="Path_126505" data-name="Path 126505" d="M17.572,43.055a3.764,3.764,0,0,1,.662-1.614,1.68,1.68,0,0,1-.742-.689,5.631,5.631,0,0,1-.4-.874,14.983,14.983,0,0,1-.556-3.415v-.689a3.335,3.335,0,0,0-.159,1.139,26.473,26.473,0,0,1-.475,3.573,3.2,3.2,0,0,1-.423,1.376.519.519,0,0,0,.026.185,15.87,15.87,0,0,1,.689,4.288v.529c0,.635-.026.5.5.713a2.325,2.325,0,0,1,.662.265c.159,0,.185-.131.185-.238l-.08-.874V44.294a6.388,6.388,0,0,1,.107-1.244Z" transform="translate(1.582 5.793)" fill="#c2bfbf"/>
    <g id="Group_52199" data-name="Group 52199" transform="translate(35.618 27.458)">
      <path id="Path_126506" data-name="Path 126506" d="M39.1,35.284V37.8a1.76,1.76,0,0,0,.017.3.638.638,0,0,0,.485.564,6.032,6.032,0,0,0,.765.149c.149.017.2.083.216.243.017.564-.033.631-.58.6a32.806,32.806,0,0,0-3.831,0h-.121c-.4.017-.431-.017-.431-.415,0-.067.017-.149.017-.216a.176.176,0,0,1,.2-.182c.267-.033.515-.1.765-.149a.689.689,0,0,0,.58-.647,9.286,9.286,0,0,0,.049-1.161l.017-4.444a.68.68,0,0,0-.364-.631,4.721,4.721,0,0,0-.947-.4,1.306,1.306,0,0,1-.282-.1c-.243-.117-.249-.331-.017-.465a.846.846,0,0,1,.282-.1A15.073,15.073,0,0,0,38.873,30c.2-.067.249-.049.267.149a1.421,1.421,0,0,1-.017.381,4.176,4.176,0,0,0-.033.631.229.229,0,0,0,.1.216c.083.05.166,0,.243-.049A9.021,9.021,0,0,1,40.51,30.6a5.092,5.092,0,0,1,1.76-.647,2.458,2.458,0,0,1,2.007.6,3.762,3.762,0,0,1,.63.729c.166.243.182.249.4.083a9.783,9.783,0,0,1,2.007-1.177,3.08,3.08,0,0,1,2.272-.1,2.726,2.726,0,0,1,1.626,1.575,4.473,4.473,0,0,1,.381,1.857v4.444a.639.639,0,0,0,.415.631,6.186,6.186,0,0,0,1,.249c.216.049.216.049.216.267-.033.546-.083.58-.614.546a35.708,35.708,0,0,0-4,0c-.267.017-.267.017-.282-.249v-.083c-.017-.449-.017-.449.415-.546l.431-.117a.667.667,0,0,0,.515-.647l.049-1.244-.033-3.25a2.585,2.585,0,0,0-.182-.846A2.034,2.034,0,0,0,47.313,31.4a3.749,3.749,0,0,0-1.791.714.357.357,0,0,0-.182.348,25.836,25.836,0,0,1,.067,3.185v2.306a.638.638,0,0,0,.564.714l.765.166c.117.017.182.067.182.2v.121c-.017.465-.049.485-.515.481-1.326-.067-2.654-.049-3.964,0-.449.017-.485-.033-.465-.485.017-.267.049-.282.3-.331l.546-.1a.723.723,0,0,0,.7-.8l.049-1.112-.033-3.334a2.669,2.669,0,0,0-.348-1.194,1.746,1.746,0,0,0-1.559-.962,3.5,3.5,0,0,0-1.942.546.977.977,0,0,0-.564,1.012V35.3Zm31.247.1v2.339q0,.249.033.5a.51.51,0,0,0,.4.465,3.871,3.871,0,0,0,.879.149c.166.017.2.083.216.216v.117c-.017.58-.083.647-.647.614a31.961,31.961,0,0,0-3.782,0l-.485.017c-.1,0-.121-.049-.149-.117a1.687,1.687,0,0,1,0-.7c.017-.1.083-.121.182-.149.243-.033.449-.083.68-.121a.626.626,0,0,0,.58-.7l.049-1.393v-4.08a.617.617,0,0,0-.381-.614,5.964,5.964,0,0,0-.947-.4,1.4,1.4,0,0,1-.282-.117.3.3,0,0,1-.033-.53.6.6,0,0,1,.331-.133,14.078,14.078,0,0,0,3.085-.8c.117-.049.166-.017.216.083a.55.55,0,0,1,.049.331l-.049.779c0,.1-.049.243.033.282.1.067.166-.083.249-.121a7.391,7.391,0,0,1,1.609-1.028,3.325,3.325,0,0,1,1.642-.364,2.788,2.788,0,0,1,2.421,1.609,4.356,4.356,0,0,1,.431,1.659l.049,1.214.017,3.665a.555.555,0,0,0,.4.564,5.425,5.425,0,0,0,.9.216c.267.033.282.083.3.331v.083c-.033.564-.067.58-.631.546a34.7,34.7,0,0,0-3.715,0c-.166.017-.331,0-.485.017-.1,0-.166-.017-.182-.117a1.787,1.787,0,0,1-.017-.664.183.183,0,0,1,.182-.166l.765-.121a.556.556,0,0,0,.449-.485l.033-.465-.017-3.466a5.835,5.835,0,0,0-.1-1.194A1.935,1.935,0,0,0,72.894,31.6a3.115,3.115,0,0,0-2.09.53.915.915,0,0,0-.449.829v2.5c0-.049,0-.049.017-.049Z" transform="translate(-35.47 -24.964)" fill="#47474a"/>
      <path id="Path_126507" data-name="Path 126507" d="M108.087,31.475a6.472,6.472,0,0,0-1.41-3.234,6.4,6.4,0,0,0-2.555-1.891,9.21,9.21,0,0,0-3.284-.6c-.465-.017-6.8.083-7.265,0a.248.248,0,0,0-.267.117,1.894,1.894,0,0,0-.216.381c-.2.449-.2.415.282.481a8.989,8.989,0,0,1,1.161.216.912.912,0,0,1,.68.7c.033.182.067,6.019.067,8.74l-.067,1.942a1.819,1.819,0,0,1-.083.431.7.7,0,0,1-.381.449,1.966,1.966,0,0,1-.7.182c-.449.049-.515.067-.664.564l-.049.182c-.033.216-.017.249.2.249l4.959.049,1.942-.033,1.343-.166a8.356,8.356,0,0,0,4.046-1.924,6.735,6.735,0,0,0,1.592-2.09,7.364,7.364,0,0,0,.714-2.968,5.9,5.9,0,0,0-.049-1.774Zm-2.405,2.354a6.641,6.641,0,0,1-.829,3.018,4.591,4.591,0,0,1-3.068,2.354,5.438,5.438,0,0,1-1.82.1,5.512,5.512,0,0,1-1.294-.249A1.389,1.389,0,0,1,97.643,37.6l-.017-10c0-.6.267-.728.7-.746a11.223,11.223,0,0,1,1.958.033,7.355,7.355,0,0,1,2.007.485,4.83,4.83,0,0,1,1.311.813,5.783,5.783,0,0,1,1.82,2.852,8.235,8.235,0,0,1,.267,2.769Zm16.189,1.626a1.566,1.566,0,0,0-.017-.282,3.18,3.18,0,0,0-1.376-2.14,5.182,5.182,0,0,0-1.592-.746,1.762,1.762,0,0,0-.282-.083.142.142,0,0,1,.117-.117,4.235,4.235,0,0,0,.928-.6,3.117,3.117,0,0,0,1.028-1.609,3.143,3.143,0,0,0-1.144-3.218,4.4,4.4,0,0,0-2.587-.813c-1.791-.033-3.6,0-5.388,0A10.064,10.064,0,0,1,110,25.8c-.1-.017-.243-.049-.316.067a2.359,2.359,0,0,0-.316.68c-.017.117.017.182.149.2l1.144.166a.822.822,0,0,1,.8.714,7.015,7.015,0,0,1,.049.829l-.033,3.1-.017,6.136a5.81,5.81,0,0,1-.116,1.078.607.607,0,0,1-.431.5,3.421,3.421,0,0,1-1,.2.413.413,0,0,0-.431.282,2.154,2.154,0,0,0-.149.465c-.033.2.017.267.216.243.149-.017,5.623.117,6.651.017a10.063,10.063,0,0,0,1.824-.331,6.266,6.266,0,0,0,2.769-1.626,3.568,3.568,0,0,0,1.028-2.388,2.982,2.982,0,0,0,.049-.664Zm-8.044-6.8.049-1.326a.368.368,0,0,1,.348-.415,4.86,4.86,0,0,1,1.194-.033,5.77,5.77,0,0,1,1.177.2,2.478,2.478,0,0,1,1.626,1.326,2.379,2.379,0,0,1,.232,1.012,3.19,3.19,0,0,1-.2,1.359,1.826,1.826,0,0,1-1.376,1.129,23.548,23.548,0,0,1-2.769.067c-.249,0-.267-.033-.267-.282V30.134a10.668,10.668,0,0,1-.017-1.46Zm5.388,8.922a2.544,2.544,0,0,1-1.525,1.541,2.9,2.9,0,0,1-1.214.216,9.662,9.662,0,0,1-1.541-.1,1.443,1.443,0,0,1-1.062-1.294c-.083-.846-.033-1.709-.049-2.339V33.418c0-.267.033-.348.316-.348l1.559.017,1.062.121a3.59,3.59,0,0,1,1.958,1.028,2.689,2.689,0,0,1,.714,1.642,3.678,3.678,0,0,1-.2,1.692Z" transform="translate(-24.632 -25.749)" fill="#c2bfbf"/>
      <path id="Path_126508" data-name="Path 126508" d="M84.812,31.8l.431.067a1.069,1.069,0,0,0,1.177-.8,1.675,1.675,0,0,0,0-.947c-.1,0-.149.083-.2.117a1.594,1.594,0,0,1-.829.348,3.815,3.815,0,0,1-1.774-.182L82.8,30.13a4.794,4.794,0,0,0-1.76-.231,6.1,6.1,0,0,0-2.388.746A3.241,3.241,0,0,0,77.031,32.6a3.874,3.874,0,0,0-.1,1.575,2.939,2.939,0,0,0,1.924,2.5c.067.017.117.049.182.067.149.083.166.166.033.282l-.415.282-1,.614a.371.371,0,0,0-.2.53,1.735,1.735,0,0,0,.53.8,2.767,2.767,0,0,0,.763.465c.182.083.182.121.017.267l-.947.68a5.671,5.671,0,0,0-.9.8,1.638,1.638,0,0,0-.4,1.493,2.8,2.8,0,0,0,.862,1.493,3.519,3.519,0,0,0,1.526.829A6.507,6.507,0,0,0,85.237,43.5,3.616,3.616,0,0,0,86.3,41.074a2.33,2.33,0,0,0-1.791-2.421l-.9-.166-2.737-.243a1.835,1.835,0,0,1-.846-.216.568.568,0,0,1-.2-.829.788.788,0,0,1,.564-.316l.53-.049a4.806,4.806,0,0,0,2.8-1.277,2.937,2.937,0,0,0,.846-1.41,4.422,4.422,0,0,0,.033-2.184c-.049-.182-.033-.2.2-.166Zm-4.066,8.261a1.752,1.752,0,0,0,.3,0,9.722,9.722,0,0,1,2.09.267,4.345,4.345,0,0,1,.647.249,1.588,1.588,0,0,1,.829,1.675,2.1,2.1,0,0,1-1.161,1.626,3.549,3.549,0,0,1-1.41.4c-.182.017-.348,0-.53,0A3.938,3.938,0,0,1,79.817,44a2.616,2.616,0,0,1-.978-.664,1.711,1.711,0,0,1,.017-2.5,2.436,2.436,0,0,1,1.891-.765Zm1.891-5.175a1.62,1.62,0,0,1-1.874,1.028,1.986,1.986,0,0,1-1.541-1.112,3.572,3.572,0,0,1-.3-2.637A1.623,1.623,0,0,1,80.25,30.86a2.031,2.031,0,0,1,2.289,1.095,3.622,3.622,0,0,1,.348,1.774,3.757,3.757,0,0,1-.249,1.161Zm-20.9-1.129a4.585,4.585,0,0,0-1.095-2.388,4.38,4.38,0,0,0-3.384-1.46,5.834,5.834,0,0,0-3.184.913,4.32,4.32,0,0,0-1.941,2.538,5.773,5.773,0,0,0-.049,2.919,4.429,4.429,0,0,0,5.024,3.583,5.516,5.516,0,0,0,2.039-.6,4.475,4.475,0,0,0,2.14-2.107,5.449,5.449,0,0,0,.53-2.555l-.083-.846Zm-2.354,3.682a2.015,2.015,0,0,1-1.709,1.393,2.774,2.774,0,0,1-2.023-.515,3.447,3.447,0,0,1-1.045-1.244,6.359,6.359,0,0,1-.449-4.345,2.488,2.488,0,0,1,.7-1.211,2.262,2.262,0,0,1,2.124-.53A3.019,3.019,0,0,1,58.8,32.2a4.757,4.757,0,0,1,.829,2.124,8.736,8.736,0,0,1,.083,1.028,5.549,5.549,0,0,1-.316,2.09ZM97.98,33.9a4.491,4.491,0,0,0-1.161-2.57,4.429,4.429,0,0,0-3.35-1.41,5.909,5.909,0,0,0-3.085.846A4.223,4.223,0,0,0,88.311,33.5a5.789,5.789,0,0,0,.4,3.947,4.025,4.025,0,0,0,2.7,2.239,5.436,5.436,0,0,0,3.914-.415,4.546,4.546,0,0,0,2.322-2.488,6.126,6.126,0,0,0,.381-2.206,3.792,3.792,0,0,0-.049-.68ZM95.691,37.23a2.066,2.066,0,0,1-1.774,1.609,2.757,2.757,0,0,1-1.958-.465,3.372,3.372,0,0,1-1.144-1.359,5.106,5.106,0,0,1-.53-1.824,6.447,6.447,0,0,1,.083-2.322,2.366,2.366,0,0,1,.149-.448A2.236,2.236,0,0,1,93.22,31a3.019,3.019,0,0,1,1.891,1.311,4.884,4.884,0,0,1,.765,2.184,4.449,4.449,0,0,1,.049.928,5.644,5.644,0,0,1-.243,1.824Z" transform="translate(-32.368 -24.968)" fill="#47474a"/>
    </g>
  </g>
</svg>
