<svg id="nodejs-horizontal" xmlns="http://www.w3.org/2000/svg" width="134.569" height="38" viewBox="0 0 134.569 38">
  <path id="Path_126487" data-name="Path 126487" d="M129.975,14.3a1.867,1.867,0,0,0-.928.227l-8.922,5.152a1.88,1.88,0,0,0-.928,1.629V31.594a1.881,1.881,0,0,0,.928,1.629l2.33,1.343a3.808,3.808,0,0,0,2.065.549,2.468,2.468,0,0,0,2.633-2.785V22.183a.255.255,0,0,0-.265-.246h-1.118a.255.255,0,0,0-.265.246V32.336c0,.783-.816,1.572-2.14.909l-2.422-1.421a.271.271,0,0,1-.152-.227V21.311a.3.3,0,0,1,.152-.246l8.9-5.134a.262.262,0,0,1,.265,0l8.9,5.134a.3.3,0,0,1,.152.246V31.6a.285.285,0,0,1-.133.246l-8.922,5.134a.274.274,0,0,1-.265,0l-2.292-1.364a.238.238,0,0,0-.227,0,5.9,5.9,0,0,1-1.345.606c-.146.051-.369.13.076.379l2.993,1.764a1.842,1.842,0,0,0,.928.246,1.808,1.808,0,0,0,.928-.246l8.922-5.134a1.884,1.884,0,0,0,.928-1.629V21.314a1.882,1.882,0,0,0-.928-1.629l-8.922-5.152a1.86,1.86,0,0,0-.928-.227Zm2.387,7.35c-2.541,0-4.054,1.081-4.054,2.879,0,1.948,1.5,2.486,3.94,2.727,2.917.286,3.144.714,3.144,1.288,0,1-.794,1.421-2.671,1.421-2.358,0-2.876-.589-3.05-1.764a.257.257,0,0,0-.246-.227h-1.158a.271.271,0,0,0-.265.265c0,1.5.817,3.277,4.717,3.277,2.823,0,4.451-1.106,4.451-3.05,0-1.922-1.315-2.441-4.054-2.8-2.764-.369-3.031-.545-3.031-1.193,0-.535.224-1.251,2.273-1.251,1.831,0,2.507.395,2.785,1.629a.261.261,0,0,0,.246.211h1.158a.281.281,0,0,0,.19-.095.249.249,0,0,0,.076-.19c-.179-2.126-1.6-3.126-4.451-3.126Z" transform="translate(-6.187 -0.816)" fill="#83cd29"/>
  <path id="Path_126488" data-name="Path 126488" d="M71.574.106a.567.567,0,0,0-.568.568V15.165a.384.384,0,0,1-.19.341.4.4,0,0,1-.4,0L68.05,14.143a1.135,1.135,0,0,0-1.137,0L57.462,19.6a1.164,1.164,0,0,0-.569,1V31.512a1.135,1.135,0,0,0,.568.985l9.452,5.455a1.132,1.132,0,0,0,1.137,0L77.5,32.5a1.135,1.135,0,0,0,.568-.985V4.311a1.155,1.155,0,0,0-.587-1L71.858.163a.557.557,0,0,0-.284-.057Zm-60.8,13.619a1.069,1.069,0,0,0-.512.133L.806,19.313a1.132,1.132,0,0,0-.568.985L.257,34.941a.559.559,0,0,0,.284.492.55.55,0,0,0,.568,0l5.607-3.22a1.156,1.156,0,0,0,.587-.985V24.39a1.13,1.13,0,0,1,.569-.985l2.387-1.383a1.141,1.141,0,0,1,1.137,0L13.781,23.4a1.131,1.131,0,0,1,.568.985v6.838a1.163,1.163,0,0,0,.587.985l5.607,3.22a.55.55,0,0,0,.568,0,.571.571,0,0,0,.284-.492L21.414,20.3a1.127,1.127,0,0,0-.568-.985l-9.452-5.455a1.062,1.062,0,0,0-.512-.133H10.77Zm84.937.133a1.129,1.129,0,0,0-.568.152l-9.452,5.455a1.135,1.135,0,0,0-.569.985V31.361a1.141,1.141,0,0,0,.587.985L95.08,37.69a1.137,1.137,0,0,0,1.118.018l5.683-3.163a.574.574,0,0,0,.3-.492.561.561,0,0,0-.284-.492L92.39,28.1a.612.612,0,0,1-.3-.512V24.181a.585.585,0,0,1,.3-.492l2.955-1.7a.568.568,0,0,1,.569,0l2.956,1.7a.566.566,0,0,1,.284.492v2.69a.568.568,0,0,0,.853.492l5.663-3.3a1.139,1.139,0,0,0,.569-.985V20.451a1.137,1.137,0,0,0-.568-.985l-9.4-5.455a1.127,1.127,0,0,0-.568-.152ZM67.444,22a.319.319,0,0,1,.152.038l3.239,1.875a.294.294,0,0,1,.152.246v3.751a.292.292,0,0,1-.152.246L67.6,30.035a.288.288,0,0,1-.284,0L64.072,28.16a.293.293,0,0,1-.152-.246V24.162a.294.294,0,0,1,.152-.246l3.239-1.875A.249.249,0,0,1,67.444,22h0Z" transform="translate(-0.237 -0.106)" fill="#404137"/>
  <path id="Path_126489" data-name="Path 126489" d="M40.656,14.522a1.135,1.135,0,0,0-.569.152L30.635,20.11a1.164,1.164,0,0,0-.568,1V32.025a1.132,1.132,0,0,0,.568.985l9.452,5.455a1.132,1.132,0,0,0,1.137,0l9.452-5.455a1.135,1.135,0,0,0,.568-.985V21.114a1.162,1.162,0,0,0-.569-1l-9.452-5.437a1.124,1.124,0,0,0-.569-.152Zm56.524,9.736a.24.24,0,0,0-.114.018l-1.818,1.061a.221.221,0,0,0-.114.189v2.084a.222.222,0,0,0,.114.19l1.818,1.042a.2.2,0,0,0,.208,0L99.092,27.8a.223.223,0,0,0,.114-.19V25.527a.223.223,0,0,0-.114-.19l-1.818-1.061a.156.156,0,0,0-.095-.018Z" transform="translate(-1.729 -0.827)" fill="#83cd29"/>
</svg>
