<svg id="python-horizontal" xmlns="http://www.w3.org/2000/svg" xmlns:xlink="http://www.w3.org/1999/xlink" width="129.682" height="34.002" viewBox="0 0 129.682 34.002">
  <defs>
    <linearGradient id="linear-gradient" x2="0.745" y2="0.641" gradientUnits="objectBoundingBox">
      <stop offset="0" stop-color="#5a9fd4"/>
      <stop offset="1" stop-color="#306998"/>
    </linearGradient>
    <linearGradient id="linear-gradient-2" x1="0.5" y1="0.823" x2="0.234" y2="0.449" gradientUnits="objectBoundingBox">
      <stop offset="0" stop-color="#ffd43b"/>
      <stop offset="1" stop-color="#ffe873"/>
    </linearGradient>
  </defs>
  <path id="Path_126490" data-name="Path 126490" d="M70.111,27.267q0-6.428-3.666-6.606a6.885,6.885,0,0,0-2.846.467,4.054,4.054,0,0,0-1.494.789v10.23a7.2,7.2,0,0,0,4.162,1.365Q70.111,33.256,70.111,27.267Zm3.015.17a9.143,9.143,0,0,1-1.53,5.423,5.668,5.668,0,0,1-4.76,2.51,8.44,8.44,0,0,1-4.724-1.434v9.3L59.49,42.3V21.66A5.871,5.871,0,0,1,61.145,20.3a11.359,11.359,0,0,1,5.688-1.4l.037.037a5.217,5.217,0,0,1,4.716,2.51,10.668,10.668,0,0,1,1.547,6ZM89.15,33.545q0,4.381-.878,6.067A6.176,6.176,0,0,1,84.913,42.3a12.885,12.885,0,0,1-4.335.864l-.425-1.652a20.713,20.713,0,0,0,3.339-.646,4.415,4.415,0,0,0,2.622-1.974,9.908,9.908,0,0,0,.574-4.128v-.683A13.472,13.472,0,0,1,81.051,35.3a5.18,5.18,0,0,1-3.411-1.219,4.149,4.149,0,0,1-1.652-3.374V19.8l2.622-.9V29.886a3.369,3.369,0,0,0,1.136,2.72,4.247,4.247,0,0,0,2.941.915,7.327,7.327,0,0,0,3.859-1.4V19.3h2.622V33.545Zm10.236,1.688-.864.037a5.155,5.155,0,0,1-3.465-1.062,3.66,3.66,0,0,1-1.237-2.935V20.948h-1.8V19.3h1.8v-4.38l2.618-.932V19.3h2.946v1.649H96.438V31.2a2.46,2.46,0,0,0,.79,2.088,4.006,4.006,0,0,0,2.155.576v1.365Zm15.874-.215h-2.622V24.9a4.781,4.781,0,0,0-.72-2.656,2.62,2.62,0,0,0-2.309-1.256,8.507,8.507,0,0,0-4.509,1.9V35.018h-2.622V10.827L105.1,10V21.018a9.135,9.135,0,0,1,5.493-1.83,4.382,4.382,0,0,1,3.374,1.4,4.938,4.938,0,0,1,1.294,3.482V35.018ZM129.2,26.854a8.057,8.057,0,0,0-.935-4.082,3.914,3.914,0,0,0-3.445-2.074q-4.312.25-4.309,6.173a10.141,10.141,0,0,0,.9,4.536,3.618,3.618,0,0,0,3.459,2.283q4.329-.034,4.329-6.836Zm2.871.017a9.325,9.325,0,0,1-1.8,5.852,6.471,6.471,0,0,1-5.457,2.618,6.332,6.332,0,0,1-5.387-2.618,9.455,9.455,0,0,1-1.759-5.852,8.352,8.352,0,0,1,1.9-5.565,6.548,6.548,0,0,1,5.27-2.4,6.676,6.676,0,0,1,5.316,2.4,8.352,8.352,0,0,1,1.9,5.565ZM147.1,35.018h-2.622v-10.7a3.577,3.577,0,0,0-1.058-2.748,3.834,3.834,0,0,0-2.82-.949,6.292,6.292,0,0,0-3.553,1.219V35.017h-2.622v-13.5a12.011,12.011,0,0,1,7.327-2.618,8.164,8.164,0,0,1,1.759.181,5.054,5.054,0,0,1,2.513,1.329,3.515,3.515,0,0,1,1.079,2.584V35.017Z" transform="translate(-17.421 -10)" fill="#646464"/>
  <path id="Path_126491" data-name="Path 126491" d="M26.162,11.086a22.4,22.4,0,0,0-3.771.323c-3.34.59-3.946,1.825-3.946,4.1v3.007h7.891v1H15.484a4.928,4.928,0,0,0-4.93,4,14.673,14.673,0,0,0,0,8.02c.561,2.336,1.9,4,4.194,4h2.713V31.937a5.014,5.014,0,0,1,4.93-4.9h7.882a3.976,3.976,0,0,0,3.946-4.01V15.518a4.4,4.4,0,0,0-3.946-4.1,24.788,24.788,0,0,0-4.111-.323Zm-4.267,2.419a1.5,1.5,0,1,1-1.481,1.509,1.5,1.5,0,0,1,1.481-1.509Z" transform="translate(-9.996 -10.163)" fill="url(#linear-gradient)"/>
  <path id="Path_126492" data-name="Path 126492" d="M36.695,21.008v3.5a5.056,5.056,0,0,1-4.93,5H23.884a4.026,4.026,0,0,0-3.946,4.01V41.04c0,2.139,1.86,3.4,3.946,4.01a13.205,13.205,0,0,0,7.882,0c1.986-.575,3.946-1.734,3.946-4.01V38.032H27.828v-1H39.655c2.293,0,3.148-1.6,3.946-4a13.537,13.537,0,0,0,0-8.02c-.567-2.283-1.649-4-3.946-4H36.694ZM32.262,40.037a1.5,1.5,0,1,1-1.481,1.5A1.49,1.49,0,0,1,32.262,40.037Z" transform="translate(-11.487 -11.651)" fill="url(#linear-gradient-2)"/>
</svg>
