<svg xmlns="http://www.w3.org/2000/svg" width="133.606" height="42.592" viewBox="0 0 133.606 42.592">
  <g id="redis-ar21" transform="translate(-37.989 -50.361)">
    <path id="Path_126509" data-name="Path 126509" d="M96.3,62.674a2.014,2.014,0,0,1-2,2,3.608,3.608,0,0,0-2.265.717,5.693,5.693,0,0,0-1.736,1.812,11.6,11.6,0,0,0-1.548,3.171v7.173a2.055,2.055,0,0,1-2.076,2,2.016,2.016,0,0,1-2-2V62.674a1.982,1.982,0,0,1,2-1.963,2.024,2.024,0,0,1,2.076,1.963v.264a4.854,4.854,0,0,1,.793-.755A8.277,8.277,0,0,1,94.3,60.711,1.959,1.959,0,0,1,96.3,62.674Zm-1.11,7.438a9.346,9.346,0,0,1,9.211-9.438,9.032,9.032,0,0,1,9.1,8.758v.189a1.038,1.038,0,0,1-.038.34,1.822,1.822,0,0,1-1.963,1.51h-12a4.949,4.949,0,0,0,1.284,2.492,5.84,5.84,0,0,0,3.624,1.7,6.176,6.176,0,0,0,3.926-.944,2.141,2.141,0,0,1,2.831-.117,1.725,1.725,0,0,1,0,2.454,9.543,9.543,0,0,1-6.758,2.492,9.37,9.37,0,0,1-9.211-9.437Zm4.115-1.85h10.683a6.171,6.171,0,0,0-5.587-4,5.278,5.278,0,0,0-5.1,4Zm33.43,9.249a2.055,2.055,0,0,1-2.039,2.039,2.031,2.031,0,0,1-2-1.623,9.2,9.2,0,0,1-5.134,1.623,9.442,9.442,0,0,1,0-18.876,8.934,8.934,0,0,1,5.059,1.585v-7.1a2.058,2.058,0,0,1,4.115,0V77.512Zm-9.174-12.722a4.886,4.886,0,0,0-3.548,1.548,5.473,5.473,0,0,0,0,7.55,4.887,4.887,0,0,0,3.548,1.548,4.824,4.824,0,0,0,3.549-1.548,5.473,5.473,0,0,0,0-7.55A4.825,4.825,0,0,0,123.557,64.789Zm16.357-8.834a2.038,2.038,0,0,1-2.039,2.076,2.062,2.062,0,0,1-2.038-2.076v-.793a2.03,2.03,0,0,1,2.038-2.039,2.007,2.007,0,0,1,2.039,2.039Zm0,6.836V77.515a2.007,2.007,0,0,1-2.039,2.039,2.03,2.03,0,0,1-2.038-2.039V62.792a2.016,2.016,0,0,1,2.038-2.076,1.994,1.994,0,0,1,2.039,2.076Zm2.594,11.358a1.964,1.964,0,0,1,2.831-.3,6.929,6.929,0,0,0,4.153,1.661,5.027,5.027,0,0,0,2.567-.717,1.553,1.553,0,0,0,.679-1.133.567.567,0,0,0-.113-.378c-.038-.113-.189-.264-.491-.453a8.728,8.728,0,0,0-3.02-1.058h-.038a14.341,14.341,0,0,1-3.284-.982,6.272,6.272,0,0,1-2.6-2.189,4.581,4.581,0,0,1-.641-2.378,5.3,5.3,0,0,1,2.227-4.153,8.123,8.123,0,0,1,4.644-1.4,9.71,9.71,0,0,1,5.663,2.076,2.085,2.085,0,0,1,.6,2.793,1.994,1.994,0,0,1-2.793.526,6.469,6.469,0,0,0-3.476-1.4,3.846,3.846,0,0,0-2.265.679,1.151,1.151,0,0,0-.6.868.407.407,0,0,0,.075.3,1.019,1.019,0,0,0,.415.377,7.7,7.7,0,0,0,2.756.906l.038.038h.038a13.573,13.573,0,0,1,3.511,1.095,5.848,5.848,0,0,1,2.681,2.227,4.891,4.891,0,0,1,.717,2.492,5.464,5.464,0,0,1-2.379,4.382,8.591,8.591,0,0,1-4.908,1.51,10.965,10.965,0,0,1-6.72-2.6,2.015,2.015,0,0,1-.265-2.794Z" transform="translate(14.818 0.877)" fill="#636466"/>
    <path id="Path_126510" data-name="Path 126510" d="M85.737,78.206c-2.652,1.382-16.39,7.031-19.315,8.556s-4.55,1.51-6.86.406S42.631,80.158,40,78.9c-1.316-.629-2.008-1.16-2.008-1.662V72.214S57.023,68.071,60.1,66.968s4.139-1.139,6.753-.184S85.1,70.563,87.684,71.51v4.952c0,.5-.6,1.041-1.946,1.745Z" transform="translate(0 4.997)" fill="#a41e11"/>
    <path id="Path_126511" data-name="Path 126511" d="M85.737,74.158c-2.652,1.382-16.39,7.031-19.315,8.556s-4.55,1.51-6.86.406S42.631,76.109,40,74.851s-2.689-2.125-.1-3.138l20.2-7.82c3.073-1.1,4.139-1.139,6.753-.184s16.272,6.394,18.856,7.34,2.684,1.727.029,3.11Z" transform="translate(0 4.021)" fill="#d82c20"/>
    <path id="Path_126512" data-name="Path 126512" d="M85.737,71.988c-2.652,1.382-16.39,7.031-19.315,8.557s-4.55,1.51-6.86.405S42.631,73.94,40,72.681c-1.316-.629-2.008-1.16-2.008-1.661V66S57.023,61.853,60.1,60.751s4.139-1.139,6.753-.184S85.1,64.345,87.684,65.292v4.952c0,.5-.6,1.041-1.946,1.745Z" transform="translate(0 3.023)" fill="#a41e11"/>
    <path id="Path_126513" data-name="Path 126513" d="M85.737,67.94c-2.652,1.382-16.39,7.031-19.315,8.557s-4.55,1.51-6.86.405S42.631,69.892,40,68.633s-2.689-2.125-.1-3.138l20.2-7.82c3.073-1.1,4.139-1.139,6.753-.184s16.272,6.393,18.856,7.34,2.684,1.727.029,3.11Z" transform="translate(0 2.047)" fill="#d82c20"/>
    <path id="Path_126514" data-name="Path 126514" d="M85.737,65.54c-2.652,1.382-16.39,7.032-19.315,8.559s-4.55,1.51-6.86.405S42.631,67.494,40,66.236c-1.316-.629-2.008-1.16-2.008-1.661V59.548S57.023,55.405,60.1,54.3s4.139-1.139,6.753-.184S85.1,57.9,87.684,58.844V63.8c0,.5-.6,1.041-1.946,1.744Z" transform="translate(0 0.976)" fill="#a41e11"/>
    <path id="Path_126515" data-name="Path 126515" d="M85.737,61.492c-2.652,1.382-16.39,7.032-19.315,8.557s-4.55,1.51-6.86.405S42.631,63.444,40,62.185s-2.689-2.125-.1-3.138l20.2-7.82c3.073-1.1,4.139-1.139,6.753-.184s16.272,6.393,18.856,7.34,2.684,1.727.029,3.109Z" transform="translate(0)" fill="#d82c20"/>
    <g id="Group_52200" data-name="Group 52200" transform="translate(46.525 52.994)">
      <path id="Path_126516" data-name="Path 126516" d="M58.233,56.2l-4.972-.447,3.71-1.338-1.11-2.054,3.476,1.358,3.272-1.072-.885,2.124,3.339,1.25-4.306.447-.964,2.32ZM51.5,63.94l11.516-1.767-3.476,5.1Z" transform="translate(-42.237 -52.359)" fill="#fff"/>
      <ellipse id="Ellipse_827" data-name="Ellipse 827" cx="6.155" cy="2.386" rx="6.155" ry="2.386" transform="translate(0 4.95)" fill="#fff"/>
    </g>
    <path id="Path_126517" data-name="Path 126517" d="M72.468,58.313,65.662,61V55.617Z" transform="translate(8.785 1.668)" fill="#7a0c00"/>
    <path id="Path_126518" data-name="Path 126518" d="M67.475,55.619V61l-.739.292L59.93,58.608Z" transform="translate(6.965 1.669)" fill="#ad2115"/>
  </g>
</svg>
